<svg fill="none" height="221" viewBox="0 0 574 221" width="574" xmlns="http://www.w3.org/2000/svg" xmlns:xlink="http://www.w3.org/1999/xlink"><filter id="a" color-interpolation-filters="sRGB" filterUnits="userSpaceOnUse" height="210" width="210" x="182" y=".195312"><feFlood flood-opacity="0" result="BackgroundImageFix"/><feBlend in="SourceGraphic" in2="BackgroundImageFix" mode="normal" result="shape"/><feGaussianBlur result="effect1_foregroundBlur_698_5961" stdDeviation="20"/></filter><filter id="b" color-interpolation-filters="sRGB" filterUnits="userSpaceOnUse" height="34.3193" width="34.3203" x="269.334" y="91.8623"><feFlood flood-opacity="0" result="BackgroundImageFix"/><feColorMatrix in="SourceAlpha" result="hardAlpha" type="matrix" values="0 0 0 0 0 0 0 0 0 0 0 0 0 0 0 0 0 0 127 0"/><feOffset dy="3.333"/><feGaussianBlur stdDeviation="3.333"/><feComposite in2="hardAlpha" operator="out"/><feColorMatrix type="matrix" values="0 0 0 0 0 0 0 0 0 0 0 0 0 0 0 0 0 0 0.25 0"/><feBlend in2="BackgroundImageFix" mode="normal" result="effect1_dropShadow_698_5961"/><feBlend in="SourceGraphic" in2="effect1_dropShadow_698_5961" mode="normal" result="shape"/><feColorMatrix in="SourceAlpha" result="hardAlpha" type="matrix" values="0 0 0 0 0 0 0 0 0 0 0 0 0 0 0 0 0 0 127 0"/><feOffset dy=".833"/><feGaussianBlur stdDeviation=".833"/><feComposite in2="hardAlpha" k2="-1" k3="1" operator="arithmetic"/><feColorMatrix type="matrix" values="0 0 0 0 0 0 0 0 0 0 0 0 0 0 0 0 0 0 0.25 0"/><feBlend in2="shape" mode="normal" result="effect2_innerShadow_698_5961"/></filter><filter id="c" color-interpolation-filters="sRGB" filterUnits="userSpaceOnUse" height="12.3615" width="13.8772" x="279.412" y="100.401"><feFlood flood-opacity="0" result="BackgroundImageFix"/><feColorMatrix in="SourceAlpha" result="hardAlpha" type="matrix" values="0 0 0 0 0 0 0 0 0 0 0 0 0 0 0 0 0 0 127 0"/><feOffset dy=".794"/><feGaussianBlur stdDeviation=".794"/><feComposite in2="hardAlpha" operator="out"/><feColorMatrix type="matrix" values="0 0 0 0 0 0 0 0 0 0 0 0 0 0 0 0 0 0 0.25 0"/><feBlend in2="BackgroundImageFix" mode="normal" result="effect1_dropShadow_698_5961"/><feBlend in="SourceGraphic" in2="effect1_dropShadow_698_5961" mode="normal" result="shape"/><feColorMatrix in="SourceAlpha" result="hardAlpha" type="matrix" values="0 0 0 0 0 0 0 0 0 0 0 0 0 0 0 0 0 0 127 0"/><feOffset dy=".198"/><feGaussianBlur stdDeviation=".099"/><feComposite in2="hardAlpha" k2="-1" k3="1" operator="arithmetic"/><feColorMatrix type="matrix" values="0 0 0 0 0 0 0 0 0 0 0 0 0 0 0 0 0 0 0.25 0"/><feBlend in2="shape" mode="normal" result="effect2_innerShadow_698_5961"/></filter><filter id="d" color-interpolation-filters="sRGB" filterUnits="userSpaceOnUse" height="15.834" width="14.52" x="225.74" y="100.881"><feFlood flood-opacity="0" result="BackgroundImageFix"/><feColorMatrix in="SourceAlpha" result="hardAlpha" type="matrix" values="0 0 0 0 0 0 0 0 0 0 0 0 0 0 0 0 0 0 127 0"/><feOffset dy="5.26"/><feGaussianBlur stdDeviation="2.63"/><feComposite in2="hardAlpha" operator="out"/><feColorMatrix type="matrix" values="0 0 0 0 0.945098 0 0 0 0 0.298039 0 0 0 0 0.152941 0 0 0 0.07 0"/><feBlend in2="BackgroundImageFix" mode="normal" result="effect1_dropShadow_698_5961"/><feBlend in="SourceGraphic" in2="effect1_dropShadow_698_5961" mode="normal" result="shape"/><feColorMatrix in="SourceAlpha" result="hardAlpha" type="matrix" values="0 0 0 0 0 0 0 0 0 0 0 0 0 0 0 0 0 0 127 0"/><feOffset dy="-1.315"/><feGaussianBlur stdDeviation=".657"/><feComposite in2="hardAlpha" k2="-1" k3="1" operator="arithmetic"/><feColorMatrix type="matrix" values="0 0 0 0 1 0 0 0 0 1 0 0 0 0 1 0 0 0 0.29 0"/><feBlend in2="shape" mode="normal" result="effect2_innerShadow_698_5961"/></filter><filter id="e" color-interpolation-filters="sRGB" filterUnits="userSpaceOnUse" height="15.834" width="14.52" x="335.74" y="100.881"><feFlood flood-opacity="0" result="BackgroundImageFix"/><feColorMatrix in="SourceAlpha" result="hardAlpha" type="matrix" values="0 0 0 0 0 0 0 0 0 0 0 0 0 0 0 0 0 0 127 0"/><feOffset dy="5.26"/><feGaussianBlur stdDeviation="2.63"/><feComposite in2="hardAlpha" operator="out"/><feColorMatrix type="matrix" values="0 0 0 0 0.945098 0 0 0 0 0.298039 0 0 0 0 0.152941 0 0 0 0.07 0"/><feBlend in2="BackgroundImageFix" mode="normal" result="effect1_dropShadow_698_5961"/><feBlend in="SourceGraphic" in2="effect1_dropShadow_698_5961" mode="normal" result="shape"/><feColorMatrix in="SourceAlpha" result="hardAlpha" type="matrix" values="0 0 0 0 0 0 0 0 0 0 0 0 0 0 0 0 0 0 127 0"/><feOffset dy="-1.315"/><feGaussianBlur stdDeviation=".657"/><feComposite in2="hardAlpha" k2="-1" k3="1" operator="arithmetic"/><feColorMatrix type="matrix" values="0 0 0 0 1 0 0 0 0 1 0 0 0 0 1 0 0 0 0.29 0"/><feBlend in2="shape" mode="normal" result="effect2_innerShadow_698_5961"/></filter><filter id="f" color-interpolation-filters="sRGB" filterUnits="userSpaceOnUse" height="202" width="202" x="372" y="19"><feFlood flood-opacity="0" result="BackgroundImageFix"/><feColorMatrix in="SourceAlpha" result="hardAlpha" type="matrix" values="0 0 0 0 0 0 0 0 0 0 0 0 0 0 0 0 0 0 127 0"/><feOffset dx="13" dy="4"/><feGaussianBlur stdDeviation="15"/><feComposite in2="hardAlpha" operator="out"/><feColorMatrix type="matrix" values="0 0 0 0 0 0 0 0 0 0 0 0 0 0 0 0 0 0 0.25 0"/><feBlend in2="BackgroundImageFix" mode="normal" result="effect1_dropShadow_698_5961"/><feBlend in="SourceGraphic" in2="effect1_dropShadow_698_5961" mode="normal" result="shape"/></filter><filter id="g" color-interpolation-filters="sRGB" filterUnits="userSpaceOnUse" height="202" width="202" x="334" y="9"><feFlood flood-opacity="0" result="BackgroundImageFix"/><feColorMatrix in="SourceAlpha" result="hardAlpha" type="matrix" values="0 0 0 0 0 0 0 0 0 0 0 0 0 0 0 0 0 0 127 0"/><feOffset dx="13" dy="4"/><feGaussianBlur stdDeviation="15"/><feComposite in2="hardAlpha" operator="out"/><feColorMatrix type="matrix" values="0 0 0 0 0 0 0 0 0 0 0 0 0 0 0 0 0 0 0.25 0"/><feBlend in2="BackgroundImageFix" mode="normal" result="effect1_dropShadow_698_5961"/><feBlend in="SourceGraphic" in2="effect1_dropShadow_698_5961" mode="normal" result="shape"/></filter><filter id="h" color-interpolation-filters="sRGB" filterUnits="userSpaceOnUse" height="90.6768" width="89.8027" x="383" y="61.1045"><feFlood flood-opacity="0" result="BackgroundImageFix"/><feBlend in="SourceGraphic" in2="BackgroundImageFix" mode="normal" result="shape"/><feColorMatrix in="SourceAlpha" result="hardAlpha" type="matrix" values="0 0 0 0 0 0 0 0 0 0 0 0 0 0 0 0 0 0 127 0"/><feOffset dx="4" dy="2"/><feGaussianBlur stdDeviation="8.7"/><feComposite in2="hardAlpha" k2="-1" k3="1" operator="arithmetic"/><feColorMatrix type="matrix" values="0 0 0 0 0 0 0 0 0 0 0 0 0 0 0 0 0 0 0.44 0"/><feBlend in2="shape" mode="normal" result="effect1_innerShadow_698_5961"/></filter><filter id="i" color-interpolation-filters="sRGB" filterUnits="userSpaceOnUse" height="202" width="202" x="0" y="19"><feFlood flood-opacity="0" result="BackgroundImageFix"/><feColorMatrix in="SourceAlpha" result="hardAlpha" type="matrix" values="0 0 0 0 0 0 0 0 0 0 0 0 0 0 0 0 0 0 127 0"/><feOffset dx="-13" dy="4"/><feGaussianBlur stdDeviation="15"/><feComposite in2="hardAlpha" operator="out"/><feColorMatrix type="matrix" values="0 0 0 0 0 0 0 0 0 0 0 0 0 0 0 0 0 0 0.25 0"/><feBlend in2="BackgroundImageFix" mode="normal" result="effect1_dropShadow_698_5961"/><feBlend in="SourceGraphic" in2="effect1_dropShadow_698_5961" mode="normal" result="shape"/></filter><filter id="j" color-interpolation-filters="sRGB" filterUnits="userSpaceOnUse" height="203" width="203" x="38.5" y="8.5"><feFlood flood-opacity="0" result="BackgroundImageFix"/><feColorMatrix in="SourceAlpha" result="hardAlpha" type="matrix" values="0 0 0 0 0 0 0 0 0 0 0 0 0 0 0 0 0 0 127 0"/><feOffset dx="-13" dy="4"/><feGaussianBlur stdDeviation="15"/><feComposite in2="hardAlpha" operator="out"/><feColorMatrix type="matrix" values="0 0 0 0 0 0 0 0 0 0 0 0 0 0 0 0 0 0 0.25 0"/><feBlend in2="BackgroundImageFix" mode="normal" result="effect1_dropShadow_698_5961"/><feBlend in="SourceGraphic" in2="effect1_dropShadow_698_5961" mode="normal" result="shape"/></filter><filter id="k" color-interpolation-filters="sRGB" filterUnits="userSpaceOnUse" height="457" width="459" x="-45" y="-79"><feFlood flood-opacity="0" result="BackgroundImageFix"/><feBlend in="SourceGraphic" in2="BackgroundImageFix" mode="normal" result="shape"/><feGaussianBlur result="effect1_foregroundBlur_698_5961" stdDeviation="75"/></filter><linearGradient id="l"><stop offset=".096" stop-color="#ff7a00"/><stop offset=".25" stop-color="#ff7146"/><stop offset=".81" stop-color="#ff6b3f" stop-opacity="0"/></linearGradient><radialGradient id="m" cx="0" cy="0" gradientTransform="matrix(0 65 -60.6473 0 287 105.195)" gradientUnits="userSpaceOnUse" r="1" xlink:href="#l"/><linearGradient id="n"><stop offset="0" stop-color="#fcdad2"/><stop offset=".475" stop-color="#ff5f0d"/><stop offset="1" stop-color="#7c2d12"/></linearGradient><radialGradient id="o" cx="0" cy="0" gradientTransform="matrix(-64.30305276 148.90922539 -148.90922539 -64.30305276 324.225 95.0378)" gradientUnits="userSpaceOnUse" r="1" xlink:href="#n"/><linearGradient id="p" gradientUnits="userSpaceOnUse" x1="173.975" x2="394" y1="104.667" y2="104.667"><stop offset=".01" stop-color="#f97316" stop-opacity="0"/><stop offset=".175" stop-color="#f97316"/><stop offset=".49" stop-color="#ff987f"/><stop offset=".825" stop-color="#ff5f0d"/><stop offset="1" stop-color="#f97316" stop-opacity="0"/></linearGradient><radialGradient id="q" cx="0" cy="0" gradientTransform="matrix(-53.91559452 19.14759943 -16.59101421 -46.71679069 319.211 110.747)" gradientUnits="userSpaceOnUse" r="1" xlink:href="#n"/><linearGradient id="r" gradientUnits="userSpaceOnUse" x1="286.493" x2="286.493" y1="95.1953" y2="116.182"><stop offset="0" stop-color="#1b1b1b"/><stop offset="1" stop-color="#282828"/></linearGradient><radialGradient id="s" cx="0" cy="0" gradientTransform="matrix(-10.38097859 24.03965931 -24.03965931 -10.38097859 292.503 104.049)" gradientUnits="userSpaceOnUse" r="1" xlink:href="#n"/><radialGradient id="t" cx="0" cy="0" gradientTransform="matrix(-9.96895539 23.08552023 -23.08552023 -9.96895539 292.266 104.115)" gradientUnits="userSpaceOnUse" r="1" xlink:href="#n"/><radialGradient id="u" cx="0" cy="0" gradientTransform="matrix(-8.27971819 6.8080584 -5.6582026 -6.8813045 290.299 104.048)" gradientUnits="userSpaceOnUse" r="1"><stop offset="0" stop-color="#fff"/><stop offset="1" stop-color="#666"/></radialGradient><radialGradient id="v" cx="0" cy="0" gradientTransform="matrix(-5.29286256 10.52139835 -11.60545694 -5.83820576 289.414 105.07)" gradientUnits="userSpaceOnUse" r="1" xlink:href="#n"/><linearGradient id="w"><stop offset="0" stop-color="#fdba74"/><stop offset="1" stop-color="#ff5f0d"/></linearGradient><radialGradient id="x" cx="0" cy="0" gradientTransform="matrix(-.54701214 6.73548412 -5.25315454 -.42662699 233.752 100.97)" gradientUnits="userSpaceOnUse" r="1" xlink:href="#w"/><radialGradient id="y" cx="0" cy="0" gradientTransform="matrix(-1.97855577 4.58182303 -4.58182303 -1.97855577 234.145 103.883)" gradientUnits="userSpaceOnUse" r="1" xlink:href="#n"/><radialGradient id="z" cx="0" cy="0" gradientTransform="matrix(-.54701214 6.73548412 -5.25315454 -.42662699 343.752 100.97)" gradientUnits="userSpaceOnUse" r="1" xlink:href="#w"/><radialGradient id="A" cx="0" cy="0" gradientTransform="matrix(-1.97855577 4.58182303 -4.58182303 -1.97855577 344.145 103.883)" gradientUnits="userSpaceOnUse" r="1" xlink:href="#n"/><linearGradient id="B"><stop offset="0" stop-color="#353535"/><stop offset="1" stop-color="#1c1c1c" stop-opacity=".66"/></linearGradient><radialGradient id="C" cx="0" cy="0" gradientTransform="matrix(1.4420598 190.06752956 -182.05876006 1.38129653 498 52.3002)" gradientUnits="userSpaceOnUse" r="1" xlink:href="#B"/><radialGradient id="D" cx="0" cy="0" gradientTransform="matrix(1.4420598 190.06752956 -182.05876006 1.38129653 460 42.3002)" gradientUnits="userSpaceOnUse" r="1" xlink:href="#B"/><radialGradient id="E" cx="0" cy="0" gradientTransform="matrix(1.44155909 190.17653649 -182.0587697 1.38002552 422 32.2642)" gradientUnits="userSpaceOnUse" r="1" xlink:href="#B"/><linearGradient id="F"><stop offset="0" stop-color="#4c4a4a"/><stop offset="1" stop-color="#262626"/></linearGradient><radialGradient id="G" cx="0" cy="0" gradientTransform="matrix(0 151.536 -120.884 0 418.5 58.4639)" gradientUnits="userSpaceOnUse" r="1" xlink:href="#F"/><radialGradient id="H" cx="0" cy="0" gradientTransform="matrix(-14.50000237 -14.50000237 14.50000237 -14.50000237 454.5 128.5)" gradientUnits="userSpaceOnUse" r="1"><stop offset="0" stop-color="#ff5f0d" stop-opacity=".82"/><stop offset="1" stop-color="#7c2d12" stop-opacity=".53"/></radialGradient><radialGradient id="I" cx="0" cy="0" gradientTransform="matrix(-14.50000237 -14.50000237 14.50000237 -14.50000237 418.5 110.5)" gradientUnits="userSpaceOnUse" r="1"><stop offset="0" stop-color="#262626" stop-opacity=".82"/><stop offset="1" stop-color="#525252" stop-opacity=".53"/></radialGradient><radialGradient id="J" cx="0" cy="0" gradientTransform="matrix(1.4420598 190.06752956 -182.05876006 1.38129653 82 52.3002)" gradientUnits="userSpaceOnUse" r="1" xlink:href="#B"/><radialGradient id="K" cx="0" cy="0" gradientTransform="matrix(1.4420598 190.06752956 -182.05876006 1.38129653 114 42.3002)" gradientUnits="userSpaceOnUse" r="1" xlink:href="#B"/><radialGradient id="L" cx="0" cy="0" gradientTransform="matrix(204.68023366 267.75711892 -62.4550781 47.74222262 41.8267 -26.1597)" gradientUnits="userSpaceOnUse" r="1"><stop offset="0" stop-color="#ff7351" stop-opacity="0"/><stop offset=".475" stop-color="#f35630" stop-opacity=".73"/><stop offset="1" stop-color="#f45831" stop-opacity="0"/></radialGradient><radialGradient id="M" cx="0" cy="0" gradientTransform="matrix(0 151.536 -120.884 0 149.5 58.4639)" gradientUnits="userSpaceOnUse" r="1" xlink:href="#F"/><radialGradient id="N" cx="0" cy="0" gradientTransform="matrix(0 78.5 -74.1763 0 184.5 149.5)" gradientUnits="userSpaceOnUse" r="1" xlink:href="#l"/><clipPath id="O"><rect height="142" rx="14" width="142" x="82" y="35"/></clipPath><mask id="P" height="211" maskUnits="userSpaceOnUse" width="210" x="182" y="0"><path d="m182.5.5h209v210h-209z" fill="#fff" stroke="#fff"/></mask><mask id="Q" fill="#fff"><path clip-rule="evenodd" d="m233.55 104.695h-.05v-1h.05c.133 0 .26.053.354.147.093.094.146.221.146.353 0 .133-.053.26-.146.354-.094.094-.221.146-.354.146zm3.479-.5c0-.132.053-.259.146-.353.094-.094.221-.147.354-.147h.099c.133 0 .26.053.354.147.093.094.146.221.146.353 0 .133-.053.26-.146.354-.094.094-.221.146-.354.146h-.099c-.133 0-.26-.052-.354-.146-.093-.094-.146-.221-.146-.354zm4.078 0c0-.132.053-.259.146-.353.094-.094.221-.147.354-.147h.099c.133 0 .26.053.354.147.093.094.146.221.146.353 0 .133-.053.26-.146.354-.094.094-.221.146-.354.146h-.099c-.133 0-.26-.052-.354-.146-.093-.094-.146-.221-.146-.354zm4.078 0c0-.132.053-.259.146-.353.094-.094.221-.147.354-.147h.1c.133 0 .26.053.354.147.093.094.146.221.146.353 0 .133-.053.26-.146.354-.094.094-.221.146-.354.146h-.1c-.133 0-.26-.052-.354-.146-.093-.094-.146-.221-.146-.354zm4.079 0c0-.132.053-.259.146-.353.094-.094.221-.147.354-.147h.099c.133 0 .26.053.354.147.093.094.146.221.146.353 0 .133-.053.26-.146.354-.094.094-.221.146-.354.146h-.099c-.133 0-.26-.052-.354-.146-.093-.094-.146-.221-.146-.354zm4.078 0c0-.132.053-.259.146-.353.094-.094.221-.147.354-.147h.099c.133 0 .26.053.354.147.093.094.146.221.146.353 0 .133-.053.26-.146.354-.094.094-.221.146-.354.146h-.099c-.133 0-.26-.052-.354-.146-.093-.094-.146-.221-.146-.354zm4.078 0c0-.132.053-.259.146-.353.094-.094.221-.147.354-.147h.098c.133.001.26.054.353.147.094.094.146.222.146.354 0 .133-.053.26-.147.354-.094.093-.221.146-.354.145h-.096c-.133 0-.26-.052-.354-.146-.093-.094-.146-.221-.146-.354zm58.235.5h-.047c-.133.001-.26-.052-.354-.145-.094-.094-.147-.221-.147-.354 0-.132.052-.26.146-.354.093-.093.22-.146.353-.147h.095c.133 0 .26.053.354.147.093.094.146.221.146.353 0 .133-.053.26-.146.354-.094.094-.221.146-.354.146zm3.288-.5c0-.132.053-.259.146-.353.094-.094.221-.147.354-.147h.093c.133 0 .26.053.354.147.093.094.146.221.146.353 0 .133-.053.26-.146.354-.094.094-.221.146-.354.146h-.093c-.133 0-.26-.052-.354-.146-.093-.094-.146-.221-.146-.354zm3.835 0c0-.132.053-.259.146-.353.094-.094.221-.147.354-.147h.094c.133 0 .26.053.354.147.093.094.146.221.146.353 0 .133-.053.26-.146.354-.094.094-.221.146-.354.146h-.094c-.133 0-.26-.052-.354-.146-.093-.094-.146-.221-.146-.354zm3.835 0c0-.132.053-.259.146-.353.094-.094.221-.147.354-.147h.094c.133 0 .26.053.354.147.093.094.146.221.146.353 0 .133-.053.26-.146.354-.094.094-.221.146-.354.146h-.094c-.133 0-.26-.052-.354-.146-.093-.094-.146-.221-.146-.354zm3.835 0c0-.132.053-.259.146-.353.094-.094.221-.147.354-.147h.094c.133 0 .26.053.354.147.093.094.146.221.146.353 0 .133-.053.26-.146.354-.094.094-.221.146-.354.146h-.094c-.133 0-.26-.052-.354-.146-.093-.094-.146-.221-.146-.354zm3.835 0c0-.132.053-.259.146-.353.094-.094.221-.147.354-.147h.094c.133 0 .26.053.354.147.093.094.146.221.146.353 0 .133-.053.26-.146.354-.094.094-.221.146-.354.146h-.094c-.133 0-.26-.052-.354-.146-.093-.094-.146-.221-.146-.354zm3.835 0c0-.132.053-.259.146-.353.094-.094.221-.147.354-.147h.094c.133 0 .26.053.354.147.093.094.146.221.146.353 0 .133-.053.26-.146.354-.094.094-.221.146-.354.146h-.094c-.133 0-.26-.052-.354-.146-.093-.094-.146-.221-.146-.354zm3.835 0c0-.132.053-.259.146-.353.094-.094.221-.147.354-.147h.047v1h-.047c-.133 0-.26-.052-.354-.146-.093-.094-.146-.221-.146-.354zm-80.697.313c.03-.129.11-.241.222-.312.112-.07.248-.094.377-.065l.094.022c.129.03.241.111.311.223.07.113.093.249.063.378-.031.129-.111.241-.223.311-.113.07-.249.092-.378.062l-.089-.021c-.129-.029-.242-.109-.312-.221-.071-.112-.094-.247-.065-.377zm51.064.009c.015.064.017.131.006.195-.011.065-.034.127-.069.183s-.08.104-.134.142c-.053.038-.114.066-.178.08l-.09.021c-.064.017-.131.02-.197.011-.066-.01-.129-.033-.186-.067s-.106-.08-.145-.134c-.04-.053-.068-.114-.083-.179s-.017-.132-.007-.197c.011-.066.035-.129.071-.185.035-.056.082-.105.136-.143s.116-.065.181-.079l.095-.022c.129-.03.265-.007.377.063.113.07.193.182.223.311zm-47.398 1.156c.029-.059.068-.112.117-.155.049-.044.106-.077.168-.099s.128-.031.193-.027c.066.004.13.021.189.049l.087.042c.059.029.112.069.155.119.044.049.077.106.098.168.021.063.03.128.026.194-.004.065-.021.129-.05.188s-.069.112-.118.155c-.05.044-.107.077-.169.098-.062.022-.128.03-.193.026-.066-.004-.13-.021-.189-.05l-.082-.04c-.059-.028-.112-.068-.156-.117s-.077-.106-.099-.168c-.021-.063-.03-.128-.027-.194.004-.065.021-.13.05-.189zm43.69.041c.058.119.067.257.024.382-.042.125-.133.229-.252.287l-.083.041c-.059.03-.123.048-.189.053s-.132-.003-.194-.024c-.063-.02-.121-.053-.171-.097-.05-.043-.091-.095-.12-.154-.029-.06-.047-.124-.051-.19-.005-.065.004-.132.025-.194.021-.063.055-.12.098-.17.044-.049.097-.09.156-.119l.088-.043c.119-.058.256-.067.382-.024.125.043.228.133.287.252zm-40.381 1.918c.041-.051.092-.094.149-.125.058-.032.121-.052.187-.059.065-.007.131-.001.194.017.063.019.122.049.173.09l.076.061c.094.087.151.206.161.333.009.127-.031.253-.111.352-.081.099-.196.164-.323.181-.126.017-.254-.015-.358-.09l-.071-.057c-.051-.041-.094-.092-.125-.149-.032-.058-.052-.121-.059-.186-.007-.066-.001-.132.017-.195s.049-.121.09-.173zm37.043.091c.084.103.124.234.11.366-.013.132-.078.253-.18.337l-.072.059c-.05.045-.109.079-.173.101-.063.021-.131.03-.198.024-.067-.005-.132-.023-.191-.054-.06-.031-.113-.074-.156-.125-.043-.052-.075-.112-.094-.176-.019-.065-.025-.132-.017-.199.007-.067.028-.132.061-.19.033-.059.078-.11.131-.151l.075-.062c.051-.041.109-.073.172-.092s.129-.025.194-.019c.066.007.129.026.187.057s.109.073.151.124zm-34.258 2.561c.104-.081.237-.118.369-.103.132.016.252.083.334.187l.029.038.026.033c.076.105.109.235.091.364-.018.128-.085.245-.187.325-.102.079-.231.117-.36.103-.129-.013-.248-.076-.331-.176l-.026-.033-.028-.035c-.041-.051-.071-.11-.089-.174-.018-.063-.023-.129-.015-.194.007-.066.028-.129.06-.186.032-.058.075-.108.127-.149zm31.465.155c.219.168.26.482.091.701l-.028.036-.022.029c-.039.055-.088.101-.146.136-.057.035-.12.059-.187.069-.066.009-.134.006-.199-.011-.065-.016-.126-.046-.179-.087-.053-.04-.098-.091-.131-.15-.033-.058-.054-.122-.062-.189s-.002-.134.017-.199c.019-.064.051-.124.093-.176l.022-.029.03-.039c.04-.052.09-.095.147-.128s.119-.054.185-.063c.065-.008.131-.004.194.013.064.018.123.047.175.087zm-1.812 2.368c.22.167.262.481.094.7l-.022.029-.03.039c-.082.103-.2.17-.331.186-.13.016-.261-.02-.365-.1s-.173-.198-.191-.328c-.018-.129.016-.261.094-.367l.028-.037.022-.029c.04-.052.09-.096.147-.128.056-.033.119-.055.184-.063.065-.009.131-.005.195.012.063.017.123.046.175.086zm-27.552.158c.052-.04.111-.07.174-.088.064-.017.13-.022.195-.014s.128.029.185.061.108.076.148.127l.026.032.028.037c.044.051.077.111.097.175.021.065.028.132.021.2-.006.067-.026.132-.059.191-.032.059-.076.111-.129.153s-.114.072-.179.09-.133.022-.2.012c-.067-.009-.131-.032-.189-.067-.057-.035-.108-.081-.147-.136l-.031-.038-.025-.033c-.041-.051-.07-.111-.088-.174s-.023-.129-.015-.194.029-.128.061-.186c.032-.057.075-.107.127-.148zm24.967 2.711c.042.051.074.109.094.172.019.063.026.129.02.194-.006.066-.024.129-.055.187-.031.059-.072.11-.123.152l-.074.062c-.102.085-.234.125-.366.112-.132-.012-.254-.077-.339-.179-.084-.103-.124-.234-.112-.366.013-.133.078-.254.18-.339l.071-.058c.102-.085.233-.126.365-.114s.254.076.339.177zm-22.344.132c.084-.102.205-.168.337-.181.131-.014.263.026.366.109l.071.058c.102.084.168.204.182.336.013.131-.025.263-.108.366s-.203.168-.335.183c-.131.015-.263-.023-.366-.106l-.075-.061c-.051-.041-.093-.092-.125-.15-.031-.058-.05-.121-.057-.187-.007-.065 0-.131.018-.194.019-.063.05-.122.092-.173zm19.169 2.085c.059.119.069.256.027.382-.041.126-.131.23-.25.289l-.087.043c-.118.05-.25.054-.37.009-.12-.044-.219-.133-.276-.248-.056-.115-.067-.247-.029-.369.037-.122.121-.226.232-.289l.082-.041c.059-.029.123-.047.188-.051.066-.005.132.003.194.024s.12.054.169.097c.05.043.091.096.12.154zm-15.969.094c.058-.119.161-.21.286-.253.125-.044.263-.036.382.022l.083.04c.062.027.118.066.164.115.046.048.083.106.106.169.024.063.034.13.031.198-.003.067-.019.133-.048.194-.029.06-.07.114-.121.159-.051.044-.11.078-.174.099s-.131.029-.198.024c-.067-.006-.132-.025-.192-.057l-.088-.042c-.119-.058-.21-.161-.254-.286-.043-.125-.035-.262.023-.382zm12.372 1.337c.015.064.018.13.008.195-.011.065-.034.127-.068.183-.034.057-.079.105-.133.144-.053.038-.113.066-.177.081l-.095.022c-.129.03-.265.008-.378-.062-.112-.07-.192-.182-.223-.311-.03-.129-.007-.265.063-.378.07-.112.182-.193.311-.223l.089-.021c.064-.015.13-.018.195-.007.065.01.127.033.183.067.056.035.105.08.143.133.039.053.067.113.082.177zm-8.758.052c.029-.129.109-.241.221-.312s.248-.094.377-.065l.09.02c.066.013.128.039.184.076.055.037.103.085.139.141.037.056.062.118.074.184s.011.133-.003.198c-.015.066-.042.127-.081.182-.038.054-.088.1-.145.136-.056.035-.12.058-.186.068-.066.011-.133.008-.198-.009l-.095-.021c-.129-.029-.242-.108-.312-.221-.071-.112-.094-.247-.065-.377zm4.93.53c.001.066-.012.131-.037.192-.024.061-.061.116-.107.163s-.1.084-.161.11c-.06.025-.125.039-.191.039l-.097.001c-.066.001-.131-.012-.192-.037-.06-.025-.116-.061-.162-.108-.047-.046-.084-.101-.109-.162-.026-.06-.039-.125-.039-.191 0-.065.012-.13.037-.191s.062-.116.108-.163c.046-.046.101-.083.162-.109.06-.025.125-.038.191-.039l.092-.001c.133 0 .26.051.355.144.094.093.148.22.15.352z" fill="#fff" fill-rule="evenodd"/></mask><g mask="url(#P)"><g filter="url(#a)" opacity=".3"><path d="m351.5 105.195c0 35.623-28.878 64.5-64.5 64.5s-64.5-28.877-64.5-64.5c0-35.6221 28.878-64.4997 64.5-64.4997s64.5 28.8776 64.5 64.4997z" fill="url(#m)" stroke="url(#o)"/></g><path d="m233.55 104.695h-.05v-1h.05c.133 0 .26.053.354.147.093.094.146.221.146.353 0 .133-.053.26-.146.354-.094.094-.221.146-.354.146zm3.479-.5c0-.132.053-.259.146-.353.094-.094.221-.147.354-.147h.099c.133 0 .26.053.354.147.093.094.146.221.146.353 0 .133-.053.26-.146.354-.094.094-.221.146-.354.146h-.099c-.133 0-.26-.052-.354-.146-.093-.094-.146-.221-.146-.354zm4.078 0c0-.132.053-.259.146-.353.094-.094.221-.147.354-.147h.099c.133 0 .26.053.354.147.093.094.146.221.146.353 0 .133-.053.26-.146.354-.094.094-.221.146-.354.146h-.099c-.133 0-.26-.052-.354-.146-.093-.094-.146-.221-.146-.354zm4.078 0c0-.132.053-.259.146-.353.094-.094.221-.147.354-.147h.1c.133 0 .26.053.354.147.093.094.146.221.146.353 0 .133-.053.26-.146.354-.094.094-.221.146-.354.146h-.1c-.133 0-.26-.052-.354-.146-.093-.094-.146-.221-.146-.354zm4.079 0c0-.132.053-.259.146-.353.094-.094.221-.147.354-.147h.099c.133 0 .26.053.354.147.093.094.146.221.146.353 0 .133-.053.26-.146.354-.094.094-.221.146-.354.146h-.099c-.133 0-.26-.052-.354-.146-.093-.094-.146-.221-.146-.354zm4.078 0c0-.132.053-.259.146-.353.094-.094.221-.147.354-.147h.099c.133 0 .26.053.354.147.093.094.146.221.146.353 0 .133-.053.26-.146.354-.094.094-.221.146-.354.146h-.099c-.133 0-.26-.052-.354-.146-.093-.094-.146-.221-.146-.354zm4.078 0c0-.132.053-.259.146-.353.094-.094.221-.147.354-.147h.098c.133.001.26.054.353.147.094.094.146.222.146.354 0 .133-.053.26-.147.354-.094.093-.221.146-.354.145h-.096c-.133 0-.26-.052-.354-.146-.093-.094-.146-.221-.146-.354zm58.235.5h-.047c-.133.001-.26-.052-.354-.145-.094-.094-.147-.221-.147-.354 0-.132.052-.26.146-.354.093-.093.22-.146.353-.147h.095c.133 0 .26.053.354.147.093.094.146.221.146.353 0 .133-.053.26-.146.354-.094.094-.221.146-.354.146zm3.288-.5c0-.132.053-.259.146-.353.094-.094.221-.147.354-.147h.093c.133 0 .26.053.354.147.093.094.146.221.146.353 0 .133-.053.26-.146.354-.094.094-.221.146-.354.146h-.093c-.133 0-.26-.052-.354-.146-.093-.094-.146-.221-.146-.354zm3.835 0c0-.132.053-.259.146-.353.094-.094.221-.147.354-.147h.094c.133 0 .26.053.354.147.093.094.146.221.146.353 0 .133-.053.26-.146.354-.094.094-.221.146-.354.146h-.094c-.133 0-.26-.052-.354-.146-.093-.094-.146-.221-.146-.354zm3.835 0c0-.132.053-.259.146-.353.094-.094.221-.147.354-.147h.094c.133 0 .26.053.354.147.093.094.146.221.146.353 0 .133-.053.26-.146.354-.094.094-.221.146-.354.146h-.094c-.133 0-.26-.052-.354-.146-.093-.094-.146-.221-.146-.354zm3.835 0c0-.132.053-.259.146-.353.094-.094.221-.147.354-.147h.094c.133 0 .26.053.354.147.093.094.146.221.146.353 0 .133-.053.26-.146.354-.094.094-.221.146-.354.146h-.094c-.133 0-.26-.052-.354-.146-.093-.094-.146-.221-.146-.354zm3.835 0c0-.132.053-.259.146-.353.094-.094.221-.147.354-.147h.094c.133 0 .26.053.354.147.093.094.146.221.146.353 0 .133-.053.26-.146.354-.094.094-.221.146-.354.146h-.094c-.133 0-.26-.052-.354-.146-.093-.094-.146-.221-.146-.354zm3.835 0c0-.132.053-.259.146-.353.094-.094.221-.147.354-.147h.094c.133 0 .26.053.354.147.093.094.146.221.146.353 0 .133-.053.26-.146.354-.094.094-.221.146-.354.146h-.094c-.133 0-.26-.052-.354-.146-.093-.094-.146-.221-.146-.354zm3.835 0c0-.132.053-.259.146-.353.094-.094.221-.147.354-.147h.047v1h-.047c-.133 0-.26-.052-.354-.146-.093-.094-.146-.221-.146-.354zm-80.697.313c.03-.129.11-.241.222-.312.112-.07.248-.094.377-.065l.094.022c.129.03.241.111.311.223.07.113.093.249.063.378-.031.129-.111.241-.223.311-.113.07-.249.092-.378.062l-.089-.021c-.129-.029-.242-.109-.312-.221-.071-.112-.094-.247-.065-.377zm51.064.009c.015.064.017.131.006.195-.011.065-.034.127-.069.183s-.08.104-.134.142c-.053.038-.114.066-.178.08l-.09.021c-.064.017-.131.02-.197.011-.066-.01-.129-.033-.186-.067s-.106-.08-.145-.134c-.04-.053-.068-.114-.083-.179s-.017-.132-.007-.197c.011-.066.035-.129.071-.185.035-.056.082-.105.136-.143s.116-.065.181-.079l.095-.022c.129-.03.265-.007.377.063.113.07.193.182.223.311zm-47.398 1.156c.029-.059.068-.112.117-.155.049-.044.106-.077.168-.099s.128-.031.193-.027c.066.004.13.021.189.049l.087.042c.059.029.112.069.155.119.044.049.077.106.098.168.021.063.03.128.026.194-.004.065-.021.129-.05.188s-.069.112-.118.155c-.05.044-.107.077-.169.098-.062.022-.128.03-.193.026-.066-.004-.13-.021-.189-.05l-.082-.04c-.059-.028-.112-.068-.156-.117s-.077-.106-.099-.168c-.021-.063-.03-.128-.027-.194.004-.065.021-.13.05-.189zm43.69.041c.058.119.067.257.024.382-.042.125-.133.229-.252.287l-.083.041c-.059.03-.123.048-.189.053s-.132-.003-.194-.024c-.063-.02-.121-.053-.171-.097-.05-.043-.091-.095-.12-.154-.029-.06-.047-.124-.051-.19-.005-.065.004-.132.025-.194.021-.063.055-.12.098-.17.044-.049.097-.09.156-.119l.088-.043c.119-.058.256-.067.382-.024.125.043.228.133.287.252zm-40.381 1.918c.041-.051.092-.094.149-.125.058-.032.121-.052.187-.059.065-.007.131-.001.194.017.063.019.122.049.173.09l.076.061c.094.087.151.206.161.333.009.127-.031.253-.111.352-.081.099-.196.164-.323.181-.126.017-.254-.015-.358-.09l-.071-.057c-.051-.041-.094-.092-.125-.149-.032-.058-.052-.121-.059-.186-.007-.066-.001-.132.017-.195s.049-.121.09-.173zm37.043.091c.084.103.124.234.11.366-.013.132-.078.253-.18.337l-.072.059c-.05.045-.109.079-.173.101-.063.021-.131.03-.198.024-.067-.005-.132-.023-.191-.054-.06-.031-.113-.074-.156-.125-.043-.052-.075-.112-.094-.176-.019-.065-.025-.132-.017-.199.007-.067.028-.132.061-.19.033-.059.078-.11.131-.151l.075-.062c.051-.041.109-.073.172-.092s.129-.025.194-.019c.066.007.129.026.187.057s.109.073.151.124zm-34.258 2.561c.104-.081.237-.118.369-.103.132.016.252.083.334.187l.029.038.026.033c.076.105.109.235.091.364-.018.128-.085.245-.187.325-.102.079-.231.117-.36.103-.129-.013-.248-.076-.331-.176l-.026-.033-.028-.035c-.041-.051-.071-.11-.089-.174-.018-.063-.023-.129-.015-.194.007-.066.028-.129.06-.186.032-.058.075-.108.127-.149zm31.465.155c.219.168.26.482.091.701l-.028.036-.022.029c-.039.055-.088.101-.146.136-.057.035-.12.059-.187.069-.066.009-.134.006-.199-.011-.065-.016-.126-.046-.179-.087-.053-.04-.098-.091-.131-.15-.033-.058-.054-.122-.062-.189s-.002-.134.017-.199c.019-.064.051-.124.093-.176l.022-.029.03-.039c.04-.052.09-.095.147-.128s.119-.054.185-.063c.065-.008.131-.004.194.013.064.018.123.047.175.087zm-1.812 2.368c.22.167.262.481.094.7l-.022.029-.03.039c-.082.103-.2.17-.331.186-.13.016-.261-.02-.365-.1s-.173-.198-.191-.328c-.018-.129.016-.261.094-.367l.028-.037.022-.029c.04-.052.09-.096.147-.128.056-.033.119-.055.184-.063.065-.009.131-.005.195.012.063.017.123.046.175.086zm-27.552.158c.052-.04.111-.07.174-.088.064-.017.13-.022.195-.014s.128.029.185.061.108.076.148.127l.026.032.028.037c.044.051.077.111.097.175.021.065.028.132.021.2-.006.067-.026.132-.059.191-.032.059-.076.111-.129.153s-.114.072-.179.09-.133.022-.2.012c-.067-.009-.131-.032-.189-.067-.057-.035-.108-.081-.147-.136l-.031-.038-.025-.033c-.041-.051-.07-.111-.088-.174s-.023-.129-.015-.194.029-.128.061-.186c.032-.057.075-.107.127-.148zm24.967 2.711c.042.051.074.109.094.172.019.063.026.129.02.194-.006.066-.024.129-.055.187-.031.059-.072.11-.123.152l-.074.062c-.102.085-.234.125-.366.112-.132-.012-.254-.077-.339-.179-.084-.103-.124-.234-.112-.366.013-.133.078-.254.18-.339l.071-.058c.102-.085.233-.126.365-.114s.254.076.339.177zm-22.344.132c.084-.102.205-.168.337-.181.131-.014.263.026.366.109l.071.058c.102.084.168.204.182.336.013.131-.025.263-.108.366s-.203.168-.335.183c-.131.015-.263-.023-.366-.106l-.075-.061c-.051-.041-.093-.092-.125-.15-.031-.058-.05-.121-.057-.187-.007-.065 0-.131.018-.194.019-.063.05-.122.092-.173zm19.169 2.085c.059.119.069.256.027.382-.041.126-.131.23-.25.289l-.087.043c-.118.05-.25.054-.37.009-.12-.044-.219-.133-.276-.248-.056-.115-.067-.247-.029-.369.037-.122.121-.226.232-.289l.082-.041c.059-.029.123-.047.188-.051.066-.005.132.003.194.024s.12.054.169.097c.05.043.091.096.12.154zm-15.969.094c.058-.119.161-.21.286-.253.125-.044.263-.036.382.022l.083.04c.062.027.118.066.164.115.046.048.083.106.106.169.024.063.034.13.031.198-.003.067-.019.133-.048.194-.029.06-.07.114-.121.159-.051.044-.11.078-.174.099s-.131.029-.198.024c-.067-.006-.132-.025-.192-.057l-.088-.042c-.119-.058-.21-.161-.254-.286-.043-.125-.035-.262.023-.382zm12.372 1.337c.015.064.018.13.008.195-.011.065-.034.127-.068.183-.034.057-.079.105-.133.144-.053.038-.113.066-.177.081l-.095.022c-.129.03-.265.008-.378-.062-.112-.07-.192-.182-.223-.311-.03-.129-.007-.265.063-.378.07-.112.182-.193.311-.223l.089-.021c.064-.015.13-.018.195-.007.065.01.127.033.183.067.056.035.105.08.143.133.039.053.067.113.082.177zm-8.758.052c.029-.129.109-.241.221-.312s.248-.094.377-.065l.09.02c.066.013.128.039.184.076.055.037.103.085.139.141.037.056.062.118.074.184s.011.133-.003.198c-.015.066-.042.127-.081.182-.038.054-.088.1-.145.136-.056.035-.12.058-.186.068-.066.011-.133.008-.198-.009l-.095-.021c-.129-.029-.242-.108-.312-.221-.071-.112-.094-.247-.065-.377zm4.93.53c.001.066-.012.131-.037.192-.024.061-.061.116-.107.163s-.1.084-.161.11c-.06.025-.125.039-.191.039l-.097.001c-.066.001-.131-.012-.192-.037-.06-.025-.116-.061-.162-.108-.047-.046-.084-.101-.109-.162-.026-.06-.039-.125-.039-.191 0-.065.012-.13.037-.191s.062-.116.108-.163c.046-.046.101-.083.162-.109.06-.025.125-.038.191-.039l.092-.001c.133 0 .26.051.355.144.094.093.148.22.15.352z" style="fill-rule:evenodd;clip-rule:evenodd;stroke-width:2;fill:url(#p);stroke:url(#q);mask:url(#Q)"/><g filter="url(#b)"><path d="m286.493 95.6953h.001c5.519 0 9.993 4.4737 9.993 9.9927v.001c0 5.519-4.474 9.993-9.993 9.993h-.001c-5.519 0-9.993-4.474-9.993-9.993v-.001c0-5.519 4.474-9.9927 9.993-9.9927z" fill="url(#r)" stroke="url(#s)"/><path d="m296.572 105.689c0-5.565-4.512-10.0767-10.077-10.0767s-10.077 4.5117-10.077 10.0767c0 5.566 4.512 10.077 10.077 10.077s10.077-4.511 10.077-10.077z" stroke="url(#t)" stroke-width=".833"/></g><g filter="url(#c)"><path d="m287.029 101.726.002-.002c.009-.009.019-.016.031-.021s.025-.008.038-.008.026.003.038.008.022.012.031.021l.001.001 4 4 .001.001c.01.009.017.02.022.032s.007.025.007.038-.002.025-.007.037-.012.023-.022.032l-.001.001-3.991 3.991c-.018.016-.042.024-.066.024-.026-.001-.05-.011-.069-.03-.018-.018-.029-.043-.029-.069 0-.024.008-.047.023-.066l2.967-2.967.853-.853h-1.207-8.051c-.027 0-.052-.011-.071-.03-.018-.018-.029-.044-.029-.07 0-.027.011-.052.029-.071.019-.019.044-.029.071-.029h8.051 1.207l-.853-.854-2.975-2.976-.001-.001c-.01-.009-.017-.02-.022-.032s-.007-.024-.007-.037.002-.026.007-.038.012-.023.022-.032zm.301-.485c.072.03.138.075.194.131h-.848c.056-.056.122-.101.194-.131.073-.03.151-.046.23-.046s.157.016.23.046z" fill="url(#u)" stroke="url(#v)"/></g><g filter="url(#d)"><path d="m234.5 104.195c0 .829-.672 1.5-1.5 1.5s-1.5-.671-1.5-1.5c0-.828.672-1.5 1.5-1.5s1.5.672 1.5 1.5z" fill="url(#x)" stroke="url(#y)"/></g><g filter="url(#e)"><path d="m344.5 104.195c0 .829-.672 1.5-1.5 1.5s-1.5-.671-1.5-1.5c0-.828.672-1.5 1.5-1.5s1.5.672 1.5 1.5z" fill="url(#z)" stroke="url(#A)"/></g></g><rect fill="url(#C)" height="142" rx="14" width="142" x="427" y="55"/><g filter="url(#f)"><rect fill="url(#D)" height="142" rx="12" shape-rendering="crispEdges" width="142" x="389" y="45"/></g><g filter="url(#g)"><rect fill="url(#E)" height="142" rx="12" shape-rendering="crispEdges" width="142" x="351" y="35"/></g><path d="m383 97.2785c0-2.19.898-4.284 2.483-5.794l36.521-28.725c.576-.5478 1.254-.9759 1.996-1.2595s1.533-.417 2.327-.3926c.794.0245 1.575.2064 2.298.5351.723.3288 1.374.7978 1.914 1.38l36.129 28.462c1.373 1.4796 2.136 3.4235 2.136 5.442l-.304 44.8525c0 1.859-.648 3.661-1.832 5.095-1.185 1.433-2.832 2.41-4.658 2.761h-69.5c-4.933.949-9.51-2.832-9.51-7.856z" fill="url(#G)"/><g filter="url(#h)"><path d="m383 97.2785c0-2.19.898-4.284 2.483-5.794l36.521-28.725c.576-.5478 1.254-.9759 1.996-1.2595s1.533-.417 2.327-.3926c.794.0245 1.575.2064 2.298.5351.723.3288 1.374.7978 1.914 1.38l36.129 28.462c1.373 1.4796 2.136 3.4235 2.136 5.442l-.304 44.8525c0 1.859-.648 3.661-1.832 5.095-1.185 1.433-2.832 2.41-4.658 2.761h-69.5c-4.933.949-9.51-2.832-9.51-7.856z" fill="#1a1a1a"/></g><path d="m422.314 63.1525.018-.0146.017-.0163c.528-.5021 1.149-.8946 1.83-1.1546.68-.2599 1.405-.3822 2.133-.3598.727.0224 1.443.1891 2.106.4905.663.3013 1.26.7313 1.755 1.265l.026.0285.031.0241 36.097 28.4375c1.271 1.3833 1.976 3.1934 1.977 5.0726v.0011l-.304 44.8485v.004c0 1.743-.607 3.432-1.718 4.776-1.1 1.332-2.627 2.243-4.32 2.58h-69.452-.048l-.046.009c-4.625.889-8.916-2.655-8.916-7.365v-44.5005c0-2.0453.836-4.0014 2.311-5.4158z" stroke="#737373" stroke-opacity=".31"/><g stroke="#262626" stroke-linecap="round" stroke-opacity=".47"><path d="m468 132.5h-85"/><path d="m468 114.5h-85"/><path d="m468 96.5h-85"/><path d="m450 78.5h-48"/><path d="m404.5 150v-74"/><path d="m386.5 150v-59"/><path d="m422.5 150v-87"/><path d="m440.5 150v-79"/><path d="m458.5 150v-64"/></g><path d="m440 114h19v19h-19z" fill="url(#H)" opacity=".75"/><path d="m404 96h19v19h-19z" fill="url(#I)" opacity=".75"/><rect fill="url(#J)" height="142" rx="14" width="142" x="11" y="55"/><g filter="url(#i)"><rect fill="url(#K)" height="142" rx="12" shape-rendering="crispEdges" width="142" x="43" y="45"/></g><g clip-path="url(#O)"><g filter="url(#j)" shape-rendering="crispEdges"><rect fill="#272727" height="142" rx="14" width="142" x="82" y="35"/><rect height="142" rx="14" stroke="url(#L)" width="142" x="82" y="35"/></g><path d="m114 97.2785c0-2.19.898-4.284 2.483-5.794l36.521-28.725c.576-.5478 1.254-.9759 1.996-1.2595s1.533-.417 2.327-.3926c.794.0245 1.575.2064 2.298.5351.723.3288 1.374.7978 1.914 1.38l36.129 28.462c1.373 1.4796 2.136 3.4235 2.136 5.442l-.304 44.8525c0 1.859-.648 3.661-1.832 5.095-1.185 1.433-2.832 2.41-4.658 2.761h-69.5c-4.933.949-9.51-2.832-9.51-7.856z" fill="url(#M)"/><g filter="url(#k)"><path d="m184.5 228c43.907 0 79.5-35.146 79.5-78.5s-35.593-78.5-79.5-78.5-79.5 35.146-79.5 78.5 35.593 78.5 79.5 78.5z" fill="url(#N)"/></g></g></svg>