<svg fill="none" height="167" viewBox="0 0 206 167" width="206" xmlns="http://www.w3.org/2000/svg" xmlns:xlink="http://www.w3.org/1999/xlink"><filter id="a" color-interpolation-filters="sRGB" filterUnits="userSpaceOnUse" height="20" width="21" x="73.9043" y="8"><feFlood flood-opacity="0" result="BackgroundImageFix"/><feColorMatrix in="SourceAlpha" result="hardAlpha" type="matrix" values="0 0 0 0 0 0 0 0 0 0 0 0 0 0 0 0 0 0 127 0"/><feOffset dy="4"/><feGaussianBlur stdDeviation="3"/><feComposite in2="hardAlpha" operator="out"/><feColorMatrix type="matrix" values="0 0 0 0 0 0 0 0 0 0 0 0 0 0 0 0 0 0 0.15 0"/><feBlend in2="BackgroundImageFix" mode="normal" result="effect1_dropShadow_698_5975"/><feBlend in="SourceGraphic" in2="effect1_dropShadow_698_5975" mode="normal" result="shape"/></filter><filter id="b" color-interpolation-filters="sRGB" filterUnits="userSpaceOnUse" height="54.9434" width="30.5664" x="0" y="115.377"><feFlood flood-opacity="0" result="BackgroundImageFix"/><feBlend in="SourceGraphic" in2="BackgroundImageFix" mode="normal" result="shape"/><feColorMatrix in="SourceAlpha" result="hardAlpha" type="matrix" values="0 0 0 0 0 0 0 0 0 0 0 0 0 0 0 0 0 0 127 0"/><feOffset dy="4"/><feGaussianBlur stdDeviation="5"/><feComposite in2="hardAlpha" k2="-1" k3="1" operator="arithmetic"/><feColorMatrix type="matrix" values="0 0 0 0 1 0 0 0 0 1 0 0 0 0 1 0 0 0 0.14 0"/><feBlend in2="shape" mode="normal" result="effect1_innerShadow_698_5975"/></filter><filter id="c" color-interpolation-filters="sRGB" filterUnits="userSpaceOnUse" height="86.7822" width="30.5664" x="43.8105" y="83.5381"><feFlood flood-opacity="0" result="BackgroundImageFix"/><feBlend in="SourceGraphic" in2="BackgroundImageFix" mode="normal" result="shape"/><feColorMatrix in="SourceAlpha" result="hardAlpha" type="matrix" values="0 0 0 0 0 0 0 0 0 0 0 0 0 0 0 0 0 0 127 0"/><feOffset dy="4"/><feGaussianBlur stdDeviation="5"/><feComposite in2="hardAlpha" k2="-1" k3="1" operator="arithmetic"/><feColorMatrix type="matrix" values="0 0 0 0 1 0 0 0 0 1 0 0 0 0 1 0 0 0 0.14 0"/><feBlend in2="shape" mode="normal" result="effect1_innerShadow_698_5975"/></filter><filter id="d" color-interpolation-filters="sRGB" filterUnits="userSpaceOnUse" height="99.0088" width="30.5664" x="131.432" y="71.3115"><feFlood flood-opacity="0" result="BackgroundImageFix"/><feBlend in="SourceGraphic" in2="BackgroundImageFix" mode="normal" result="shape"/><feColorMatrix in="SourceAlpha" result="hardAlpha" type="matrix" values="0 0 0 0 0 0 0 0 0 0 0 0 0 0 0 0 0 0 127 0"/><feOffset dy="4"/><feGaussianBlur stdDeviation="5"/><feComposite in2="hardAlpha" k2="-1" k3="1" operator="arithmetic"/><feColorMatrix type="matrix" values="0 0 0 0 1 0 0 0 0 1 0 0 0 0 1 0 0 0 0.14 0"/><feBlend in2="shape" mode="normal" result="effect1_innerShadow_698_5975"/></filter><filter id="e" color-interpolation-filters="sRGB" filterUnits="userSpaceOnUse" height="114.037" width="30.5664" x="175.242" y="56.2832"><feFlood flood-opacity="0" result="BackgroundImageFix"/><feBlend in="SourceGraphic" in2="BackgroundImageFix" mode="normal" result="shape"/><feColorMatrix in="SourceAlpha" result="hardAlpha" type="matrix" values="0 0 0 0 0 0 0 0 0 0 0 0 0 0 0 0 0 0 127 0"/><feOffset dy="4"/><feGaussianBlur stdDeviation="5"/><feComposite in2="hardAlpha" k2="-1" k3="1" operator="arithmetic"/><feColorMatrix type="matrix" values="0 0 0 0 1 0 0 0 0 1 0 0 0 0 1 0 0 0 0.14 0"/><feBlend in2="shape" mode="normal" result="effect1_innerShadow_698_5975"/></filter><filter id="f" color-interpolation-filters="sRGB" filterUnits="userSpaceOnUse" height="125.754" width="30.5664" x="87.6211" y="44.5664"><feFlood flood-opacity="0" result="BackgroundImageFix"/><feBlend in="SourceGraphic" in2="BackgroundImageFix" mode="normal" result="shape"/><feColorMatrix in="SourceAlpha" result="hardAlpha" type="matrix" values="0 0 0 0 0 0 0 0 0 0 0 0 0 0 0 0 0 0 127 0"/><feOffset dy="4"/><feGaussianBlur stdDeviation="9.25"/><feComposite in2="hardAlpha" k2="-1" k3="1" operator="arithmetic"/><feColorMatrix type="matrix" values="0 0 0 0 1 0 0 0 0 1 0 0 0 0 1 0 0 0 0.27 0"/><feBlend in2="shape" mode="normal" result="effect1_innerShadow_698_5975"/></filter><linearGradient id="g" gradientUnits="userSpaceOnUse" x1="137.404" x2="78.2098" y1="28" y2="-14.9072"><stop offset="0" stop-color="#fdba74"/><stop offset="1" stop-color="#ff5f0d"/></linearGradient><linearGradient id="h" gradientUnits="userSpaceOnUse" x1="97.2157" x2="107.404" y1="26.6181" y2="33.1133"><stop offset="0" stop-color="#fe8f44"/><stop offset="1" stop-color="#fd9950"/></linearGradient><linearGradient id="i" gradientUnits="userSpaceOnUse" x1="102.904" x2="102.904" y1="44.5664" y2="166.32"><stop offset="0" stop-color="#ff5f0d"/><stop offset="1" stop-color="#fb923c"/></linearGradient><rect fill="url(#g)" height="28" rx="8" width="70" x="67.4043"/><rect fill="#fff" fill-opacity=".4" height="18" rx="9" width="18" x="75.4043" y="5"/><g filter="url(#a)"><path d="m88.7749 17.5124c-.0866.1496-.2116.2736-.3622.3593s-.3214.1299-.4949.1283h-7.0275c-.1734.0016-.3442-.0426-.4948-.1283s-.2756-.2097-.3622-.3593c-.0845-.144-.129-.3077-.129-.4744 0-.1668.0445-.3305.129-.4744l3.513-6.0748c.0878-.1488.2131-.2722.3636-.358.1504-.0857.3208-.1308.4942-.1308s.3437.0451.4942.1308c.1505.0858.2758.2092.3636.358l3.5138 6.0748c.0844.144.1287.3077.1286.4745-.0001.1667-.0448.3304-.1294.4743z" fill="#fff"/></g><path d="m101.938 7.86364v11.63636h-1.761v-9.875h-.068l-2.7842 1.8182v-1.68184l2.9032-1.89772zm3.618 11.74436c-.31 0-.577-.1099-.801-.3296-.223-.2235-.335-.4924-.335-.8068 0-.3106.112-.5758.335-.7955.224-.2234.491-.3352.801-.3352.311 0 .578.1118.801.3352.224.2197.336.4849.336.7955 0 .2083-.053.3996-.159.5739-.103.1704-.239.3068-.41.409-.17.1023-.359.1535-.568.1535zm3.145-2.3807v-1.4205l5.029-7.94316h1.119v2.09091h-.71l-3.597 5.69315v.0909h6.892v1.4887zm5.517 2.2727v-2.7045l.012-.6478v-8.28406h1.664v11.63636zm5.355 0v-11.63636h1.756v5.55686h.142l4.881-5.55686h2.21l-4.693 5.23866 4.71 6.3977h-2.114l-3.761-5.1989-1.375 1.5796v3.6193z" fill="#fff"/><path d="m97.3622 27.3728c.098-.1144.2395-.2092.41-.2746.1705-.0655.3639-.0993.5602-.098h7.9556c.196-.0013.39.0325.56.098.171.0654.312.1602.41.2746.096.11.146.2351.146.3625s-.05.2525-.146.3625l-3.977 4.642c-.099.1137-.241.208-.411.2735-.171.0655-.363.1-.56.1-.196 0-.389-.0345-.559-.1-.171-.0655-.312-.1598-.412-.2735l-3.9777-4.642c-.0955-.1101-.1457-.2352-.1456-.3626.0002-.1274.0507-.2525.1465-.3624z" fill="url(#h)"/><g filter="url(#b)"><rect fill="#262626" height="50.9429" rx="15.2829" width="30.5657" y="115.377"/></g><g filter="url(#c)"><rect fill="#262626" height="82.7822" rx="15.2829" width="30.5657" x="43.8105" y="83.5381"/></g><g filter="url(#d)"><rect fill="#262626" height="95.0085" rx="15.2829" width="30.5657" x="131.432" y="71.3115"/></g><g filter="url(#e)"><rect fill="#262626" height="110.037" rx="15.2829" width="30.5657" x="175.242" y="56.2832"/></g><g filter="url(#f)"><rect fill="url(#i)" height="121.754" rx="15.2829" width="30.5657" x="87.6211" y="44.5664"/></g></svg>