<svg fill="none" height="86" viewBox="0 0 394 86" width="394" xmlns="http://www.w3.org/2000/svg" xmlns:xlink="http://www.w3.org/1999/xlink"><filter id="a" color-interpolation-filters="sRGB" filterUnits="userSpaceOnUse" height="86" width="86" x="308" y="0"><feFlood flood-opacity="0" result="BackgroundImageFix"/><feColorMatrix in="SourceAlpha" result="hardAlpha" type="matrix" values="0 0 0 0 0 0 0 0 0 0 0 0 0 0 0 0 0 0 127 0"/><feMorphology in="SourceAlpha" operator="dilate" radius="6" result="effect1_dropShadow_701_168"/><feOffset/><feComposite in2="hardAlpha" operator="out"/><feColorMatrix type="matrix" values="0 0 0 0 1 0 0 0 0 1 0 0 0 0 1 0 0 0 0.05 0"/><feBlend in2="BackgroundImageFix" mode="normal" result="effect1_dropShadow_701_168"/><feBlend in="SourceGraphic" in2="effect1_dropShadow_701_168" mode="normal" result="shape"/><feColorMatrix in="SourceAlpha" result="hardAlpha" type="matrix" values="0 0 0 0 0 0 0 0 0 0 0 0 0 0 0 0 0 0 127 0"/><feOffset dy="4"/><feGaussianBlur stdDeviation="15"/><feComposite in2="hardAlpha" k2="-1" k3="1" operator="arithmetic"/><feColorMatrix type="matrix" values="0 0 0 0 1 0 0 0 0 1 0 0 0 0 1 0 0 0 0.1 0"/><feBlend in2="shape" mode="normal" result="effect2_innerShadow_701_168"/></filter><filter id="b" color-interpolation-filters="sRGB" filterUnits="userSpaceOnUse" height="86" width="86" x="0" y="0"><feFlood flood-opacity="0" result="BackgroundImageFix"/><feColorMatrix in="SourceAlpha" result="hardAlpha" type="matrix" values="0 0 0 0 0 0 0 0 0 0 0 0 0 0 0 0 0 0 127 0"/><feMorphology in="SourceAlpha" operator="dilate" radius="6" result="effect1_dropShadow_701_168"/><feOffset/><feComposite in2="hardAlpha" operator="out"/><feColorMatrix type="matrix" values="0 0 0 0 1 0 0 0 0 1 0 0 0 0 1 0 0 0 0.05 0"/><feBlend in2="BackgroundImageFix" mode="normal" result="effect1_dropShadow_701_168"/><feBlend in="SourceGraphic" in2="effect1_dropShadow_701_168" mode="normal" result="shape"/><feColorMatrix in="SourceAlpha" result="hardAlpha" type="matrix" values="0 0 0 0 0 0 0 0 0 0 0 0 0 0 0 0 0 0 127 0"/><feOffset dy="4"/><feGaussianBlur stdDeviation="15"/><feComposite in2="hardAlpha" k2="-1" k3="1" operator="arithmetic"/><feColorMatrix type="matrix" values="0 0 0 0 1 0 0 0 0 1 0 0 0 0 1 0 0 0 0.1 0"/><feBlend in2="shape" mode="normal" result="effect2_innerShadow_701_168"/></filter><linearGradient id="c" gradientUnits="userSpaceOnUse" x1="43" x2="43" y1="26" y2="60"><stop offset="0" stop-color="#ea580b"/><stop offset="1" stop-color="#fb923c"/></linearGradient><linearGradient id="d"><stop offset="0" stop-color="#ff5f0d"/><stop offset=".457635" stop-color="#fed9c6"/><stop offset="1" stop-color="#ff8546"/></linearGradient><linearGradient id="e" gradientUnits="userSpaceOnUse" x1="280" x2="277.604" xlink:href="#d" y1="25.9595" y2="52.2161"/><linearGradient id="f" gradientUnits="userSpaceOnUse" x1="111" x2="113.396" xlink:href="#d" y1="60.0404" y2="33.7839"/><g filter="url(#a)"><path d="m314 43c0-20.4345 16.565-37 37-37 20.435 0 37 16.5655 37 37 0 20.4345-16.565 37-37 37-20.435 0-37-16.5655-37-37z" fill="#262626"/><path d="m351 79c-19.882 0-36-16.1177-36-36 0-19.8822 16.118-36 36-36s36 16.1178 36 36c0 19.8823-16.118 36-36 36z" stroke="#404040" stroke-width="2"/><path clip-rule="evenodd" d="m343.714 26c-1.25 0-2.449.4923-3.333 1.3686-.884.8762-1.381 2.0647-1.381 3.304 0 .6796.214 1.5496.441 2.3193.241.8325.565 1.7772.905 2.6999.677 1.8452 1.44 3.6972 1.777 4.5315.128.3148.348.5845.631.7745.284.19.618.2916.96.2916.343 0 .677-.1016.96-.2916.284-.19.504-.4597.631-.7745.338-.8326 1.101-2.6863 1.778-4.5315.331-.8901.633-1.7906.905-2.6999.226-.7697.441-1.6397.441-2.3193 0-1.2393-.497-2.4278-1.381-3.304-.884-.8763-2.083-1.3686-3.334-1.3686zm13.637 5.5986c-.884-.8762-2.083-1.3685-3.333-1.3685s-2.449.4923-3.333 1.3685c-.486.4808-.954 1.2454-1.344 1.9489-.422.7578-.866 1.6549-1.286 2.5435-.837 1.7773-1.618 3.6243-1.977 4.45-.135.3121-.172.6572-.107.9906s.229.6399.471.88.551.4028.888.467c.336.0642.684.0271.999-.1066 1.504-.6389 3.009-1.2744 4.492-1.9591.894-.4163 1.8-.8564 2.564-1.2743.71-.3874 1.481-.8513 1.966-1.3322.884-.8762 1.381-2.0647 1.381-3.3039s-.497-2.4276-1.381-3.3039zm.935 8.8439c1.25 0 2.449.4923 3.333 1.3685.884.8763 1.381 2.0648 1.381 3.304 0 1.2393-.497 2.4278-1.381 3.3041-.884.8762-2.083 1.3685-3.333 1.3685-.686 0-1.564-.2124-2.34-.4367-.918-.2699-1.826-.5691-2.724-.8971-1.86-.6694-3.731-1.4272-4.572-1.762-.318-.1261-.591-.3438-.783-.625s-.295-.613-.295-.9526.103-.6714.295-.9526.465-.4989.783-.625c.84-.3331 2.71-1.0892 4.572-1.7603.898-.328 1.806-.6272 2.724-.8971.776-.2243 1.654-.4367 2.34-.4367zm-.935 18.189c.438-.4339.786-.9491 1.023-1.5161.237-.5671.359-1.1749.359-1.7887s-.122-1.2215-.359-1.7886c-.237-.567-.585-1.0822-1.023-1.5161-.485-.4792-1.256-.9431-1.966-1.3305-.841-.4519-1.697-.8769-2.566-1.2743-1.795-.8309-3.657-1.6057-4.49-1.9591-.315-.1337-.663-.1708-.999-.1066-.337.0642-.646.2269-.888.467s-.406.5466-.471.88-.028.6785.107.9906c.357.8257 1.14 2.671 1.977 4.45.42.8886.864 1.784 1.286 2.5435.39.7035.858 1.4681 1.344 1.9489.884.8762 2.083 1.3685 3.333 1.3685s2.449-.4923 3.333-1.3685z" fill="#ffc233" fill-rule="evenodd"/></g><g filter="url(#b)"><rect fill="#262626" height="74" rx="37" width="74" x="6" y="6"/><rect height="72" rx="36" stroke="#404040" stroke-opacity=".8" stroke-width="2" width="72" x="7" y="7"/><g fill="url(#c)"><path d="m30.1002 34.9308c-.5192.3594-.5794 1.1041-.1247 1.5423l2.5084 2.4171c.3408.3283.865.3728 1.2563.1067l7.5747-5.1521c1.0172-.6918 2.3536-.6926 3.3715-.002l8.8866 6.029c.5486.3722.8772.9921.8772 1.6551v12.4092c0 .3645-.2955.6599-.6599.6599-.3664 0-.4598.5079-.1174.6383l4.9268 1.876c.3862.147.8203.0331.9888-.3442.1998-.4474.4115-1.1597.4115-2.1701v-17l-15.2969-10.4343c-1.0259-.6998-2.377-.6951-3.3981.0118z"/><path d="m26 39.8985c0-.8746 1.0435-1.3278 1.6826-.7308l3.4077 3.1831c.4049.3782.6348.9075.6348 1.4615v10.7837h10.213c.2387 0 .4754.0427.699.1261l11.5534 4.3094c.522.1947.3824.9685-.1748.9685h-25.0157c-1.6569 0-3-1.3431-3-3z"/></g></g><path d="m111.5 37h168.5l-10-10" stroke="url(#e)" stroke-linecap="round" stroke-linejoin="round" stroke-width="2"/><path d="m279.5 49h-168.5l10 10" stroke="url(#f)" stroke-linecap="round" stroke-linejoin="round" stroke-width="2"/><rect fill="#262626" height="41" rx="20.5" width="41" x="174" y="23"/><path d="m188.5 43.55c0 .75.142 1.4793.425 2.188s.725 1.3627 1.325 1.962l.25.25v-1.45c0-.2833.096-.5207.288-.712s.429-.2873.712-.288.52.0953.713.288.288.43.287.712v4c0 .2833-.096.521-.288.713s-.429.2877-.712.287h-4c-.283 0-.521-.096-.712-.288s-.287-.4293-.288-.712.095-.52.288-.712.43-.288.712-.288h1.75l-.4-.35c-.867-.7667-1.475-1.6417-1.825-2.625s-.525-1.975-.525-2.975c0-1.5667.4-2.9877 1.2-4.263s1.875-2.2543 3.225-2.937c.233-.1333.479-.1417.738-.025s.429.3083.512.575c.083.25.079.5-.012.75s-.254.4417-.488.575c-.967.5333-1.737 1.271-2.312 2.213s-.862 1.9793-.863 3.112zm12-.1c0-.75-.142-1.479-.425-2.187s-.725-1.3623-1.325-1.963l-.25-.25v1.45c0 .2833-.096.521-.288.713s-.429.2877-.712.287-.52-.0967-.712-.288-.288-.4287-.288-.712v-4c0-.2833.096-.5207.288-.712s.429-.2873.712-.288h4c.283 0 .521.096.713.288s.288.4293.287.712-.097.5203-.288.713-.429.2883-.712.287h-1.75l.4.35c.817.8167 1.413 1.7043 1.788 2.663s.563 1.9377.562 2.937c0 1.5667-.4 2.9877-1.2 4.263s-1.875 2.2543-3.225 2.937c-.233.1333-.479.1417-.737.025s-.429-.3083-.513-.575c-.083-.25-.079-.5.013-.75s.254-.4417.487-.575c.967-.5333 1.738-1.2707 2.313-2.212s.863-1.979.862-3.113z" fill="#fff"/></svg>