<svg fill="none" height="340" viewBox="0 0 393 340" width="393" xmlns="http://www.w3.org/2000/svg" xmlns:xlink="http://www.w3.org/1999/xlink"><filter id="a" color-interpolation-filters="sRGB" filterUnits="userSpaceOnUse" height="54" width="54" x="168" y="74"><feFlood flood-opacity="0" result="BackgroundImageFix"/><feBlend in="SourceGraphic" in2="BackgroundImageFix" mode="normal" result="shape"/><feColorMatrix in="SourceAlpha" result="hardAlpha" type="matrix" values="0 0 0 0 0 0 0 0 0 0 0 0 0 0 0 0 0 0 127 0"/><feMorphology in="SourceAlpha" operator="erode" radius="2" result="effect1_innerShadow_701_207"/><feOffset/><feGaussianBlur stdDeviation="6.7"/><feComposite in2="hardAlpha" k2="-1" k3="1" operator="arithmetic"/><feColorMatrix type="matrix" values="0 0 0 0 1 0 0 0 0 1 0 0 0 0 1 0 0 0 0.08 0"/><feBlend in2="shape" mode="normal" result="effect1_innerShadow_701_207"/></filter><filter id="b" color-interpolation-filters="sRGB" filterUnits="userSpaceOnUse" height="62" width="62" x="246" y="70"><feFlood flood-opacity="0" result="BackgroundImageFix"/><feBlend in="SourceGraphic" in2="BackgroundImageFix" mode="normal" result="shape"/><feColorMatrix in="SourceAlpha" result="hardAlpha" type="matrix" values="0 0 0 0 0 0 0 0 0 0 0 0 0 0 0 0 0 0 127 0"/><feMorphology in="SourceAlpha" operator="erode" radius="2" result="effect1_innerShadow_701_207"/><feOffset/><feGaussianBlur stdDeviation="6.7"/><feComposite in2="hardAlpha" k2="-1" k3="1" operator="arithmetic"/><feColorMatrix type="matrix" values="0 0 0 0 1 0 0 0 0 1 0 0 0 0 1 0 0 0 0.08 0"/><feBlend in2="shape" mode="normal" result="effect1_innerShadow_701_207"/></filter><filter id="c" color-interpolation-filters="sRGB" filterUnits="userSpaceOnUse" height="62" width="62" x="246" y="152"><feFlood flood-opacity="0" result="BackgroundImageFix"/><feBlend in="SourceGraphic" in2="BackgroundImageFix" mode="normal" result="shape"/><feColorMatrix in="SourceAlpha" result="hardAlpha" type="matrix" values="0 0 0 0 0 0 0 0 0 0 0 0 0 0 0 0 0 0 127 0"/><feMorphology in="SourceAlpha" operator="erode" radius="2" result="effect1_innerShadow_701_207"/><feOffset/><feGaussianBlur stdDeviation="6.7"/><feComposite in2="hardAlpha" k2="-1" k3="1" operator="arithmetic"/><feColorMatrix type="matrix" values="0 0 0 0 1 0 0 0 0 1 0 0 0 0 1 0 0 0 0.08 0"/><feBlend in2="shape" mode="normal" result="effect1_innerShadow_701_207"/></filter><filter id="d" color-interpolation-filters="sRGB" filterUnits="userSpaceOnUse" height="62" width="62" x="331" y="152"><feFlood flood-opacity="0" result="BackgroundImageFix"/><feBlend in="SourceGraphic" in2="BackgroundImageFix" mode="normal" result="shape"/><feColorMatrix in="SourceAlpha" result="hardAlpha" type="matrix" values="0 0 0 0 0 0 0 0 0 0 0 0 0 0 0 0 0 0 127 0"/><feMorphology in="SourceAlpha" operator="erode" radius="2" result="effect1_innerShadow_701_207"/><feOffset/><feGaussianBlur stdDeviation="6.7"/><feComposite in2="hardAlpha" k2="-1" k3="1" operator="arithmetic"/><feColorMatrix type="matrix" values="0 0 0 0 1 0 0 0 0 1 0 0 0 0 1 0 0 0 0.08 0"/><feBlend in2="shape" mode="normal" result="effect1_innerShadow_701_207"/></filter><filter id="e" color-interpolation-filters="sRGB" filterUnits="userSpaceOnUse" height="62" width="62" x="164" y="152"><feFlood flood-opacity="0" result="BackgroundImageFix"/><feBlend in="SourceGraphic" in2="BackgroundImageFix" mode="normal" result="shape"/><feColorMatrix in="SourceAlpha" result="hardAlpha" type="matrix" values="0 0 0 0 0 0 0 0 0 0 0 0 0 0 0 0 0 0 127 0"/><feMorphology in="SourceAlpha" operator="erode" radius="2" result="effect1_innerShadow_701_207"/><feOffset/><feGaussianBlur stdDeviation="6.7"/><feComposite in2="hardAlpha" k2="-1" k3="1" operator="arithmetic"/><feColorMatrix type="matrix" values="0 0 0 0 1 0 0 0 0 1 0 0 0 0 1 0 0 0 0.08 0"/><feBlend in2="shape" mode="normal" result="effect1_innerShadow_701_207"/></filter><filter id="f" color-interpolation-filters="sRGB" filterUnits="userSpaceOnUse" height="62" width="62" x="82" y="70"><feFlood flood-opacity="0" result="BackgroundImageFix"/><feBlend in="SourceGraphic" in2="BackgroundImageFix" mode="normal" result="shape"/><feColorMatrix in="SourceAlpha" result="hardAlpha" type="matrix" values="0 0 0 0 0 0 0 0 0 0 0 0 0 0 0 0 0 0 127 0"/><feMorphology in="SourceAlpha" operator="erode" radius="2" result="effect1_innerShadow_701_207"/><feOffset/><feGaussianBlur stdDeviation="6.7"/><feComposite in2="hardAlpha" k2="-1" k3="1" operator="arithmetic"/><feColorMatrix type="matrix" values="0 0 0 0 1 0 0 0 0 1 0 0 0 0 1 0 0 0 0.08 0"/><feBlend in2="shape" mode="normal" result="effect1_innerShadow_701_207"/></filter><filter id="g" color-interpolation-filters="sRGB" filterUnits="userSpaceOnUse" height="62" width="144" x="0" y="152"><feFlood flood-opacity="0" result="BackgroundImageFix"/><feBlend in="SourceGraphic" in2="BackgroundImageFix" mode="normal" result="shape"/><feColorMatrix in="SourceAlpha" result="hardAlpha" type="matrix" values="0 0 0 0 0 0 0 0 0 0 0 0 0 0 0 0 0 0 127 0"/><feMorphology in="SourceAlpha" operator="erode" radius="2" result="effect1_innerShadow_701_207"/><feOffset/><feGaussianBlur stdDeviation="6.7"/><feComposite in2="hardAlpha" k2="-1" k3="1" operator="arithmetic"/><feColorMatrix type="matrix" values="0 0 0 0 1 0 0 0 0 1 0 0 0 0 1 0 0 0 0.08 0"/><feBlend in2="shape" mode="normal" result="effect1_innerShadow_701_207"/></filter><filter id="h" color-interpolation-filters="sRGB" filterUnits="userSpaceOnUse" height="62" width="374" x="19" y="234"><feFlood flood-opacity="0" result="BackgroundImageFix"/><feBlend in="SourceGraphic" in2="BackgroundImageFix" mode="normal" result="shape"/><feColorMatrix in="SourceAlpha" result="hardAlpha" type="matrix" values="0 0 0 0 0 0 0 0 0 0 0 0 0 0 0 0 0 0 127 0"/><feMorphology in="SourceAlpha" operator="erode" radius="2" result="effect1_innerShadow_701_207"/><feOffset/><feGaussianBlur stdDeviation="6.7"/><feComposite in2="hardAlpha" k2="-1" k3="1" operator="arithmetic"/><feColorMatrix type="matrix" values="0 0 0 0 1 0 0 0 0 1 0 0 0 0 1 0 0 0 0.08 0"/><feBlend in2="shape" mode="normal" result="effect1_innerShadow_701_207"/></filter><filter id="i" color-interpolation-filters="sRGB" filterUnits="userSpaceOnUse" height="62" width="62" x="0" y="70"><feFlood flood-opacity="0" result="BackgroundImageFix"/><feBlend in="SourceGraphic" in2="BackgroundImageFix" mode="normal" result="shape"/><feColorMatrix in="SourceAlpha" result="hardAlpha" type="matrix" values="0 0 0 0 0 0 0 0 0 0 0 0 0 0 0 0 0 0 127 0"/><feMorphology in="SourceAlpha" operator="erode" radius="2" result="effect1_innerShadow_701_207"/><feOffset/><feGaussianBlur stdDeviation="6.7"/><feComposite in2="hardAlpha" k2="-1" k3="1" operator="arithmetic"/><feColorMatrix type="matrix" values="0 0 0 0 1 0 0 0 0 1 0 0 0 0 1 0 0 0 0.08 0"/><feBlend in2="shape" mode="normal" result="effect1_innerShadow_701_207"/></filter><filter id="j" color-interpolation-filters="sRGB" filterUnits="userSpaceOnUse" height="62" width="62" x="331" y="70"><feFlood flood-opacity="0" result="BackgroundImageFix"/><feBlend in="SourceGraphic" in2="BackgroundImageFix" mode="normal" result="shape"/><feColorMatrix in="SourceAlpha" result="hardAlpha" type="matrix" values="0 0 0 0 0 0 0 0 0 0 0 0 0 0 0 0 0 0 127 0"/><feMorphology in="SourceAlpha" operator="erode" radius="2" result="effect1_innerShadow_701_207"/><feOffset/><feGaussianBlur stdDeviation="6.7"/><feComposite in2="hardAlpha" k2="-1" k3="1" operator="arithmetic"/><feColorMatrix type="matrix" values="0 0 0 0 1 0 0 0 0 1 0 0 0 0 1 0 0 0 0.08 0"/><feBlend in2="shape" mode="normal" result="effect1_innerShadow_701_207"/></filter><linearGradient id="k"><stop offset="0" stop-color="#525252" stop-opacity="0"/><stop offset="1" stop-color="#525252"/></linearGradient><linearGradient id="l" gradientUnits="userSpaceOnUse" x1="195" x2="195" xlink:href="#k" y1="70" y2="132"/><linearGradient id="m" gradientUnits="userSpaceOnUse" x1="195" x2="195" y1="84" y2="118"><stop offset="0" stop-color="#ea580b"/><stop offset="1" stop-color="#fb923c"/></linearGradient><linearGradient id="n"><stop offset="0" stop-color="#525252" stop-opacity=".4"/><stop offset="1" stop-color="#525252"/></linearGradient><linearGradient id="o" gradientUnits="userSpaceOnUse" x1="277" x2="277" xlink:href="#n" y1="70" y2="132"/><linearGradient id="p" gradientUnits="userSpaceOnUse" x1="277" x2="277" xlink:href="#k" y1="152" y2="214"/><linearGradient id="q" gradientUnits="userSpaceOnUse" x1="362" x2="362" xlink:href="#k" y1="152" y2="214"/><linearGradient id="r" gradientUnits="userSpaceOnUse" x1="195" x2="195" xlink:href="#n" y1="152" y2="214"/><linearGradient id="s" gradientUnits="userSpaceOnUse" x1="113" x2="113" xlink:href="#n" y1="70" y2="132"/><linearGradient id="t" gradientUnits="userSpaceOnUse" x1="72" x2="72" xlink:href="#k" y1="152" y2="214"/><linearGradient id="u" gradientUnits="userSpaceOnUse" x1="206" x2="206" xlink:href="#k" y1="234" y2="296"/><linearGradient id="v" gradientUnits="userSpaceOnUse" x1="31" x2="31" xlink:href="#k" y1="70" y2="132"/><linearGradient id="w" gradientUnits="userSpaceOnUse" x1="362" x2="362" xlink:href="#k" y1="70" y2="132"/><linearGradient id="x" gradientUnits="userSpaceOnUse" x1="195" x2="138.932" y1="70.5" y2="-10.2555"><stop offset="0" stop-color="#ff5f0d"/><stop offset=".457635" stop-color="#fed9c6"/><stop offset="1" stop-color="#ff8546" stop-opacity="0"/></linearGradient><linearGradient id="y" gradientUnits="userSpaceOnUse" x1="173" x2="229.068" y1="297.5" y2="378.256"><stop offset="0" stop-color="#ff5f0d"/><stop offset=".457635" stop-color="#fed9c6" stop-opacity="0"/><stop offset="1" stop-color="#ff8546" stop-opacity="0"/></linearGradient><path d="m164.5 84c0-7.4558 6.044-13.5 13.5-13.5h34c7.456 0 13.5 6.0442 13.5 13.5v34c0 7.456-6.044 13.5-13.5 13.5h-34c-7.456 0-13.5-6.044-13.5-13.5z" fill="#262626" stroke="url(#l)"/><g filter="url(#a)"><rect fill="#262626" height="54" rx="10" width="54" x="168" y="74"/></g><path d="m182.1 92.9308c-.519.3594-.579 1.1041-.125 1.5423l2.509 2.4171c.341.3283.865.3728 1.256.1067l7.575-5.1521c1.017-.6918 2.353-.6926 3.371-.002l8.887 6.029c.549.3722.877.9921.877 1.6551v12.4091c0 .365-.295.66-.66.66-.366 0-.46.508-.117.638l4.927 1.876c.386.147.82.033.989-.344.199-.447.411-1.16.411-2.17v-17l-15.297-10.4343c-1.026-.6998-2.377-.6951-3.398.0118z" fill="url(#m)"/><path d="m178 97.8985c0-.8746 1.043-1.3278 1.683-.7308l3.407 3.1833c.405.378.635.907.635 1.461v10.784h10.213c.239 0 .475.043.699.126l11.553 4.31c.522.194.383.968-.174.968h-25.016c-1.657 0-3-1.343-3-3z" fill="url(#m)"/><g filter="url(#b)"><rect fill="#262626" height="62" rx="14" width="62" x="246" y="70"/></g><rect height="61" rx="13.5" stroke="url(#o)" width="61" x="246.5" y="70.5"/><g opacity=".3"><g filter="url(#c)"><rect fill="#262626" height="62" rx="14" width="62" x="246" y="152"/></g><rect height="61" rx="13.5" stroke="url(#p)" width="61" x="246.5" y="152.5"/></g><g fill="#737373" opacity=".3"><path d="m277 193.76c-1.09 0-2.17-.32-3.02-.95l-4.3-3.21c-1.14-.85-2.03-2.63-2.03-4.04v-7.44c0-1.54 1.13-3.18 2.58-3.72l4.99-1.87c.99-.37 2.55-.37 3.54 0l4.99 1.87c1.45.54 2.58 2.18 2.58 3.72v7.43c0 1.42-.89 3.19-2.03 4.04l-4.3 3.21c-.83.64-1.91.96-3 .96zm-1.25-19.82-4.99 1.87c-.85.32-1.6 1.4-1.6 2.32v7.43c0 .95.67 2.28 1.42 2.84l4.3 3.21c1.15.86 3.09.86 4.25 0l4.3-3.21c.76-.57 1.42-1.89 1.42-2.84v-7.44c0-.91-.75-1.99-1.6-2.32l-4.99-1.87c-.68-.24-1.84-.24-2.51.01z"/><path d="m275.66 185.23c-.19 0-.38-.07-.53-.22l-1.61-1.61c-.29-.29-.29-.77 0-1.06s.77-.29 1.06 0l1.08 1.08 3.77-3.77c.29-.29.77-.29 1.06 0s.29.77 0 1.06l-4.3 4.3c-.15.15-.34.22-.53.22z"/></g><g opacity=".3"><g filter="url(#d)"><rect fill="#262626" height="62" rx="14" width="62" x="331" y="152"/></g><rect height="61" rx="13.5" stroke="url(#q)" width="61" x="331.5" y="152.5"/></g><g filter="url(#e)"><path d="m164 166c0-7.732 6.268-14 14-14h34c7.732 0 14 6.268 14 14v34c0 7.732-6.268 14-14 14h-34c-7.732 0-14-6.268-14-14z" fill="#262626"/></g><path d="m164.5 166c0-7.456 6.044-13.5 13.5-13.5h34c7.456 0 13.5 6.044 13.5 13.5v34c0 7.456-6.044 13.5-13.5 13.5h-34c-7.456 0-13.5-6.044-13.5-13.5z" stroke="url(#r)"/><g filter="url(#f)"><path d="m82 84c0-7.732 6.268-14 14-14h34c7.732 0 14 6.268 14 14v34c0 7.732-6.268 14-14 14h-34c-7.732 0-14-6.268-14-14z" fill="#262626"/></g><path d="m82.5 84c0-7.4558 6.0442-13.5 13.5-13.5h34c7.456 0 13.5 6.0442 13.5 13.5v34c0 7.456-6.044 13.5-13.5 13.5h-34c-7.4558 0-13.5-6.044-13.5-13.5z" stroke="url(#s)"/><g opacity=".3"><g filter="url(#g)"><path d="m0 166c0-7.732 6.26801-14 14-14h116c7.732 0 14 6.268 14 14v34c0 7.732-6.268 14-14 14h-116c-7.73199 0-14-6.268-14-14z" fill="#262626"/></g><path d="m.5 166c0-7.456 6.04416-13.5 13.5-13.5h116c7.456 0 13.5 6.044 13.5 13.5v34c0 7.456-6.044 13.5-13.5 13.5h-116c-7.45585 0-13.5-6.044-13.5-13.5z" stroke="url(#t)"/></g><path d="m32.5 190v-13.6h5.38c2.4 0 4.22 1.78 4.22 4 0 2.2-1.82 4.02-4.22 4.02h-3.5v5.58zm1.88-7.3h3.1c1.96 0 2.7-1.16 2.7-2.3 0-1.16-.74-2.28-2.64-2.28h-3.16zm9.363 1.38c0-2.32 1.46-3.64 3.48-3.64.38 0 .72.06 1.02.14v1.68c-.38-.04-.58-.02-.72-.02-1.16 0-1.94.52-1.94 2.28v5.48h-1.84zm10.5486 6.12c-2.76 0-4.84-2.14-4.84-4.88s2.08-4.88 4.84-4.88 4.84 2.14 4.84 4.88-2.08 4.88-4.84 4.88zm0-1.68c1.72 0 3-1.34 3-3.2s-1.28-3.2-3-3.2-3 1.34-3 3.2 1.28 3.2 3 3.2zm11.9389 1.68c-1.3 0-2.48-.52-3.16-1.52v5.24h-1.84v-13.28h1.62l.16 1.42c.68-1.06 1.88-1.62 3.22-1.62 2.36 0 4.5 1.78 4.5 4.88s-2.14 4.88-4.5 4.88zm-.26-1.68c1.58 0 2.92-1.16 2.92-3.2s-1.34-3.2-2.92-3.2c-1.56 0-2.96 1.22-2.96 3.2s1.4 3.2 2.96 3.2zm6.8615 1.48v-13.6h8.22v1.72h-6.34v4.14h6.06v1.72h-6.06v4.3h6.34v1.72zm14.4017.2c-2.3799 0-4.5399-1.78-4.5399-4.88s2.16-4.88 4.5399-4.88c1.2801 0 2.5601.56 3.2601 1.64l.16-1.44h1.62v9.36h-1.62l-.16-1.44c-.7 1.08-1.98 1.64-3.2601 1.64zm.3001-1.68c1.52 0 2.96-1.22 2.96-3.2s-1.44-3.2-2.96-3.2c-1.56 0-3 1.16-3 3.2s1.44 3.2 3 3.2zm10.6215 1.68c-2.06 0-3.56-1.2-3.66-3.1h1.84c.1.96.88 1.54 1.82 1.54 1.06 0 1.54-.54 1.54-1.1 0-1.98-5-.88-5-4.36 0-1.34 1.1-2.74 3.24-2.74 1.88 0 3.2397 1.06 3.4197 2.96h-1.8397c-.14-.88-.7-1.4-1.58-1.4-.8 0-1.4.46-1.4 1.18 0 1.98 4.9997.82 4.9997 4.36 0 1.56-1.46 2.66-3.3797 2.66zm9.2587 0c-2.72 0-4.72-1.98-4.72-4.88 0-2.88 1.96-4.88 4.72-4.88 2.46 0 4.48 2.1 4.48 4.88 0 .28 0 .44-.04.72h-7.26c.26 1.52 1.38 2.48 2.82 2.48 1.18 0 1.96-.46 2.36-1.32h1.88c-.56 1.78-2.18 3-4.24 3zm-2.8-5.68h5.38c-.12-1.28-1.16-2.4-2.58-2.4-1.44 0-2.52.94-2.8 2.4z" fill="#d4d4d4"/><g opacity=".3"><g filter="url(#h)"><path d="m19 248c0-7.732 6.268-14 14-14h346c7.732 0 14 6.268 14 14v34c0 7.732-6.268 14-14 14h-346c-7.732 0-14-6.268-14-14z" fill="#262626"/></g><path d="m19.5 248c0-7.456 6.0442-13.5 13.5-13.5h346c7.456 0 13.5 6.044 13.5 13.5v34c0 7.456-6.044 13.5-13.5 13.5h-346c-7.4558 0-13.5-6.044-13.5-13.5z" stroke="url(#u)"/></g><g opacity=".3"><g filter="url(#i)"><path d="m0 84c0-7.732 6.26801-14 14-14h34c7.732 0 14 6.268 14 14v34c0 7.732-6.268 14-14 14h-34c-7.73198 0-14-6.268-14-14z" fill="#262626"/></g><path d="m.5 84c0-7.4558 6.04416-13.5 13.5-13.5h34c7.4558 0 13.5 6.0442 13.5 13.5v34c0 7.456-6.0442 13.5-13.5 13.5h-34c-7.45584 0-13.5-6.044-13.5-13.5z" stroke="url(#v)"/></g><g opacity=".3"><g filter="url(#j)"><path d="m331 84c0-7.732 6.268-14 14-14h34c7.732 0 14 6.268 14 14v34c0 7.732-6.268 14-14 14h-34c-7.732 0-14-6.268-14-14z" fill="#262626"/></g><path d="m331.5 84c0-7.4558 6.044-13.5 13.5-13.5h34c7.456 0 13.5 6.0442 13.5 13.5v34c0 7.456-6.044 13.5-13.5 13.5h-34c-7.456 0-13.5-6.044-13.5-13.5z" stroke="url(#w)"/></g><circle cx="195" cy="73" fill="#ff5f0d" r="3"/><circle cx="195" cy="73" r="5" stroke="#fff" stroke-opacity=".15" stroke-width="4"/><path d="m195 70v-26c0-8.2843-6.716-15-15-15h-43c-8.284 0-15-6.7157-15-15v-13" stroke="url(#x)" stroke-linecap="round" stroke-linejoin="round" stroke-width="2"/><circle cx="173" cy="295" fill="#ff5f0d" r="3" transform="matrix(-1 -0 0 -1 346 590)"/><circle cx="173" cy="295" r="5" stroke="#fff" stroke-opacity=".15" stroke-width="4" transform="matrix(-1 -0 0 -1 346 590)"/><path d="m173 298v41" stroke="url(#y)" stroke-linecap="round" stroke-linejoin="round" stroke-width="2"/></svg>