<svg fill="none" height="479" viewBox="0 0 853 479" width="853" xmlns="http://www.w3.org/2000/svg" xmlns:xlink="http://www.w3.org/1999/xlink"><linearGradient id="a"><stop offset="0" stop-color="#101010" stop-opacity="0"/><stop offset=".355" stop-color="#2a2625"/><stop offset=".705" stop-color="#2a2625"/><stop offset="1" stop-color="#101010" stop-opacity="0"/></linearGradient><linearGradient id="b" gradientUnits="userSpaceOnUse" x1="1" x2="427" xlink:href="#a" y1="239.5" y2="239.5"/><linearGradient id="c" gradientUnits="userSpaceOnUse" x1="427" x2="853" xlink:href="#a" y1="239.5" y2="239.5"/><linearGradient id="d" gradientUnits="userSpaceOnUse" x1="426.5" x2="426.5" xlink:href="#a" y1="0" y2="239"/><linearGradient id="e" gradientUnits="userSpaceOnUse" x1="426.5" x2="426.5" xlink:href="#a" y1="239" y2="478"/><path d="m1 238.5c-.276142 0-.5.224-.5.5s.223858.5.5.5zm0 1h426v-1h-426z" fill="url(#b)"/><path d="m427 238.5c-.276 0-.5.224-.5.5s.224.5.5.5zm0 1h426v-1h-426z" fill="url(#c)"/><path d="m426.5 239c0 .276.224.5.5.5s.5-.224.5-.5zm0-238.99999998v238.99999998h1v-239.00000002z" fill="url(#d)"/><path d="m426.5 478c0 .276.224.5.5.5s.5-.224.5-.5zm0-239v239h1v-239z" fill="url(#e)"/></svg>