<svg fill="none" height="273" viewBox="0 0 430 273" width="430" xmlns="http://www.w3.org/2000/svg" xmlns:xlink="http://www.w3.org/1999/xlink"><filter id="a" color-interpolation-filters="sRGB" filterUnits="userSpaceOnUse" height="120.8" width="251.8" x="97.1" y="-52.9"><feFlood flood-opacity="0" result="BackgroundImageFix"/><feBlend in="SourceGraphic" in2="BackgroundImageFix" mode="normal" result="shape"/><feGaussianBlur result="effect1_foregroundBlur_698_5649" stdDeviation="26.95"/></filter><filter id="b" color-interpolation-filters="sRGB" filterUnits="userSpaceOnUse" height="120.8" width="251.8" x="97.1" y="145.1"><feFlood flood-opacity="0" result="BackgroundImageFix"/><feBlend in="SourceGraphic" in2="BackgroundImageFix" mode="normal" result="shape"/><feGaussianBlur result="effect1_foregroundBlur_698_5649" stdDeviation="26.95"/></filter><filter id="c" color-interpolation-filters="sRGB" filterUnits="userSpaceOnUse" height="195" width="246" x="239.5" y="39.5"><feFlood flood-opacity="0" result="BackgroundImageFix"/><feBlend in="SourceGraphic" in2="BackgroundImageFix" mode="normal" result="shape"/><feGaussianBlur result="effect1_foregroundBlur_698_5649" stdDeviation="36.25"/></filter><filter id="d" color-interpolation-filters="sRGB" filterUnits="userSpaceOnUse" height="52.9893" width="51.9902" x="381" y="150"><feFlood flood-opacity="0" result="BackgroundImageFix"/><feBlend in="SourceGraphic" in2="BackgroundImageFix" mode="normal" result="shape"/><feColorMatrix in="SourceAlpha" result="hardAlpha" type="matrix" values="0 0 0 0 0 0 0 0 0 0 0 0 0 0 0 0 0 0 127 0"/><feOffset dx="3" dy="4"/><feGaussianBlur stdDeviation="4"/><feComposite in2="hardAlpha" k2="-1" k3="1" operator="arithmetic"/><feColorMatrix type="matrix" values="0 0 0 0 1 0 0 0 0 1 0 0 0 0 1 0 0 0 0.3 0"/><feBlend in2="shape" mode="normal" result="effect1_innerShadow_698_5649"/></filter><linearGradient id="e"><stop offset="0" stop-color="#242424"/><stop offset="1" stop-color="#161616"/></linearGradient><linearGradient id="f" gradientUnits="userSpaceOnUse" x1="0" x2="363" xlink:href="#e" y1="37.5" y2="37.5"/><linearGradient id="g" gradientUnits="userSpaceOnUse" x1="0" x2="363" xlink:href="#e" y1="235.5" y2="235.5"/><linearGradient id="h" gradientUnits="userSpaceOnUse" x1="50" x2="413" xlink:href="#e" y1="136.5" y2="136.5"/><clipPath id="i"><path d="m0 0h363v75h-363z"/></clipPath><clipPath id="j"><path d="m0 198h363v75h-363z"/></clipPath><clipPath id="k"><rect height="75" rx="14" width="363" x="50" y="99"/></clipPath><g clip-path="url(#i)"><rect fill="url(#f)" height="75" rx="14" width="363"/><g filter="url(#a)"><ellipse cx="223" cy="7.5" fill="#fff" fill-opacity=".4" rx="72" ry="6.5"/></g><path d="m83.22 47.448c-1.8853 0-3.5-.4387-4.844-1.316-1.344-.896-2.3707-2.1187-3.08-3.668-.7093-1.568-1.064-3.36-1.064-5.376 0-1.9973.3547-3.78 1.064-5.348.728-1.568 1.7733-2.8 3.136-3.696 1.3627-.9147 2.996-1.372 4.9-1.372 1.624 0 2.996.2893 4.116.868 1.1387.5787 2.0347 1.372 2.688 2.38.672 1.008 1.1387 2.156 1.4 3.444l-3.164.168c-.224-1.2133-.728-2.1933-1.512-2.94-.784-.7653-1.96-1.148-3.528-1.148-1.3813 0-2.5107.3453-3.388 1.036s-1.5307 1.6147-1.96 2.772c-.4107 1.1573-.616 2.436-.616 3.836 0 1.456.2053 2.7533.616 3.892.4293 1.1387 1.0827 2.044 1.96 2.716.896.6533 2.0347.98 3.416.98 1.0827 0 2.016-.2333 2.8-.7s1.3907-1.1013 1.82-1.904c.448-.8027.6907-1.6893.728-2.66h-5.32v-2.548h8.204v10.136h-2.072l-.196-4.48.392.336c-.2053.896-.6253 1.6893-1.26 2.38s-1.4093 1.232-2.324 1.624c-.896.392-1.8667.588-2.912.588zm11.8409-.448v-14.896h2.716l.112 3.948-.252-.084c.2054-1.344.616-2.324 1.232-2.94.6347-.616 1.4841-.924 2.5481-.924h1.428v2.66h-1.428c-.747 0-1.372.1213-1.8761.364-.504.2427-.8866.616-1.148 1.12-.2426.504-.364 1.1573-.364 1.96v8.792zm16.0301.336c-1.456 0-2.716-.3173-3.78-.952-1.045-.6347-1.857-1.54-2.436-2.716-.56-1.176-.84-2.548-.84-4.116s.28-2.9307.84-4.088c.579-1.176 1.391-2.0813 2.436-2.716 1.046-.6533 2.278-.98 3.696-.98 1.344 0 2.53.3173 3.556.952 1.027.616 1.82 1.512 2.38 2.688.579 1.176.868 2.5947.868 4.256v.756h-10.696c.075 1.456.458 2.548 1.148 3.276.71.728 1.662 1.092 2.856 1.092.878 0 1.606-.2053 2.184-.616.579-.4107.98-.9613 1.204-1.652l3.08.196c-.392 1.3813-1.166 2.5013-2.324 3.36-1.138.84-2.529 1.26-4.172 1.26zm-3.976-9.156h7.56c-.093-1.3253-.476-2.3053-1.148-2.94-.653-.6347-1.493-.952-2.52-.952-1.064 0-1.941.336-2.632 1.008-.672.6533-1.092 1.6147-1.26 2.884zm19.836 9.156c-1.456 0-2.716-.3173-3.78-.952-1.046-.6347-1.858-1.54-2.436-2.716-.56-1.176-.84-2.548-.84-4.116s.28-2.9307.84-4.088c.578-1.176 1.39-2.0813 2.436-2.716 1.045-.6533 2.277-.98 3.696-.98 1.344 0 2.529.3173 3.556.952 1.026.616 1.82 1.512 2.38 2.688.578 1.176.868 2.5947.868 4.256v.756h-10.696c.074 1.456.457 2.548 1.148 3.276.709.728 1.661 1.092 2.856 1.092.877 0 1.605-.2053 2.184-.616.578-.4107.98-.9613 1.204-1.652l3.08.196c-.392 1.3813-1.167 2.5013-2.324 3.36-1.139.84-2.53 1.26-4.172 1.26zm-3.976-9.156h7.56c-.094-1.3253-.476-2.3053-1.148-2.94-.654-.6347-1.494-.952-2.52-.952-1.064 0-1.942.336-2.632 1.008-.672.6533-1.092 1.6147-1.26 2.884zm13.703 8.82v-14.896h2.716l.112 3.976-.364-.196c.168-.9707.485-1.7547.952-2.352s1.036-1.036 1.708-1.316c.672-.2987 1.4-.448 2.184-.448 1.12 0 2.044.252 2.772.756.747.4853 1.307 1.1573 1.68 2.016.392.84.588 1.8013.588 2.884v9.576h-2.968v-8.68c0-.8773-.093-1.6147-.28-2.212s-.495-1.0547-.924-1.372-.989-.476-1.68-.476c-1.045 0-1.895.3453-2.548 1.036s-.98 1.6987-.98 3.024v8.68zm23.66 0v-19.88h3.024v9.576l-1.456-1.064h12.096l-1.456 1.064v-9.576h3.024v19.88h-3.024v-9.688l1.456 1.064h-12.096l1.456-1.064v9.688zm25.593.336c-1.418 0-2.66-.3173-3.724-.952s-1.885-1.54-2.464-2.716c-.578-1.176-.868-2.548-.868-4.116 0-1.5867.29-2.9587.868-4.116.579-1.1573 1.4-2.0533 2.464-2.688 1.064-.6533 2.306-.98 3.724-.98 1.419 0 2.66.3267 3.724.98 1.064.6347 1.886 1.5307 2.464 2.688.579 1.1573.868 2.5293.868 4.116 0 1.568-.289 2.94-.868 4.116-.578 1.176-1.4 2.0813-2.464 2.716s-2.305.952-3.724.952zm0-2.576c1.27 0 2.25-.4573 2.94-1.372.691-.9333 1.036-2.212 1.036-3.836s-.345-2.8933-1.036-3.808c-.69-.9333-1.67-1.4-2.94-1.4-1.25 0-2.23.4667-2.94 1.4-.69.9147-1.036 2.184-1.036 3.808s.346 2.9027 1.036 3.836c.71.9147 1.69 1.372 2.94 1.372zm14.956 2.576c-1.494 0-2.688-.4947-3.584-1.484-.878-1.008-1.316-2.3987-1.316-4.172v-9.576h2.968v8.82c0 1.344.233 2.3333.7 2.968.466.6347 1.176.952 2.128.952 1.082 0 1.922-.3453 2.52-1.036.616-.7093.924-1.6987.924-2.968v-8.736h2.968v14.896h-2.772l-.056-3.892.42.168c-.262 1.3067-.812 2.3147-1.652 3.024-.84.6907-1.923 1.036-3.248 1.036zm16.973 0c-1.4 0-2.586-.2147-3.556-.644-.952-.4293-1.69-1.0173-2.212-1.764-.523-.7653-.822-1.6427-.896-2.632l3.052-.14c.149.8213.504 1.4747 1.064 1.96s1.409.728 2.548.728c.933 0 1.67-.1493 2.212-.448.541-.2987.812-.7747.812-1.428 0-.3547-.094-.6533-.28-.896-.168-.2613-.504-.476-1.008-.644-.504-.1867-1.251-.364-2.24-.532-1.475-.28-2.632-.6067-3.472-.98s-1.438-.8493-1.792-1.428c-.355-.5787-.532-1.2787-.532-2.1 0-1.3627.504-2.4733 1.512-3.332 1.026-.8587 2.501-1.288 4.424-1.288 1.288 0 2.37.224 3.248.672.877.4293 1.558 1.0173 2.044 1.764.504.728.821 1.5493.952 2.464l-3.052.168c-.094-.5227-.28-.9707-.56-1.344-.262-.392-.616-.6907-1.064-.896-.448-.224-.98-.336-1.596-.336-.952 0-1.662.1867-2.128.56-.467.3733-.7.8587-.7 1.456 0 .448.102.812.308 1.092.224.28.578.5133 1.064.7.485.168 1.129.3173 1.932.448 1.549.2613 2.762.588 3.64.98.877.3733 1.493.84 1.848 1.4.354.56.532 1.2413.532 2.044 0 .9333-.262 1.7267-.784 2.38-.523.6533-1.242 1.1573-2.156 1.512-.915.336-1.97.504-3.164.504zm15.239 0c-1.456 0-2.716-.3173-3.78-.952-1.045-.6347-1.857-1.54-2.436-2.716-.56-1.176-.84-2.548-.84-4.116s.28-2.9307.84-4.088c.579-1.176 1.391-2.0813 2.436-2.716 1.046-.6533 2.278-.98 3.696-.98 1.344 0 2.53.3173 3.556.952 1.027.616 1.82 1.512 2.38 2.688.579 1.176.868 2.5947.868 4.256v.756h-10.696c.075 1.456.458 2.548 1.148 3.276.71.728 1.662 1.092 2.856 1.092.878 0 1.606-.2053 2.184-.616.579-.4107.98-.9613 1.204-1.652l3.08.196c-.392 1.3813-1.166 2.5013-2.324 3.36-1.138.84-2.529 1.26-4.172 1.26zm-3.976-9.156h7.56c-.093-1.3253-.476-2.3053-1.148-2.94-.653-.6347-1.493-.952-2.52-.952-1.064 0-1.941.336-2.632 1.008-.672.6533-1.092 1.6147-1.26 2.884z" fill="#737373"/><path d="m38.5 47.9062c-.6321 0-1.1562-.5241-1.1562-1.1562v-4.625c0-.6321.5241-1.1562 1.1562-1.1562s1.1562.5241 1.1562 1.1562v4.625c0 .6321-.5241 1.1562-1.1562 1.1562z" fill="#6e6e6e"/><path d="m47.1356 53.7794h-17.2667c-2.8058 0-5.365-2.1583-5.8275-4.9179l-2.0504-12.2871c-.3392-1.9116.6013-4.3629 2.1275-5.5808l10.6838-8.5562c2.0658-1.665 5.3187-1.6496 7.4.0154l10.6837 8.5408c1.5108 1.2179 2.4358 3.6692 2.1275 5.5808l-2.0504 12.2717c-.4625 2.7288-3.0833 4.9333-5.8275 4.9333zm-8.6488-30.2629c-.817 0-1.6341.2467-2.2354.7246l-10.6837 8.5717c-.8634.6937-1.48 2.2971-1.295 3.3916l2.0504 12.2717c.2775 1.6188 1.8962 2.9908 3.5458 2.9908h17.2667c1.6496 0 3.2683-1.372 3.5458-3.0062l2.0504-12.2717c.1696-1.0791-.447-2.7133-1.295-3.3916l-10.6837-8.5409c-.6167-.4933-1.4492-.74-2.2663-.74z" fill="#6e6e6e"/><g fill="#525252"><path d="m332.667 39.0625h-11.333c-.581 0-1.063-.4817-1.063-1.0625s.482-1.0625 1.063-1.0625h11.333c.581 0 1.063.4817 1.063 1.0625s-.482 1.0625-1.063 1.0625z"/><path d="m327 44.7288c-.581 0-1.062-.4816-1.062-1.0625v-11.3333c0-.5808.481-1.0625 1.062-1.0625s1.062.4817 1.062 1.0625v11.3333c0 .5809-.481 1.0625-1.062 1.0625z"/><path d="m331.251 53.2288h-8.5c-7.693 0-10.98-3.2866-10.98-10.9791v-8.5c0-7.6925 3.287-10.9792 10.98-10.9792h8.5c7.692 0 10.979 3.2867 10.979 10.9792v8.5c0 7.6925-3.287 10.9791-10.979 10.9791zm-8.5-28.3333c-6.531 0-8.855 2.3233-8.855 8.8542v8.5c0 6.5308 2.324 8.8541 8.855 8.8541h8.5c6.53 0 8.854-2.3233 8.854-8.8541v-8.5c0-6.5309-2.324-8.8542-8.854-8.8542z"/></g></g><g clip-path="url(#j)"><rect fill="url(#g)" height="75" rx="14" width="363" y="198"/><g filter="url(#b)"><ellipse cx="223" cy="205.5" fill="#fff" fill-opacity=".4" rx="72" ry="6.5"/></g><g fill="#525252"><path d="m332.667 237.062h-11.333c-.581 0-1.063-.481-1.063-1.062s.482-1.062 1.063-1.062h11.333c.581 0 1.063.481 1.063 1.062s-.482 1.062-1.063 1.062z"/><path d="m327 242.729c-.581 0-1.062-.482-1.062-1.063v-11.333c0-.581.481-1.062 1.062-1.062s1.062.481 1.062 1.062v11.333c0 .581-.481 1.063-1.062 1.063z"/><path d="m331.251 251.229h-8.5c-7.693 0-10.98-3.287-10.98-10.979v-8.5c0-7.693 3.287-10.979 10.98-10.979h8.5c7.692 0 10.979 3.286 10.979 10.979v8.5c0 7.692-3.287 10.979-10.979 10.979zm-8.5-28.333c-6.531 0-8.855 2.323-8.855 8.854v8.5c0 6.531 2.324 8.854 8.855 8.854h8.5c6.53 0 8.854-2.323 8.854-8.854v-8.5c0-6.531-2.324-8.854-8.854-8.854z"/></g><path d="m75.408 245v-19.88h4.144l5.908 16.324 5.908-16.324h4.144v19.88h-3.024v-14.56l-5.348 14.532h-3.36l-5.348-14.532v14.56zm28.501.336c-1.55 0-2.791-.355-3.724-1.064-.9149-.709-1.3723-1.708-1.3723-2.996s.3827-2.287 1.148-2.996c.7843-.728 1.9883-1.251 3.6123-1.568l5.124-.98c0-1.157-.271-2.016-.812-2.576-.542-.579-1.344-.868-2.408-.868-.952 0-1.699.215-2.24.644-.542.411-.915 1.027-1.12 1.848l-3.0523-.196c.28-1.493.9703-2.669 2.0723-3.528 1.12-.859 2.566-1.288 4.34-1.288 2.016 0 3.546.541 4.592 1.624 1.064 1.064 1.596 2.567 1.596 4.508v5.796c0 .355.056.607.168.756.13.131.336.196.616.196h.532v2.352c-.094.019-.243.037-.448.056-.206.019-.42.028-.644.028-.635 0-1.186-.103-1.652-.308-.448-.205-.784-.541-1.008-1.008-.224-.485-.336-1.129-.336-1.932l.308.14c-.15.653-.476 1.232-.98 1.736-.486.504-1.111.905-1.876 1.204-.747.28-1.559.42-2.436.42zm.476-2.352c.896 0 1.661-.168 2.296-.504.634-.355 1.129-.84 1.484-1.456.354-.616.532-1.316.532-2.1v-.952l-4.368.84c-.896.168-1.531.439-1.904.812-.355.355-.532.812-.532 1.372 0 .635.214 1.129.644 1.484.448.336 1.064.504 1.848.504zm11.102 2.016v-14.896h2.716l.112 3.948-.252-.084c.205-1.344.616-2.324 1.232-2.94.634-.616 1.484-.924 2.548-.924h1.428v2.66h-1.428c-.747 0-1.372.121-1.876.364s-.887.616-1.148 1.12c-.243.504-.364 1.157-.364 1.96v8.792zm10.226 0v-14.896h2.968v14.896zm-.056-17.052v-2.968h3.08v2.968zm7.466 17.052v-14.896h2.716l.112 3.976-.364-.196c.168-.971.486-1.755.952-2.352.467-.597 1.036-1.036 1.708-1.316.672-.299 1.4-.448 2.184-.448 1.12 0 2.044.252 2.772.756.747.485 1.307 1.157 1.68 2.016.392.84.588 1.801.588 2.884v9.576h-2.968v-8.68c0-.877-.093-1.615-.28-2.212-.186-.597-.494-1.055-.924-1.372-.429-.317-.989-.476-1.68-.476-1.045 0-1.894.345-2.548 1.036-.653.691-.98 1.699-.98 3.024v8.68zm22.347.336c-1.456 0-2.716-.317-3.78-.952-1.045-.635-1.857-1.54-2.436-2.716-.56-1.176-.84-2.548-.84-4.116s.28-2.931.84-4.088c.579-1.176 1.391-2.081 2.436-2.716 1.046-.653 2.278-.98 3.696-.98 1.344 0 2.53.317 3.556.952 1.027.616 1.82 1.512 2.38 2.688.579 1.176.868 2.595.868 4.256v.756h-10.696c.075 1.456.458 2.548 1.148 3.276.71.728 1.662 1.092 2.856 1.092.878 0 1.606-.205 2.184-.616.579-.411.98-.961 1.204-1.652l3.08.196c-.392 1.381-1.166 2.501-2.324 3.36-1.138.84-2.529 1.26-4.172 1.26zm-3.976-9.156h7.56c-.093-1.325-.476-2.305-1.148-2.94-.653-.635-1.493-.952-2.52-.952-1.064 0-1.941.336-2.632 1.008-.672.653-1.092 1.615-1.26 2.884zm21.094 8.82v-19.88h7.42c2.277 0 4.05.551 5.32 1.652 1.269 1.083 1.904 2.595 1.904 4.536 0 1.288-.29 2.408-.868 3.36-.579.933-1.41 1.652-2.492 2.156-1.064.485-2.352.728-3.864.728h-4.396v7.448zm3.024-10.192h4.312c1.362 0 2.398-.289 3.108-.868.709-.597 1.064-1.475 1.064-2.632 0-1.139-.355-1.988-1.064-2.548-.71-.579-1.746-.868-3.108-.868h-4.312zm18.318 10.192c-.971 0-1.755-.252-2.352-.756s-.896-1.307-.896-2.408v-16.716h2.968v16.436c0 .336.084.588.252.756.187.168.448.252.784.252h1.176v2.436zm10.595.336c-1.419 0-2.66-.317-3.724-.952s-1.885-1.54-2.464-2.716-.868-2.548-.868-4.116c0-1.587.289-2.959.868-4.116s1.4-2.053 2.464-2.688c1.064-.653 2.305-.98 3.724-.98s2.66.327 3.724.98c1.064.635 1.885 1.531 2.464 2.688s.868 2.529.868 4.116c0 1.568-.289 2.94-.868 4.116s-1.4 2.081-2.464 2.716-2.305.952-3.724.952zm0-2.576c1.269 0 2.249-.457 2.94-1.372.691-.933 1.036-2.212 1.036-3.836s-.345-2.893-1.036-3.808c-.691-.933-1.671-1.4-2.94-1.4-1.251 0-2.231.467-2.94 1.4-.691.915-1.036 2.184-1.036 3.808s.345 2.903 1.036 3.836c.709.915 1.689 1.372 2.94 1.372zm15.221 2.24c-1.419 0-2.464-.327-3.136-.98s-1.008-1.671-1.008-3.052v-14.364h2.968v14.14c0 .691.149 1.167.448 1.428.298.261.756.392 1.372.392h2.128v2.436zm-6.412-12.46v-2.436h9.184v2.436z" fill="#737373"/><path d="m38.5 244.906c-.6321 0-1.1562-.524-1.1562-1.156v-4.625c0-.632.5241-1.156 1.1562-1.156s1.1562.524 1.1562 1.156v4.625c0 .632-.5241 1.156-1.1562 1.156z" fill="#6e6e6e"/><path d="m47.1356 250.779h-17.2667c-2.8058 0-5.365-2.158-5.8275-4.917l-2.0504-12.288c-.3392-1.911.6013-4.362 2.1275-5.58l10.6838-8.557c2.0658-1.665 5.3187-1.649 7.4.016l10.6837 8.541c1.5108 1.218 2.4358 3.669 2.1275 5.58l-2.0504 12.272c-.4625 2.729-3.0833 4.933-5.8275 4.933zm-8.6488-30.262c-.817 0-1.6341.246-2.2354.724l-10.6837 8.572c-.8634.694-1.48 2.297-1.295 3.391l2.0504 12.272c.2775 1.619 1.8962 2.991 3.5458 2.991h17.2667c1.6496 0 3.2683-1.372 3.5458-3.006l2.0504-12.272c.1696-1.079-.447-2.713-1.295-3.392l-10.6837-8.54c-.6167-.494-1.4492-.74-2.2663-.74z" fill="#6e6e6e"/></g><g clip-path="url(#k)"><rect fill="url(#h)" height="75" rx="14" width="363" x="50" y="99"/><g filter="url(#c)"><ellipse cx="362.5" cy="137" fill="#ea580c" fill-opacity=".66" rx="50.5" ry="25"/></g><g fill="#ea580b"><path d="m381.667 138.062h-11.333c-.581 0-1.063-.481-1.063-1.062s.482-1.062 1.063-1.062h11.333c.581 0 1.063.481 1.063 1.062s-.482 1.062-1.063 1.062z"/><path d="m376 143.729c-.581 0-1.062-.482-1.062-1.063v-11.333c0-.581.481-1.062 1.062-1.062s1.062.481 1.062 1.062v11.333c0 .581-.481 1.063-1.062 1.063z"/><path d="m380.251 152.229h-8.5c-7.693 0-10.98-3.287-10.98-10.979v-8.5c0-7.693 3.287-10.979 10.98-10.979h8.5c7.692 0 10.979 3.286 10.979 10.979v8.5c0 7.692-3.287 10.979-10.979 10.979zm-8.5-28.333c-6.531 0-8.855 2.323-8.855 8.854v8.5c0 6.531 2.324 8.854 8.855 8.854h8.5c6.53 0 8.854-2.323 8.854-8.854v-8.5c0-6.531-2.324-8.854-8.854-8.854z"/></g><path d="m125.408 147v-19.88h7.42c2.277 0 4.051.551 5.32 1.652 1.269 1.083 1.904 2.595 1.904 4.536 0 1.288-.289 2.408-.868 3.36-.579.933-1.409 1.652-2.492 2.156-1.064.485-2.352.728-3.864.728h-4.396v7.448zm3.024-10.192h4.312c1.363 0 2.399-.289 3.108-.868.709-.597 1.064-1.475 1.064-2.632 0-1.139-.355-1.988-1.064-2.548-.709-.579-1.745-.868-3.108-.868h-4.312zm22.862 10.64c-1.885 0-3.5-.439-4.844-1.316-1.344-.896-2.37-2.119-3.08-3.668-.709-1.568-1.064-3.36-1.064-5.376 0-1.997.355-3.78 1.064-5.348.728-1.568 1.774-2.8 3.136-3.696 1.363-.915 2.996-1.372 4.9-1.372 1.624 0 2.996.289 4.116.868 1.139.579 2.035 1.372 2.688 2.38.672 1.008 1.139 2.156 1.4 3.444l-3.164.168c-.224-1.213-.728-2.193-1.512-2.94-.784-.765-1.96-1.148-3.528-1.148-1.381 0-2.51.345-3.388 1.036-.877.691-1.53 1.615-1.96 2.772-.41 1.157-.616 2.436-.616 3.836 0 1.456.206 2.753.616 3.892.43 1.139 1.083 2.044 1.96 2.716.896.653 2.035.98 3.416.98 1.083 0 2.016-.233 2.8-.7s1.391-1.101 1.82-1.904c.448-.803.691-1.689.728-2.66h-5.32v-2.548h8.204v10.136h-2.072l-.196-4.48.392.336c-.205.896-.625 1.689-1.26 2.38-.634.691-1.409 1.232-2.324 1.624-.896.392-1.866.588-2.912.588zm12.149-.448v-19.88h7.924c1.419 0 2.641.243 3.668.728s1.82 1.176 2.38 2.072.84 1.96.84 3.192c0 .896-.205 1.699-.616 2.408-.392.709-.924 1.279-1.596 1.708-.653.411-1.353.644-2.1.7l-.14-.252c1.251 0 2.221.289 2.912.868.691.56 1.092 1.447 1.204 2.66l.532 5.796h-3.052l-.476-5.404c-.056-.803-.327-1.391-.812-1.764-.485-.392-1.279-.588-2.38-.588h-5.264v7.756zm3.024-10.528h4.956c1.139 0 2.035-.28 2.688-.84.672-.579 1.008-1.391 1.008-2.436 0-1.064-.336-1.876-1.008-2.436-.672-.579-1.652-.868-2.94-.868h-4.704zm22.816 10.528v-19.88h3.024v9.576l-1.456-1.064h12.096l-1.456 1.064v-9.576h3.024v19.88h-3.024v-9.688l1.456 1.064h-12.096l1.456-1.064v9.688zm25.594.336c-1.419 0-2.66-.317-3.724-.952s-1.886-1.54-2.464-2.716c-.579-1.176-.868-2.548-.868-4.116 0-1.587.289-2.959.868-4.116.578-1.157 1.4-2.053 2.464-2.688 1.064-.653 2.305-.98 3.724-.98 1.418 0 2.66.327 3.724.98 1.064.635 1.885 1.531 2.464 2.688.578 1.157.868 2.529.868 4.116 0 1.568-.29 2.94-.868 4.116-.579 1.176-1.4 2.081-2.464 2.716s-2.306.952-3.724.952zm0-2.576c1.269 0 2.249-.457 2.94-1.372.69-.933 1.036-2.212 1.036-3.836s-.346-2.893-1.036-3.808c-.691-.933-1.671-1.4-2.94-1.4-1.251 0-2.231.467-2.94 1.4-.691.915-1.036 2.184-1.036 3.808s.345 2.903 1.036 3.836c.709.915 1.689 1.372 2.94 1.372zm14.955 2.576c-1.493 0-2.688-.495-3.584-1.484-.877-1.008-1.316-2.399-1.316-4.172v-9.576h2.968v8.82c0 1.344.233 2.333.7 2.968s1.176.952 2.128.952c1.083 0 1.923-.345 2.52-1.036.616-.709.924-1.699.924-2.968v-8.736h2.968v14.896h-2.772l-.056-3.892.42.168c-.261 1.307-.812 2.315-1.652 3.024-.84.691-1.923 1.036-3.248 1.036zm16.973 0c-1.4 0-2.585-.215-3.556-.644-.952-.429-1.689-1.017-2.212-1.764-.523-.765-.821-1.643-.896-2.632l3.052-.14c.149.821.504 1.475 1.064 1.96s1.409.728 2.548.728c.933 0 1.671-.149 2.212-.448s.812-.775.812-1.428c0-.355-.093-.653-.28-.896-.168-.261-.504-.476-1.008-.644-.504-.187-1.251-.364-2.24-.532-1.475-.28-2.632-.607-3.472-.98s-1.437-.849-1.792-1.428-.532-1.279-.532-2.1c0-1.363.504-2.473 1.512-3.332 1.027-.859 2.501-1.288 4.424-1.288 1.288 0 2.371.224 3.248.672.877.429 1.559 1.017 2.044 1.764.504.728.821 1.549.952 2.464l-3.052.168c-.093-.523-.28-.971-.56-1.344-.261-.392-.616-.691-1.064-.896-.448-.224-.98-.336-1.596-.336-.952 0-1.661.187-2.128.56s-.7.859-.7 1.456c0 .448.103.812.308 1.092.224.28.579.513 1.064.7.485.168 1.129.317 1.932.448 1.549.261 2.763.588 3.64.98.877.373 1.493.84 1.848 1.4s.532 1.241.532 2.044c0 .933-.261 1.727-.784 2.38s-1.241 1.157-2.156 1.512c-.915.336-1.969.504-3.164.504zm15.239 0c-1.455 0-2.715-.317-3.779-.952-1.046-.635-1.858-1.54-2.436-2.716-.56-1.176-.84-2.548-.84-4.116s.28-2.931.84-4.088c.578-1.176 1.39-2.081 2.436-2.716 1.045-.653 2.277-.98 3.696-.98 1.344 0 2.529.317 3.556.952 1.026.616 1.82 1.512 2.38 2.688.578 1.176.868 2.595.868 4.256v.756h-10.696c.074 1.456.457 2.548 1.148 3.276.709.728 1.661 1.092 2.856 1.092.877 0 1.605-.205 2.184-.616.578-.411.98-.961 1.204-1.652l3.08.196c-.392 1.381-1.167 2.501-2.324 3.36-1.139.84-2.53 1.26-4.173 1.26zm-3.975-9.156h7.56c-.094-1.325-.476-2.305-1.148-2.94-.654-.635-1.494-.952-2.52-.952-1.064 0-1.942.336-2.632 1.008-.672.653-1.092 1.615-1.26 2.884z" fill="#fff"/><path d="m88.5 145.906c-.6321 0-1.1562-.524-1.1562-1.156v-4.625c0-.632.5241-1.156 1.1562-1.156s1.1562.524 1.1562 1.156v4.625c0 .632-.5241 1.156-1.1562 1.156z" fill="#a3a3a3"/><path d="m97.1356 151.779h-17.2667c-2.8058 0-5.365-2.158-5.8275-4.917l-2.0504-12.288c-.3392-1.911.6013-4.362 2.1275-5.58l10.6838-8.557c2.0658-1.665 5.3187-1.649 7.4.016l10.6837 8.541c1.511 1.218 2.436 3.669 2.128 5.58l-2.051 12.272c-.462 2.729-3.0832 4.933-5.8274 4.933zm-8.6488-30.262c-.817 0-1.6341.246-2.2354.724l-10.6837 8.572c-.8634.694-1.48 2.297-1.295 3.391l2.0504 12.272c.2775 1.619 1.8962 2.991 3.5458 2.991h17.2667c1.6496 0 3.2684-1.372 3.5454-3.006l2.051-12.272c.169-1.079-.447-2.713-1.295-3.392l-10.6839-8.54c-.6167-.494-1.4492-.74-2.2663-.74z" fill="#a3a3a3"/></g><g filter="url(#d)"><path d="m393.089 160.116c-1.418-.604-2.909.693-2.51 2.181l8.064 30.094c.497 1.857 3.079 1.996 3.773.202l4.759-12.304c.142-.367.369-.695.661-.958.293-.263.644-.453 1.024-.555l11.7-3.135c1.825-.489 2.001-3.01.26-3.75z" fill="#ff5f0d"/></g></svg>