<svg fill="none" height="314" viewBox="0 0 398 314" width="398" xmlns="http://www.w3.org/2000/svg" xmlns:xlink="http://www.w3.org/1999/xlink"><filter id="a" color-interpolation-filters="sRGB" filterUnits="userSpaceOnUse" height="276" width="263" x="177" y="-100"><feFlood flood-opacity="0" result="BackgroundImageFix"/><feBlend in="SourceGraphic" in2="BackgroundImageFix" mode="normal" result="shape"/><feGaussianBlur result="effect1_foregroundBlur_698_5707" stdDeviation="50"/></filter><filter id="b" color-interpolation-filters="sRGB" filterUnits="userSpaceOnUse" height="276" width="263" x="-42" y="76"><feFlood flood-opacity="0" result="BackgroundImageFix"/><feBlend in="SourceGraphic" in2="BackgroundImageFix" mode="normal" result="shape"/><feGaussianBlur result="effect1_foregroundBlur_698_5707" stdDeviation="50"/></filter><filter id="c" color-interpolation-filters="sRGB" filterUnits="userSpaceOnUse" height="50.5283" width="49.5293" x="189" y="222"><feFlood flood-opacity="0" result="BackgroundImageFix"/><feBlend in="SourceGraphic" in2="BackgroundImageFix" mode="normal" result="shape"/><feColorMatrix in="SourceAlpha" result="hardAlpha" type="matrix" values="0 0 0 0 0 0 0 0 0 0 0 0 0 0 0 0 0 0 127 0"/><feOffset dx="3" dy="4"/><feGaussianBlur stdDeviation="4"/><feComposite in2="hardAlpha" k2="-1" k3="1" operator="arithmetic"/><feColorMatrix type="matrix" values="0 0 0 0 1 0 0 0 0 1 0 0 0 0 1 0 0 0 0.3 0"/><feBlend in2="shape" mode="normal" result="effect1_innerShadow_698_5707"/></filter><linearGradient id="d" gradientUnits="userSpaceOnUse" x1="293" x2="325" y1="137.5" y2="137.5"><stop offset="0" stop-color="#ff5f0d"/><stop offset="1" stop-color="#fb923c"/></linearGradient><linearGradient id="e" gradientUnits="userSpaceOnUse" x1="309" x2="213.221" y1="160.884" y2="225.567"><stop offset="0" stop-color="#ff5f0d"/><stop offset=".457635" stop-color="#fed9c6"/><stop offset="1" stop-color="#ff8546"/></linearGradient><clipPath id="f"><path d="m219 0h179v138h-179z"/></clipPath><clipPath id="g"><path d="m0 176h179v138h-179z"/></clipPath><g clip-path="url(#f)"><rect fill="#1f1f1f" height="138" rx="14" width="179" x="219"/><path d="m240.998 117v-18.1818h6.658c1.29 0 2.358.213 3.205.6392.846.4202 1.479.9916 1.9 1.7136.42.716.63 1.524.63 2.423 0 .758-.139 1.397-.417 1.918-.278.515-.651.929-1.119 1.243-.462.308-.971.533-1.527.675v.177c.604.03 1.193.225 1.767.586.58.355 1.059.861 1.438 1.518s.568 1.456.568 2.397c0 .93-.219 1.764-.657 2.504-.432.734-1.101 1.317-2.006 1.749-.906.426-2.063.639-3.471.639zm2.743-2.353h3.959c1.314 0 2.255-.254 2.823-.763.569-.509.853-1.145.853-1.909 0-.574-.145-1.101-.435-1.58-.29-.48-.705-.861-1.243-1.145-.533-.284-1.166-.426-1.9-.426h-4.057zm0-7.963h3.675c.616 0 1.169-.118 1.66-.355.498-.237.891-.568 1.181-.994.296-.433.444-.942.444-1.527 0-.752-.263-1.382-.79-1.891s-1.335-.764-2.424-.764h-3.746zm22.039 4.661v-7.981h2.663v13.636h-2.61v-2.362h-.142c-.313.728-.817 1.335-1.509 1.82-.687.48-1.542.72-2.566.72-.876 0-1.651-.193-2.326-.578-.668-.39-1.195-.967-1.58-1.731-.379-.763-.568-1.707-.568-2.832v-8.673h2.654v8.354c0 .929.258 1.669.773 2.219.515.551 1.183.826 2.006.826.497 0 .991-.125 1.483-.373.497-.249.908-.624 1.234-1.128.331-.503.494-1.142.488-1.917zm7.908 10.769c-.397 0-.758-.033-1.083-.098-.326-.059-.568-.124-.728-.195l.639-2.175c.485.13.917.186 1.296.168.379-.017.713-.16 1.003-.426.296-.266.557-.701.782-1.305l.328-.905-4.989-13.814h2.841l3.453 10.582h.142l3.454-10.582h2.85l-5.62 15.456c-.261.71-.592 1.311-.994 1.802-.403.497-.882.87-1.439 1.119-.556.248-1.201.373-1.935.373zm17.895-4.839c-1.343 0-2.5-.287-3.471-.861-.965-.58-1.71-1.394-2.237-2.441-.521-1.054-.781-2.288-.781-3.702 0-1.397.26-2.628.781-3.694.527-1.065 1.261-1.896 2.202-2.494.947-.598 2.053-.897 3.32-.897.769 0 1.515.127 2.237.382.722.254 1.37.654 1.944 1.198.575.545 1.027 1.252 1.359 2.122.331.864.497 1.915.497 3.152v.941h-10.84v-1.989h8.239c0-.698-.142-1.317-.426-1.855-.284-.545-.684-.974-1.199-1.288-.509-.313-1.107-.47-1.793-.47-.746 0-1.397.183-1.953.55-.551.361-.977.835-1.279 1.421-.296.58-.444 1.21-.444 1.891v1.553c0 .912.16 1.687.48 2.326.325.64.778 1.128 1.358 1.465.58.332 1.258.497 2.033.497.503 0 .962-.071 1.376-.213.414-.148.773-.367 1.074-.657.302-.29.533-.648.693-1.074l2.512.453c-.201.74-.562 1.388-1.083 1.944-.515.551-1.163.98-1.944 1.287-.775.302-1.66.453-2.655.453zm8.796-.275v-13.636h2.566v2.166h.142c.248-.734.686-1.311 1.314-1.731.633-.426 1.349-.64 2.148-.64.166 0 .361.006.586.018.231.012.412.027.542.045v2.539c-.107-.03-.296-.062-.568-.098-.273-.041-.545-.062-.817-.062-.628 0-1.187.133-1.678.399-.485.261-.87.625-1.154 1.092-.284.462-.426.989-.426 1.581v8.327z" fill="#fff"/><g filter="url(#a)"><ellipse cx="308.5" cy="38" fill="#fff" fill-opacity=".45" rx="31.5" ry="38"/></g><g fill="#a3a3a3"><path d="m257.75 38.9219c-4.953 0-8.984-4.0313-8.984-8.9844s4.031-8.9844 8.984-8.9844 8.984 4.0313 8.984 8.9844-4.031 8.9844-8.984 8.9844zm0-15.625c-3.656 0-6.641 2.9843-6.641 6.6406s2.985 6.6406 6.641 6.6406 6.641-2.9843 6.641-6.6406-2.985-6.6406-6.641-6.6406z"/><path d="m244.328 54.5469c-.64 0-1.172-.5313-1.172-1.1719 0-6.6719 6.547-12.1094 14.594-12.1094 1.578 0 3.125.2032 4.625.6251.625.1718.984.8124.813 1.4374-.172.625-.813.9844-1.438.8126-1.281-.3594-2.625-.5313-4-.5313-6.75 0-12.25 4.375-12.25 9.7656 0 .6406-.531 1.1719-1.172 1.1719z"/><path d="m267.125 54.5469c-2.594 0-5.031-1.375-6.344-3.6094-.703-1.125-1.078-2.4531-1.078-3.8125 0-2.2812 1.016-4.3907 2.781-5.7969 1.313-1.0469 2.969-1.625 4.641-1.625 4.094 0 7.422 3.3282 7.422 7.4219 0 1.3594-.375 2.6875-1.078 3.8281-.391.6563-.891 1.25-1.485 1.75-1.297 1.1875-3.031 1.8438-4.859 1.8438zm0-12.5c-1.156 0-2.25.3906-3.172 1.1249-1.203.9532-1.906 2.4063-1.906 3.9532 0 .9219.25 1.8281.734 2.6093.907 1.5313 2.578 2.4688 4.344 2.4688 1.234 0 2.422-.4531 3.328-1.2656.406-.3437.75-.75 1-1.1875.5-.7969.75-1.7031.75-2.625 0-2.7969-2.281-5.0781-5.078-5.0781z"/><path d="m266.232 49.8437c-.296 0-.593-.1093-.828-.3437l-1.547-1.5469c-.453-.4531-.453-1.2032 0-1.6563.454-.4531 1.204-.4531 1.657 0l.75.75 2.5-2.3125c.468-.4375 1.218-.4062 1.656.0625.437.4688.406 1.2188-.063 1.6563l-3.328 3.0781c-.234.2031-.515.3125-.797.3125z"/></g></g><g clip-path="url(#g)"><rect fill="#1f1f1f" height="138" rx="14" width="179" y="176"/><path d="m38.5 223.906c-.6321 0-1.1562-.524-1.1562-1.156v-4.625c0-.632.5241-1.156 1.1562-1.156s1.1562.524 1.1562 1.156v4.625c0 .632-.5241 1.156-1.1562 1.156z" fill="#ff5f0d"/><path d="m47.1356 229.779h-17.2667c-2.8058 0-5.365-2.158-5.8275-4.917l-2.0504-12.288c-.3392-1.911.6013-4.362 2.1275-5.58l10.6838-8.557c2.0658-1.665 5.3187-1.649 7.4.016l10.6837 8.541c1.5108 1.218 2.4358 3.669 2.1275 5.58l-2.0504 12.272c-.4625 2.729-3.0833 4.933-5.8275 4.933zm-8.6488-30.262c-.817 0-1.6341.246-2.2354.724l-10.6837 8.572c-.8634.694-1.48 2.297-1.295 3.391l2.0504 12.272c.2775 1.619 1.8962 2.991 3.5458 2.991h17.2667c1.6496 0 3.2683-1.372 3.5458-3.006l2.0504-12.272c.1696-1.079-.447-2.713-1.295-3.392l-10.6837-8.54c-.6167-.494-1.4492-.74-2.2663-.74z" fill="#ff5f0d"/><path d="m31.9141 279.594c-.0947-.84-.4854-1.491-1.1719-1.953-.6866-.467-1.5507-.701-2.5923-.701-.7458 0-1.3909.118-1.9354.355-.5445.231-.9677.551-1.2695.959-.296.402-.4439.861-.4439 1.376 0 .432.1006.805.3018 1.119.2072.313.4765.577.8079.79.3374.207.6984.381 1.0831.523.3847.137.7546.249 1.1097.338l1.7756.462c.58.142 1.1748.334 1.7844.577.6096.242 1.1749.562 1.6957.958.5208.397.9411.888 1.2607 1.474.3255.586.4882 1.287.4882 2.104 0 1.03-.2663 1.944-.799 2.743-.5267.799-1.2932 1.43-2.2993 1.891-1.0003.462-2.2106.693-3.6311.693-1.3612 0-2.539-.216-3.5333-.648-.9944-.432-1.7727-1.045-2.3349-1.838-.5623-.799-.873-1.746-.9322-2.841h2.7521c.0533.657.2664 1.205.6392 1.643.3788.432.8612.754 1.4471.967.5919.207 1.24.311 1.9443.311.7753 0 1.4648-.121 2.0685-.364.6096-.249 1.089-.592 1.4382-1.03.3492-.444.5238-.962.5238-1.553 0-.539-.1539-.98-.4616-1.323-.3019-.344-.7132-.628-1.234-.853-.515-.224-1.0979-.423-1.749-.594l-2.1484-.586c-1.456-.397-2.6101-.98-3.4624-1.749-.8463-.77-1.2695-1.788-1.2695-3.054 0-1.048.2841-1.962.8523-2.743.5681-.782 1.3376-1.388 2.3082-1.82.9706-.438 2.0656-.657 3.2848-.657 1.2311 0 2.3171.216 3.2582.648.9469.432 1.6927 1.027 2.2372 1.784.5445.752.8286 1.616.8523 2.592zm11.8363 13.681c-1.3435 0-2.5005-.287-3.4712-.861-.9647-.58-1.7105-1.394-2.2372-2.441-.5208-1.054-.7813-2.288-.7813-3.702 0-1.397.2605-2.628.7813-3.694.5267-1.065 1.2606-1.896 2.2017-2.494.947-.598 2.0537-.897 3.3203-.897.7694 0 1.5152.127 2.2372.382.7221.254 1.3702.654 1.9443 1.198.5741.545 1.0268 1.252 1.3583 2.122.3314.864.4971 1.915.4971 3.152v.941h-10.8398v-1.989h8.2386c0-.698-.142-1.317-.4261-1.855-.2841-.545-.6836-.974-1.1985-1.288-.509-.313-1.1068-.47-1.7933-.47-.7458 0-1.3968.183-1.9532.55-.5504.361-.9765.835-1.2784 1.421-.2959.58-.4439 1.21-.4439 1.891v1.553c0 .912.1598 1.687.4794 2.326.3256.64.7783 1.128 1.3584 1.465.58.332 1.2576.497 2.033.497.5031 0 .9617-.071 1.376-.213.4143-.148.7724-.367 1.0743-.657.3018-.29.5326-.648.6924-1.074l2.5125.453c-.2013.74-.5623 1.388-1.0831 1.944-.5149.551-1.163.98-1.9443 1.287-.7753.302-1.6601.453-2.6545.453zm11.4502-18.457v18.182h-2.6544v-18.182zm6.2256 0v18.182h-2.6544v-18.182zm9.4483 18.457c-1.3435 0-2.5006-.287-3.4713-.861-.9647-.58-1.7104-1.394-2.2372-2.441-.5208-1.054-.7812-2.288-.7812-3.702 0-1.397.2604-2.628.7812-3.694.5268-1.065 1.2607-1.896 2.2017-2.494.947-.598 2.0538-.897 3.3203-.897.7694 0 1.5152.127 2.2372.382.7221.254 1.3702.654 1.9443 1.198.5741.545 1.0269 1.252 1.3583 2.122.3314.864.4972 1.915.4972 3.152v.941h-10.8399v-1.989h8.2387c0-.698-.1421-1.317-.4262-1.855-.2841-.545-.6836-.974-1.1985-1.288-.509-.313-1.1068-.47-1.7933-.47-.7458 0-1.3968.183-1.9531.55-.5505.361-.9766.835-1.2784 1.421-.296.58-.4439 1.21-.4439 1.891v1.553c0 .912.1598 1.687.4794 2.326.3255.64.7783 1.128 1.3583 1.465.58.332 1.2577.497 2.033.497.5031 0 .9618-.071 1.3761-.213.4143-.148.7723-.367 1.0742-.657.3018-.29.5327-.648.6925-1.074l2.5124.453c-.2012.74-.5623 1.388-1.0831 1.944-.5149.551-1.163.98-1.9443 1.287-.7753.302-1.6601.453-2.6544.453zm8.7957-.275v-13.636h2.5657v2.166h.142c.2486-.734.6866-1.311 1.314-1.731.6332-.426 1.3494-.64 2.1484-.64.1657 0 .361.006.5859.018.2308.012.4114.027.5416.045v2.539c-.1066-.03-.296-.062-.5682-.098-.2723-.041-.5445-.062-.8168-.062-.6273 0-1.1866.133-1.6779.399-.4853.261-.87.625-1.1541 1.092-.2841.462-.4261.989-.4261 1.581v8.327z" fill="#fff"/><g filter="url(#b)"><ellipse cx="89.5" cy="214" fill="#fff" fill-opacity=".45" rx="31.5" ry="38"/></g></g><rect fill="#fff" fill-opacity=".05" height="31" rx="15.5" width="32" x="293" y="122"/><rect height="29.5" rx="14.75" stroke="url(#d)" stroke-opacity=".8" stroke-width="1.5" width="30.5" x="293.75" y="122.75"/><path d="m307.598 139.044h-2.53c-.23 0-.397-.1-.5-.3-.104-.201-.089-.393.045-.577l4.772-6.9c.087-.122.194-.202.322-.241.128-.04.264-.034.407.018s.246.138.309.257c.064.12.087.251.07.392l-.596 4.812h3.04c.237 0 .405.108.504.325.1.216.073.416-.08.6l-5.31 6.349c-.091.107-.2.176-.327.206-.129.029-.255.016-.38-.04-.125-.055-.221-.139-.287-.251-.065-.112-.089-.239-.072-.381z" fill="#fff" fill-opacity=".65"/><circle cx="309" cy="161" fill="#ff5f0d" r="3"/><path d="m309 169v42c0 19.882-16.118 36-36 36h-45" stroke="url(#e)" stroke-dasharray="4 4" stroke-linecap="round" stroke-linejoin="round" stroke-width="1.5"/><g filter="url(#c)"><path d="m196.137 244.076c-1.217.491-1.334 2.168-.198 2.825l22.975 13.264c1.418.819 3.056-.652 2.395-2.15l-4.544-10.274c-.135-.306-.197-.641-.179-.975.018-.335.115-.66.283-.95l5.157-8.933c.804-1.393-.608-3.017-2.101-2.415z" fill="#ff5f0d"/></g></svg>