<svg fill="none" height="424" viewBox="0 0 460 424" width="460" xmlns="http://www.w3.org/2000/svg" xmlns:xlink="http://www.w3.org/1999/xlink"><filter id="a" color-interpolation-filters="sRGB" filterUnits="userSpaceOnUse" height="10" width="10" x="329" y="335"><feFlood flood-opacity="0" result="BackgroundImageFix"/><feBlend in="SourceGraphic" in2="BackgroundImageFix" mode="normal" result="shape"/><feGaussianBlur result="effect1_foregroundBlur_714_140" stdDeviation="1"/></filter><filter id="b" color-interpolation-filters="sRGB" filterUnits="userSpaceOnUse" height="8" width="8" x="152" y="224"><feFlood flood-opacity="0" result="BackgroundImageFix"/><feBlend in="SourceGraphic" in2="BackgroundImageFix" mode="normal" result="shape"/><feGaussianBlur result="effect1_foregroundBlur_714_140" stdDeviation=".5"/></filter><filter id="c" color-interpolation-filters="sRGB" filterUnits="userSpaceOnUse" height="12" width="12" x="225" y="86"><feFlood flood-opacity="0" result="BackgroundImageFix"/><feBlend in="SourceGraphic" in2="BackgroundImageFix" mode="normal" result="shape"/><feGaussianBlur result="effect1_foregroundBlur_714_140" stdDeviation="1.5"/></filter><filter id="d" color-interpolation-filters="sRGB" filterUnits="userSpaceOnUse" height="252.8" width="252.8" x="85.6" y="85.6"><feFlood flood-opacity="0" result="BackgroundImageFix"/><feBlend in="SourceGraphic" in2="BackgroundImageFix" mode="normal" result="shape"/><feGaussianBlur result="effect1_foregroundBlur_714_140" stdDeviation="44.2"/></filter><filter id="e" color-interpolation-filters="sRGB" filterUnits="userSpaceOnUse" height="655.8" width="655.8" x="-115.9" y="-114.9"><feFlood flood-opacity="0" result="BackgroundImageFix"/><feBlend in="SourceGraphic" in2="BackgroundImageFix" mode="normal" result="shape"/><feGaussianBlur result="effect1_foregroundBlur_714_140" stdDeviation="114.45"/></filter><linearGradient id="f"><stop offset="0" stop-color="#fb923c"/><stop offset="1" stop-color="#ff5f0d"/></linearGradient><linearGradient id="g" gradientUnits="userSpaceOnUse" x1="127.75" x2="127.75" xlink:href="#f" y1="133.751" y2="53.751"/><linearGradient id="h" gradientUnits="userSpaceOnUse" x1="280.444" x2="280.444" xlink:href="#f" y1="245.923" y2="177.812"/><linearGradient id="i" gradientUnits="userSpaceOnUse" x1="194.577" x2="194.577" xlink:href="#f" y1="388.756" y2="339.646"/><linearGradient id="j" gradientUnits="userSpaceOnUse" x1="460" x2="388" xlink:href="#f" y1="213" y2="213"/><clipPath id="k"><path d="m0 0h424v424h-424z"/></clipPath><g clip-path="url(#k)"><rect fill="#1f1f1f" fill-opacity=".66" height="424" rx="22" width="424"/><g filter="url(#a)"><circle cx="334" cy="340" fill="#ff5f0d" r="3"/></g><g filter="url(#b)"><circle cx="156" cy="228" fill="#ff5f0d" r="3"/></g><g filter="url(#c)"><circle cx="231" cy="92" fill="#ff5f0d" r="3"/></g><g fill="#fff" fill-opacity=".01" stroke="#f97316" stroke-width="1.5"><circle cx="212" cy="212" r="148.25"/><circle cx="212" cy="212" r="81.25"/><circle cx="211.5" cy="211.5" r="18.75"/></g><g filter="url(#d)"><circle cx="212" cy="212" fill="#f97316" fill-opacity=".73" r="38"/></g><g filter="url(#e)"><circle cx="212" cy="213" fill="#f97316" fill-opacity=".53" r="99"/></g><g opacity=".53"><rect fill="url(#g)" height="80" rx="40" transform="matrix(.96592583 .25881905 -.25881905 .96592583 16.867717 -20.621031)" width="82" x="86.75" y="53.751"/><path d="m109.161 123.708 11.058-41.2716 2.644.7085-11.058 41.2711zm14.421-25.7697c.219-1.335-.063-2.4936-.848-3.4758-.786-.9822-2.016-1.6979-3.693-2.1471-1.139-.3053-2.144-.4018-3.015-.2896-.869.1014-1.587.3754-2.156.822-.558.4495-.932 1.0289-1.122 1.7382-.18.5854-.195 1.1344-.044 1.647.161.5156.44.9994.838 1.4514.4.4413.885.8651 1.456 1.2714.574.3957 1.199.7705 1.876 1.1252l2.776 1.504c1.354.708 2.561 1.492 3.621 2.352 1.059.86 1.925 1.8 2.596 2.821s1.106 2.128 1.304 3.322c.21 1.196.135 2.484-.223 3.862-.552 2.018-1.537 3.632-2.956 4.841-1.404 1.202-3.173 1.955-5.305 2.259-2.118.297-4.521.085-7.208-.635-2.665-.714-4.877-1.745-6.636-3.092-1.748-1.343-2.961-2.964-3.639-4.862-.664-1.906-.705-4.054-.122-6.444l6.755 1.81c-.222 1.127-.152 2.137.208 3.028.374.883.983 1.64 1.828 2.27.859.621 1.89 1.093 3.094 1.416 1.182.317 2.255.42 3.217.309.974-.108 1.784-.403 2.432-.886s1.078-1.122 1.292-1.918c.198-.741.145-1.424-.16-2.047-.295-.62-.814-1.22-1.557-1.799-.733-.577-1.662-1.171-2.788-1.784l-3.353-1.866c-2.602-1.423-4.517-3.071-5.743-4.9429-1.226-1.8722-1.507-4.0267-.843-6.4635.525-2.002 1.525-3.606 3-4.8119 1.486-1.2031 3.287-1.9704 5.403-2.3018 2.117-.3315 4.379-.1747 6.786.4704 2.451.6566 4.477 1.6489 6.08 2.9768 1.613 1.3307 2.73 2.8799 3.35 4.6474.621 1.7675.684 3.639.189 5.6145z" fill="#fff"/></g><rect fill="url(#h)" height="68.111" rx="34.0555" transform="matrix(.96592583 -.25881905 .25881905 .96592583 -37.654662 69.608449)" width="69.8138" x="245.537" y="177.812"/><path d="m291.886 220.037-9.647-36.003 2.307-.618 9.647 36.003zm-.345-25.758c-.416-1.105-1.135-1.857-2.157-2.256-1.021-.4-2.263-.404-3.726-.012-.994.267-1.795.632-2.404 1.097-.612.455-1.035.975-1.27 1.561-.226.583-.256 1.184-.09 1.803.12.52.348.941.685 1.263.347.319.769.563 1.266.731.495.159 1.047.267 1.655.325.606.049 1.242.059 1.908.032l2.753-.075c1.332-.055 2.586.011 3.762.198 1.175.188 2.239.521 3.191.999.953.478 1.764 1.125 2.435 1.94.68.813 1.185 1.818 1.516 3.016.463 1.765.422 3.414-.122 4.946-.537 1.521-1.544 2.861-3.022 4.021-1.471 1.148-3.379 2.035-5.723 2.664-2.325.623-4.446.809-6.362.559-1.906-.253-3.53-.949-4.87-2.087-1.333-1.15-2.3-2.755-2.903-4.814l5.893-1.579c.324.948.817 1.68 1.478 2.196.668.505 1.458.811 2.371.918.92.095 1.905.002 2.955-.28 1.031-.276 1.886-.666 2.566-1.169.688-.506 1.171-1.083 1.45-1.731.279-.647.325-1.318.139-2.012-.173-.647-.511-1.139-1.013-1.476-.493-.341-1.147-.567-1.961-.681-.805-.116-1.766-.16-2.884-.131l-3.348.052c-2.586.06-4.751-.349-6.494-1.229s-2.895-2.385-3.456-4.515c-.476-1.742-.421-3.39.168-4.944.598-1.557 1.624-2.922 3.078-4.096 1.454-1.173 3.231-2.041 5.331-2.604 2.138-.573 4.102-.707 5.891-.403 1.8.302 3.319.985 4.559 2.05 1.24 1.064 2.104 2.45 2.592 4.159z" fill="#fff"/><g opacity=".74"><rect fill="url(#i)" height="49.1102" rx="24.5551" transform="matrix(.96592583 -.25881905 .25881905 .96592583 -82.134416 55.419174)" width="50.338" x="169.408" y="339.646"/><path d="m202.347 369.229-6.588-24.588 1.575-.422 6.588 24.588zm-.236-17.591c-.284-.754-.775-1.268-1.473-1.541-.697-.273-1.545-.275-2.544-.008-.679.182-1.226.432-1.642.749-.418.311-.707.666-.867 1.066-.155.398-.175.809-.062 1.231.082.356.238.644.468.863.237.218.525.385.865.499.338.109.714.183 1.13.223.414.033.848.04 1.303.021l1.88-.051c.91-.038 1.766.007 2.569.135s1.529.356 2.179.682c.651.327 1.205.769 1.663 1.326.464.555.809 1.241 1.035 2.059.317 1.205.289 2.331-.083 3.378-.366 1.038-1.055 1.954-2.064 2.746-1.004.784-2.307 1.39-3.908 1.819-1.588.425-3.036.553-4.345.382-1.302-.173-2.41-.648-3.325-1.425-.911-.786-1.572-1.882-1.983-3.288l4.024-1.078c.222.647.558 1.147 1.01 1.5.456.344.995.553 1.619.626.628.065 1.301.001 2.018-.191.704-.188 1.288-.455 1.752-.799.47-.345.8-.739.991-1.181.19-.442.222-.9.095-1.374-.119-.442-.349-.778-.693-1.009-.336-.232-.783-.387-1.339-.464-.549-.08-1.206-.11-1.969-.09l-2.286.036c-1.767.041-3.245-.239-4.435-.84-1.191-.6-1.977-1.628-2.361-3.083-.325-1.19-.287-2.315.115-3.377.408-1.063 1.109-1.995 2.102-2.797.993-.801 2.207-1.394 3.641-1.778 1.46-.391 2.801-.483 4.023-.275 1.229.206 2.267.672 3.113 1.399.847.727 1.437 1.674 1.77 2.841z" fill="#fff"/></g></g><rect fill="#21201f" height="70" rx="35" width="70" x="389" y="178"/><rect height="70" rx="35" stroke="url(#j)" stroke-width="2" width="70" x="389" y="178"/><g fill="#a3a3a3"><path d="m424 223.406c-.632 0-1.156-.524-1.156-1.156v-4.625c0-.632.524-1.156 1.156-1.156s1.156.524 1.156 1.156v4.625c0 .632-.524 1.156-1.156 1.156z"/><path d="m432.636 229.279h-17.267c-2.806 0-5.365-2.158-5.828-4.917l-2.05-12.288c-.339-1.911.601-4.362 2.128-5.58l10.683-8.557c2.066-1.665 5.319-1.649 7.4.016l10.684 8.541c1.511 1.218 2.436 3.669 2.128 5.58l-2.051 12.272c-.462 2.729-3.083 4.933-5.827 4.933zm-8.649-30.262c-.817 0-1.634.246-2.236.724l-10.683 8.572c-.864.694-1.48 2.297-1.295 3.391l2.05 12.272c.278 1.619 1.896 2.991 3.546 2.991h17.267c1.649 0 3.268-1.372 3.545-3.006l2.051-12.272c.169-1.079-.447-2.713-1.295-3.392l-10.684-8.54c-.617-.494-1.449-.74-2.266-.74z"/></g></svg>