<svg fill="none" height="134" viewBox="0 0 134 134" width="134" xmlns="http://www.w3.org/2000/svg" xmlns:xlink="http://www.w3.org/1999/xlink"><filter id="a" color-interpolation-filters="sRGB" filterUnits="userSpaceOnUse" height="139" width="134" x="0" y="0"><feFlood flood-opacity="0" result="BackgroundImageFix"/><feBlend in="SourceGraphic" in2="BackgroundImageFix" mode="normal" result="shape"/><feColorMatrix in="SourceAlpha" result="hardAlpha" type="matrix" values="0 0 0 0 0 0 0 0 0 0 0 0 0 0 0 0 0 0 127 0"/><feMorphology in="SourceAlpha" operator="erode" radius="2" result="effect1_innerShadow_698_5751"/><feOffset dy="5"/><feGaussianBlur stdDeviation="17.75"/><feComposite in2="hardAlpha" k2="-1" k3="1" operator="arithmetic"/><feColorMatrix type="matrix" values="0 0 0 0 1 0 0 0 0 1 0 0 0 0 1 0 0 0 0.06 0"/><feBlend in2="shape" mode="normal" result="effect1_innerShadow_698_5751"/></filter><filter id="b" color-interpolation-filters="sRGB" filterUnits="userSpaceOnUse" height="100" width="116" x="12.5" y="20.5"><feFlood flood-opacity="0" result="BackgroundImageFix"/><feColorMatrix in="SourceAlpha" result="hardAlpha" type="matrix" values="0 0 0 0 0 0 0 0 0 0 0 0 0 0 0 0 0 0 127 0"/><feOffset dx="4" dy="4"/><feGaussianBlur stdDeviation="12.75"/><feComposite in2="hardAlpha" operator="out"/><feColorMatrix type="matrix" values="0 0 0 0 0.984314 0 0 0 0 0.572549 0 0 0 0 0.235294 0 0 0 0.69 0"/><feBlend in2="BackgroundImageFix" mode="normal" result="effect1_dropShadow_698_5751"/><feBlend in="SourceGraphic" in2="effect1_dropShadow_698_5751" mode="normal" result="shape"/></filter><linearGradient id="c" gradientUnits="userSpaceOnUse" x1="66.5" x2="66.5" y1="42" y2="91"><stop offset="0" stop-color="#fb923c"/><stop offset="1" stop-color="#ff5f0d"/></linearGradient><g filter="url(#a)"><circle cx="67" cy="67" fill="#222" r="67"/></g><g filter="url(#b)"><path d="m51.9935 42.8167c.4257-.3218.9102-.5559 1.4257-.6889.5155-.1331 1.052-.1626 1.5789-.0868.5268.0759 1.0336.2555 1.4916.5288.4579.2732.8579.6346 1.1772 1.0636s.5516.9172.6837 1.4367c.1321.5194.1613 1.06.0861 1.5909-.0753.5309-.2536 1.0416-.5247 1.503-.2712.4615-.6298.8646-1.0556 1.1863-6.338 4.79-9.969 9.4492-12.0479 13.5164 2.8544-.7404 5.8668-.5663 8.6186.498 2.7517 1.0643 5.106 2.9661 6.7357 5.4409 1.6296 2.4748 2.4537 5.3997 2.3575 8.3682-.0961 2.9685-1.1076 5.8331-2.8939 8.1956-1.7862 2.3625-4.2586 4.1055-7.0733 4.9869-2.8147.8813-5.832.8571-8.6325-.0692-2.8004-.9263-5.2449-2.7088-6.9937-5.0996s-2.715-5.2712-2.7642-8.2409c-.5135-5.0147.193-10.08 2.0586-14.7578 2.4193-6.1497 7.1485-12.8548 15.7722-19.3721zm36.4721 0c.4257-.3218.9102-.5559 1.4257-.6889.5155-.1331 1.052-.1626 1.5789-.0868.5268.0759 1.0336.2555 1.4916.5288.4579.2732.8579.6346 1.1772 1.0636s.5517.9172.6837 1.4367c.1321.5194.1614 1.06.0861 1.5909s-.2536 1.0416-.5247 1.503c-.2711.4615-.6298.8646-1.0556 1.1863-6.338 4.79-9.969 9.4492-12.0479 13.5164 2.8544-.7404 5.8668-.5663 8.6186.498 2.7517 1.0643 5.106 2.9661 6.7357 5.4409 1.6296 2.4748 2.4537 5.3997 2.3576 8.3682-.0962 2.9685-1.1077 5.8331-2.8939 8.1956-1.7863 2.3625-4.2587 4.1055-7.0734 4.9869-2.8147.8813-5.832.8571-8.6325-.0692-2.8004-.9263-5.2449-2.7088-6.9937-5.0996s-2.715-5.2712-2.7642-8.2409c-.5135-5.0147.1931-10.08 2.0586-14.7578 2.4234-6.1497 7.1486-12.8548 15.7722-19.3721z" fill="url(#c)"/></g></svg>