<?xml version="1.0" encoding="utf-8"?>
<!-- Generator: Adobe Illustrator 16.0.0, SVG Export Plug-In . SVG Version: 6.00 Build 0)  -->
<!DOCTYPE svg PUBLIC "-//W3C//DTD SVG 1.1//EN" "http://www.w3.org/Graphics/SVG/1.1/DTD/svg11.dtd" [
	<!ENTITY ns_extend "http://ns.adobe.com/Extensibility/1.0/">
	<!ENTITY ns_ai "http://ns.adobe.com/AdobeIllustrator/10.0/">
	<!ENTITY ns_graphs "http://ns.adobe.com/Graphs/1.0/">
	<!ENTITY ns_vars "http://ns.adobe.com/Variables/1.0/">
	<!ENTITY ns_imrep "http://ns.adobe.com/ImageReplacement/1.0/">
	<!ENTITY ns_sfw "http://ns.adobe.com/SaveForWeb/1.0/">
	<!ENTITY ns_custom "http://ns.adobe.com/GenericCustomNamespace/1.0/">
	<!ENTITY ns_adobe_xpath "http://ns.adobe.com/XPath/1.0/">
]>
<svg version="1.1" id="Layer_1" xmlns:x="&ns_extend;" xmlns:i="&ns_ai;" xmlns:graph="&ns_graphs;"
	 xmlns="http://www.w3.org/2000/svg" xmlns:xlink="http://www.w3.org/1999/xlink" x="0px" y="0px" width="600px"
	 height="263.8964844px" viewBox="-49.9997559 118.0515137 600 263.8964844"
	 enable-background="new -49.9997559 118.0515137 600 263.8964844" xml:space="preserve">
<metadata>
	<sfw  xmlns="&ns_sfw;">
		<slices></slices>
		<sliceSourceBounds  height="600" width="600" y="-19.5" x="179.5" bottomLeftOrigin="true"></sliceSourceBounds>
	</sfw>
</metadata>
<rect x="-49.9997559" y="-50.0002441" display="none" fill="#FFFFFF" width="600" height="600"/>
<rect x="-49.9997559" y="-50.0002441" display="none" width="600" height="600"/>
<rect x="-49.9997559" y="-50.0002441" display="none" fill="#FFFFFF" width="600" height="600"/>
<rect x="-49.9997559" y="118.0515137" width="600" height="263.8964844"/>
<g transform="translate(39.635858, 224.176879)">
	<g>
		<path fill="#FFFFFF" d="M42.4200439,74.7261963V-83.2327881h11.1875V74.7261963H42.4200439z"/>
	</g>
</g>
<g transform="translate(86.362848, 224.176879)">
	<g>
		<path fill="#FFFFFF" d="M127.8502808,77.1636963c-22.5576172,0-41.4589844-7.8652344-56.7089844-23.6044922
			c-15.25-15.75-22.875-35.0214844-22.875-57.8125c0-22.8027344,7.625-42.0732422,22.875-57.8125
			c15.25-15.734375,34.1513672-23.6044922,56.7089844-23.6044922c22.5517578,0,41.4160156,7.8701172,56.5830078,23.6044922
			c15.1767578,15.7392578,22.7705078,34.96875,22.7705078,57.6875c0,13.4736328-2.84375,25.9736328-8.5205078,37.5
			c-5.6826172,11.515625-13.4736328,21-23.375,28.4580078c38.625,22.875,68.3173828,36.6669922,89.0830078,41.375
			c10.7089844,2.59375,21.0107422,3.8964844,30.9169922,3.8964844c9.9013672,0,20.5673828-1.140625,32-3.4169922
			c11.4423828-2.265625,19.59375-4.6142578,24.4580078-7.0419922l2.6875,6.3339844
			c-6.1660156,2.9160156-15.1347656,5.7910156-26.8955078,8.625c-11.765625,2.84375-22.8017578,4.2705078-33.1044922,4.2705078
			c-10.3066406,0-21.3017578-1.34375-32.9785156-4.0205078c-11.6826172-2.6826172-23.8544922-6.9482422-36.5214844-12.7919922
			c-12.65625-5.8330078-22.4316406-10.578125-29.3330078-14.2294922c-6.890625-3.65625-16.8232422-9.2910156-29.7919922-16.9169922
			C154.1315308,73.9967041,141.4752808,77.1636963,127.8502808,77.1636963z M127.7252808-75.6907959
			c-19.5576172,0-35.7451172,6.8955078-48.5625,20.6875c-12.8232422,13.7910156-19.2294922,30.7080078-19.2294922,50.75
			c0,20.0410156,6.40625,36.9160156,19.2294922,50.625c12.8173828,13.7080078,29.046875,20.5625,48.6875,20.5625
			c10.21875,0,19.46875-1.9433594,27.75-5.8339844c-18.3339844-12.3330078-32.6152344-18.5-42.8339844-18.5
			c-5.8486328,0-11.203125,1.1357422-16.0625,3.3964844l-3.6660156-6.8125c5.5253906-3.5683594,11.6923828-5.3544922,18.5-5.3544922
			c6.8173828,0,13.46875,1.2236328,19.9580078,3.6669922c6.5,2.4316406,11.9794922,4.9472656,16.4375,7.5410156
			c4.4580078,2.5996094,10.2548828,6.2451172,17.3955078,10.9375c9.4169922-6.3173828,16.8388672-14.7910156,22.2714844-25.4160156
			c5.4423828-10.6357422,8.1660156-22.28125,8.1660156-34.9375c0-19.9589844-6.453125-36.8339844-19.3535156-50.625
			C163.5065308-68.7952881,147.2770386-75.6907959,127.7252808-75.6907959z"/>
	</g>
</g>
<g>
	<defs>
		<rect id="SVGID_1_" x="382.364502" y="257.947998" width="117.6357422" height="124"/>
	</defs>
	<clipPath id="SVGID_2_">
		<use xlink:href="#SVGID_1_"  overflow="visible"/>
	</clipPath>
	<path clip-path="url(#SVGID_2_)" fill="#FFFFFF" d="M426.7600098,361.682373h27.453125l-8.3017578-57.03125
		c-0.1982422-1.3642578,0.4794922-2.7080078,1.6923828-3.3642578c4.9326172-2.640625,8-7.7607422,8-13.359375
		c0-8.3496094-6.78125-15.140625-15.1142578-15.140625s-15.1142578,6.7910156-15.1142578,15.140625
		c0,5.5986328,3.0625,10.71875,7.9941406,13.359375c1.21875,0.65625,1.8964844,2,1.6933594,3.3642578L426.7600098,361.682373z
		 M458.0002441,368.2341309h-35.0214844c-0.953125,0-1.8535156-0.4111328-2.4736328-1.1298828
		c-0.625-0.71875-0.9013672-1.6767578-0.765625-2.6201172l8.5361328-58.6347656
		c-5.8798828-4.015625-9.4472656-10.6933594-9.4472656-17.921875c0-11.9638672,9.71875-21.6982422,21.6611328-21.6982422
		s21.65625,9.734375,21.65625,21.6982422c0,7.2285156-3.5673828,13.90625-9.4423828,17.921875l8.53125,58.6347656
		c0.140625,0.9433594-0.1357422,1.9013672-0.7607422,2.6201172
		C459.8537598,367.822998,458.9475098,368.2341309,458.0002441,368.2341309z M361.3283691,34.9528809
		c-7.7763672,0-14.1044922,6.34375-14.1044922,14.1308594v340.4472656c0,7.7919922,6.328125,14.1308594,14.1044922,14.1308594
		h158.3222656c7.7763672,0,14.0996094-6.3388672,14.0996094-14.1308594V168.2556152H460.864502
		c-11.90625,7.40625-26.3486328,7.8173828-38.8388672,1.0566406c-12.703125-6.8691406-20.2861328-19.609375-20.2861328-34.0722656
		c0-14.4638672,7.5888672-27.2089844,20.2919922-34.0839844c12.484375-6.7548828,26.9267578-6.3378906,38.8330078,1.0683594
		h72.8857422v-53.140625c0-7.7871094-6.3232422-14.1308594-14.0996094-14.1308594H361.3283691z M519.6506348,410.2185059
		H361.3283691c-11.3857422,0-20.6464844-9.28125-20.6464844-20.6875V49.0837402
		c0-11.40625,9.2607422-20.6826172,20.6464844-20.6826172h158.3222656c11.3808594,0,20.6464844,9.2763672,20.6464844,20.6826172
		v56.4160156c0,1.8125-1.4638672,3.2763672-3.2714844,3.2763672h-77.1191406c-0.6357422,0-1.2607422-0.1826172-1.7919922-0.5361328
		c-10.015625-6.5732422-22.34375-7.0683594-32.9736328-1.3125c-10.5527344,5.7128906-16.8544922,16.296875-16.8544922,28.3125
		s6.296875,22.59375,16.8486328,28.3066406c10.6357422,5.7558594,22.9638672,5.265625,32.9794922-1.3125
		c0.53125-0.3486328,1.15625-0.53125,1.7919922-0.53125h77.1191406c1.8076172,0,3.2714844,1.4638672,3.2714844,3.2763672
		v224.5517578C540.2971191,400.9372559,531.0314941,410.2185059,519.6506348,410.2185059"/>
</g>
<g transform="translate(59.735573, 265.523887)">
	<g>
		<path fill="#FFFFFF" d="M26.3076477,88.5080872V53.966095c3.0673828-0.21875,5.6357422-0.3330078,7.7080078-0.3330078
			c3.3027344,0,6.0214844,0.8544922,8.1464844,2.5625c2.1347656,1.6982422,3.2080078,4.09375,3.2080078,7.1875
			c0,2.0986328-0.6201172,4.0576172-1.8544922,5.875c-1.2236328,1.8076172-2.59375,3.2451172-4.1035156,4.3125
			c1.1923828,1.65625,2.671875,3.6201172,4.4375,5.8955078c1.7597656,2.28125,2.9003906,3.7089844,3.4160156,4.2919922
			c1.96875,2.0986328,4.1982422,3.2919922,6.6875,3.5830078l-0.0410156,1.5625
			c-1.9746094-0.0410156-3.578125-0.34375-4.8125-0.8955078c-1.2246094-0.5673828-2.3964844-1.4375-3.5214844-2.6044922
			c-1.1142578-1.1660156-3.8847656-4.78125-8.3125-10.8535156c-3.1660156,0-6.0410156-0.09375-8.625-0.2919922v14.25H26.3076477z
			 M35.8701477,72.591095c1.4169922,0,2.9267578-0.9375,4.5419922-2.8125c1.625-1.875,2.4375-4.046875,2.4375-6.5205078
			c0-2.46875-0.8339844-4.34375-2.5-5.625c-1.6669922-1.2763672-3.875-1.9169922-6.625-1.9169922
			c-1.4482422,0-3.140625,0.0732422-5.0839844,0.2089844v16.4375C31.2246399,72.5188293,33.6308899,72.591095,35.8701477,72.591095z
			"/>
	</g>
</g>
<g transform="translate(84.758028, 265.523887)">
	<g>
		<path fill="#FFFFFF" d="M34.648468,88.5080872v-34.6875h16.1044922v2.0419922H36.9814758v12.7705078h12.4589844v1.9794922
			H36.9814758V86.466095h14.3125v2.0419922H34.648468z"/>
	</g>
</g>
<g transform="translate(105.307041, 265.523887)">
	<g>
		<path fill="#FFFFFF" d="M43.3523865,76.4875793l-5,12.0205078h-2.4794922L50.4773865,53.591095h1.3544922l14.6455078,34.9169922
			h-2.6044922l-5-12.0205078H43.3523865z M51.0193787,57.466095c-0.0419922,0.03125-0.1152344,0.2246094-0.2089844,0.5839844
			c-0.4472656,1.390625-0.8847656,2.5722656-1.3125,3.5410156l-5.3330078,12.8964844h13.875l-5.3330078-12.8544922
			C51.5818787,59.1750793,51.0193787,57.7893372,51.0193787,57.466095z"/>
	</g>
</g>
<g transform="translate(130.511349, 265.523887)">
	<g>
		<path fill="#FFFFFF" d="M49.9000244,88.5080872v-34.6875h2.3330078v32.5625H68.19104v2.125H49.9000244z"/>
	</g>
</g>
<g transform="translate(150.914885, 265.523887)">
	<g>
		<path fill="#FFFFFF" d="M63.1175842,55.8625793h-11.75v-2.0419922h25.8125v2.0419922h-11.75v32.6455078h-2.3125V55.8625793z"/>
	</g>
</g>
<g transform="translate(172.955041, 265.523887)">
	<g>
		<path fill="#FFFFFF" d="M73.7971497,88.5080872h-2.3330078V76.091095L58.4221497,53.8205872h2.8125l10.0839844,17.5625
			c0.5830078,1.0419922,1.0673828,1.953125,1.4580078,2.7294922c0.1357422-0.4277344,0.59375-1.3027344,1.375-2.625
			l10.0830078-17.6669922h2.6669922l-13.1044922,22.375V88.5080872z"/>
	</g>
</g>
</svg>
