<?xml version="1.0" encoding="UTF-8" standalone="no"?>
<!DOCTYPE svg PUBLIC "-//W3C//DTD SVG 1.1//EN" "http://www.w3.org/Graphics/SVG/1.1/DTD/svg11.dtd">
<svg width="100%" height="100%" viewBox="0 0 1000 1000" version="1.1" xmlns="http://www.w3.org/2000/svg" xmlns:xlink="http://www.w3.org/1999/xlink" xml:space="preserve" xmlns:serif="http://www.serif.com/" style="fill-rule:evenodd;clip-rule:evenodd;stroke-linejoin:round;stroke-miterlimit:2;">
    <g transform="matrix(1.33333,0,0,1.33333,0,3.33333e-06)">
        <rect x="95.902" y="65.867" width="32.121" height="453.492" style="fill-rule:nonzero;"/>
    </g>
    <g transform="matrix(1.33333,0,0,1.33333,0,3.33333e-06)">
        <path d="M475.32,526.355C410.559,526.355 356.293,503.777 312.512,458.59C268.73,413.371 246.84,358.047 246.84,292.613C246.84,227.148 268.73,171.824 312.512,126.637C356.293,81.465 410.559,58.871 475.32,58.871C540.063,58.871 594.223,81.465 637.766,126.637C681.336,171.824 703.137,227.031 703.137,292.254C703.137,330.938 694.973,366.824 678.676,399.914C662.359,432.977 639.992,460.203 611.566,481.617C722.457,547.289 807.703,586.883 867.32,600.402C898.063,607.848 927.641,611.586 956.078,611.586C984.508,611.586 1015.13,608.312 1047.95,601.777C1080.8,595.273 1104.2,588.531 1118.17,581.559L1125.88,599.746C1108.18,608.117 1082.43,616.371 1048.67,624.508C1014.89,632.672 983.207,636.766 953.625,636.766C924.035,636.766 892.473,632.91 858.949,625.223C825.406,617.523 790.461,605.277 754.098,588.5C717.762,571.754 689.695,558.129 669.883,547.648C650.102,537.152 621.586,520.973 584.352,499.078C550.77,517.266 514.434,526.355 475.32,526.355ZM474.961,87.52C418.813,87.52 372.336,107.316 335.539,146.914C298.727,186.508 280.332,235.074 280.332,292.613C280.332,350.148 298.727,398.598 335.539,437.953C372.336,477.309 418.93,496.988 475.32,496.988C504.656,496.988 531.211,491.41 554.988,480.238C502.352,444.832 461.352,427.125 432.012,427.125C415.223,427.125 399.852,430.387 385.898,436.879L375.375,417.32C391.238,407.074 408.941,401.949 428.488,401.949C448.059,401.949 467.156,405.461 485.785,412.477C504.445,419.457 520.176,426.68 532.977,434.125C545.773,441.59 562.418,452.055 582.918,465.527C609.953,447.391 631.262,423.063 646.855,392.559C662.48,362.023 670.301,328.59 670.301,292.254C670.301,234.953 651.773,186.508 614.738,146.914C577.684,107.316 531.09,87.52 474.961,87.52Z" style="fill-rule:nonzero;"/>
    </g>
    <g transform="matrix(1.33333,0,0,1.33333,0,3.33333e-06)">
        <path d="M107.352,677.629L107.352,578.461C116.156,577.836 123.531,577.508 129.48,577.508C138.961,577.508 146.766,579.961 152.867,584.863C158.996,589.738 162.078,596.617 162.078,605.496C162.078,611.523 160.297,617.148 156.754,622.363C153.242,627.555 149.309,631.68 144.973,634.746C148.395,639.5 152.645,645.141 157.711,651.672C162.766,658.219 166.039,662.32 167.52,663.992C173.172,670.02 179.574,673.445 186.719,674.281L186.602,678.766C180.934,678.648 176.328,677.777 172.785,676.195C169.27,674.566 165.906,672.066 162.676,668.719C159.477,665.371 151.523,654.992 138.809,637.559C129.723,637.559 121.469,637.289 114.047,636.719L114.047,677.629L107.352,677.629ZM134.805,631.934C138.871,631.934 143.207,629.242 147.844,623.859C152.508,618.477 154.844,612.242 154.844,605.141C154.844,598.051 152.449,592.668 147.664,588.988C142.879,585.324 136.539,583.488 128.645,583.488C124.488,583.488 119.629,583.695 114.047,584.086L114.047,631.277C121.469,631.727 128.375,631.934 134.805,631.934Z" style="fill-rule:nonzero;"/>
    </g>
    <g transform="matrix(1.33333,0,0,1.33333,0,3.33333e-06)">
        <path d="M203.133,677.629L203.133,578.043L249.371,578.043L249.371,583.906L209.832,583.906L209.832,620.57L245.602,620.57L245.602,626.254L209.832,626.254L209.832,671.77L250.922,671.77L250.922,677.629L203.133,677.629Z" style="fill-rule:nonzero;"/>
    </g>
    <g transform="matrix(1.33333,0,0,1.33333,0,3.33333e-06)">
        <path d="M287.117,643.121L272.762,677.629L265.645,677.629L307.574,577.387L311.461,577.387L353.508,677.629L346.031,677.629L331.676,643.121L287.117,643.121ZM309.129,588.512C309.008,588.602 308.797,589.156 308.531,590.188C307.246,594.18 305.988,597.57 304.762,600.352L289.449,637.379L329.285,637.379L313.973,600.473C310.746,593.418 309.129,589.437 309.129,588.512Z" style="fill-rule:nonzero;"/>
    </g>
    <g transform="matrix(1.33333,0,0,1.33333,0,3.33333e-06)">
        <path d="M378.277,677.629L378.277,578.043L384.973,578.043L384.973,671.531L430.789,671.531L430.789,677.629L378.277,677.629Z" style="fill-rule:nonzero;"/>
    </g>
    <g transform="matrix(1.33333,0,0,1.33333,0,3.33333e-06)">
        <path d="M474.801,583.906L441.066,583.906L441.066,578.043L515.172,578.043L515.172,583.906L481.438,583.906L481.438,677.629L474.801,677.629L474.801,583.906Z" style="fill-rule:nonzero;"/>
    </g>
    <g transform="matrix(1.33333,0,0,1.33333,0,3.33333e-06)">
        <path d="M568.734,677.629L562.039,677.629L562.039,641.98L524.594,578.043L532.672,578.043L561.621,628.465C563.293,631.457 564.684,634.074 565.805,636.301C566.195,635.074 567.512,632.563 569.754,628.766L598.703,578.043L606.359,578.043L568.734,642.281L568.734,677.629Z" style="fill-rule:nonzero;"/>
    </g>
</svg>
