<?xml version="1.0" encoding="UTF-8" standalone="no"?>
<!DOCTYPE svg PUBLIC "-//W3C//DTD SVG 1.1//EN" "http://www.w3.org/Graphics/SVG/1.1/DTD/svg11.dtd">
<svg width="100%" height="100%" viewBox="0 0 1000 1000" version="1.1" xmlns="http://www.w3.org/2000/svg" xmlns:xlink="http://www.w3.org/1999/xlink" xml:space="preserve" xmlns:serif="http://www.serif.com/" style="fill-rule:evenodd;clip-rule:evenodd;stroke-linejoin:round;stroke-miterlimit:2;">
    <g id="cac13574eb" transform="matrix(1.33333,0,0,1.33333,0,3.33333e-06)">
        <rect x="95.977" y="65.898" width="32.121" height="453.684" style="fill:white;fill-rule:nonzero;"/>
        <path d="M475.434,526.586C410.664,526.586 356.395,503.992 312.605,458.789C268.82,413.551 246.926,358.199 246.926,292.738C246.926,227.246 268.82,171.898 312.605,126.691C356.395,81.5 410.664,58.895 475.434,58.895C540.184,58.895 594.348,81.5 637.895,126.691C681.473,171.898 703.277,227.129 703.277,292.383C703.277,331.078 695.109,366.98 678.813,400.086C662.496,433.164 640.125,460.402 611.695,481.824C722.598,547.527 807.852,587.137 867.477,600.66C898.223,608.109 927.801,611.852 956.246,611.852C984.676,611.852 1015.3,608.574 1048.12,602.039C1080.98,595.531 1104.38,588.785 1118.35,581.813L1126.07,600.004C1108.36,608.379 1082.61,616.637 1048.84,624.777C1015.06,632.945 983.375,637.043 953.793,637.043C924.199,637.043 892.629,633.184 859.102,625.496C825.559,617.789 790.609,605.539 754.242,588.754C717.902,572 689.832,558.371 670.02,547.883C650.234,537.383 621.715,521.199 584.477,499.297C550.891,517.488 514.551,526.586 475.434,526.586ZM475.074,87.559C418.918,87.559 372.441,107.363 335.637,146.977C298.82,186.586 280.426,235.176 280.426,292.738C280.426,350.301 298.82,398.77 335.637,438.145C372.441,477.516 419.039,497.203 475.434,497.203C504.773,497.203 531.332,491.621 555.109,480.445C502.469,445.023 461.461,427.313 432.121,427.313C415.328,427.313 399.953,430.574 386.004,437.066L375.477,417.5C391.34,407.25 409.047,402.121 428.594,402.121C448.168,402.121 467.266,405.637 485.898,412.652C504.563,419.637 520.297,426.863 533.094,434.313C545.895,441.781 562.539,452.25 583.043,465.727C610.082,447.582 631.391,423.246 646.988,392.727C662.617,362.18 670.438,328.73 670.438,292.383C670.438,235.055 651.906,186.586 614.867,146.977C577.809,107.363 531.211,87.559 475.074,87.559Z" style="fill:white;fill-rule:nonzero;"/>
        <path d="M107.426,677.922L107.426,578.711C116.23,578.086 123.605,577.758 129.555,577.758C139.039,577.758 146.844,580.211 152.945,585.117C159.074,589.992 162.156,596.875 162.156,605.762C162.156,611.789 160.375,617.414 156.832,622.633C153.32,627.824 149.387,631.953 145.051,635.02C148.473,639.777 152.723,645.418 157.793,651.953C162.844,658.504 166.121,662.605 167.602,664.281C173.254,670.309 179.652,673.734 186.801,674.57L186.684,679.059C181.016,678.941 176.41,678.07 172.867,676.488C169.348,674.859 165.984,672.359 162.754,669.008C159.555,665.656 151.602,655.273 138.887,637.832C129.797,637.832 121.543,637.563 114.121,636.996L114.121,677.922L107.426,677.922ZM134.879,632.207C138.949,632.207 143.285,629.516 147.922,624.129C152.586,618.742 154.922,612.504 154.922,605.402C154.922,598.309 152.527,592.926 147.742,589.246C142.957,585.578 136.617,583.738 128.719,583.738C124.563,583.738 119.703,583.949 114.121,584.34L114.121,631.551C121.543,632 128.449,632.207 134.879,632.207Z" style="fill:white;fill-rule:nonzero;"/>
        <path d="M203.219,677.922L203.219,578.293L249.457,578.293L249.457,584.16L209.918,584.16L209.918,620.84L245.691,620.84L245.691,626.523L209.918,626.523L209.918,672.059L251.012,672.059L251.012,677.922L203.219,677.922Z" style="fill:white;fill-rule:nonzero;"/>
        <path d="M287.211,643.398L272.855,677.922L265.734,677.922L307.668,577.637L311.559,577.637L353.609,677.922L346.129,677.922L331.773,643.398L287.211,643.398ZM309.223,588.766C309.105,588.855 308.895,589.41 308.625,590.441C307.34,594.438 306.086,597.832 304.855,600.613L289.543,637.652L329.383,637.652L314.07,600.734C310.84,593.676 309.223,589.695 309.223,588.766Z" style="fill:white;fill-rule:nonzero;"/>
        <path d="M378.379,677.922L378.379,578.293L385.078,578.293L385.078,671.82L430.898,671.82L430.898,677.922L378.379,677.922Z" style="fill:white;fill-rule:nonzero;"/>
        <path d="M474.914,584.16L441.176,584.16L441.176,578.293L515.289,578.293L515.289,584.16L481.555,584.16L481.555,677.922L474.914,677.922L474.914,584.16Z" style="fill:white;fill-rule:nonzero;"/>
        <path d="M568.859,677.922L562.16,677.922L562.16,642.262L524.715,578.293L532.789,578.293L561.742,628.738C563.418,631.73 564.809,634.348 565.93,636.578C566.32,635.348 567.633,632.836 569.879,629.039L598.828,578.293L606.484,578.293L568.859,642.559L568.859,677.922Z" style="fill:white;fill-rule:nonzero;"/>
    </g>
</svg>
