<?xml version="1.0" encoding="UTF-8" standalone="no"?>
<!DOCTYPE svg PUBLIC "-//W3C//DTD SVG 1.1//EN" "http://www.w3.org/Graphics/SVG/1.1/DTD/svg11.dtd">
<svg width="100%" height="100%" viewBox="0 0 600 264" version="1.1" xmlns="http://www.w3.org/2000/svg" xmlns:xlink="http://www.w3.org/1999/xlink" xml:space="preserve" xmlns:serif="http://www.serif.com/" style="fill-rule:evenodd;clip-rule:evenodd;stroke-linejoin:round;stroke-miterlimit:2;">
    <g transform="matrix(1,0,0,1,89.6356,106.125)">
        <g>
            <rect x="42.42" y="-83.233" width="11.188" height="157.959" style="fill:white;fill-rule:nonzero;"/>
        </g>
    </g>
    <g transform="matrix(1,0,0,1,136.363,106.125)">
        <g>
            <path d="M127.85,77.164C105.293,77.164 86.391,69.298 71.141,53.559C55.891,37.809 48.266,18.538 48.266,-4.253C48.266,-27.056 55.891,-46.327 71.141,-62.066C86.391,-77.8 105.293,-85.67 127.85,-85.67C150.402,-85.67 169.266,-77.8 184.433,-62.066C199.61,-46.327 207.204,-27.097 207.204,-4.378C207.204,9.095 204.36,21.595 198.683,33.122C193.001,44.637 185.21,54.122 175.308,61.58C213.933,84.455 243.626,98.247 264.391,102.955C275.1,105.548 285.402,106.851 295.308,106.851C305.21,106.851 315.876,105.711 327.308,103.434C338.751,101.169 346.902,98.82 351.766,96.392L354.454,102.726C348.288,105.642 339.319,108.517 327.558,111.351C315.793,114.195 304.757,115.622 294.454,115.622C284.147,115.622 273.152,114.278 261.475,111.601C249.793,108.919 237.621,104.653 224.954,98.809C212.298,92.976 202.522,88.231 195.621,84.58C188.73,80.923 178.798,75.289 165.829,67.663C154.132,73.997 141.475,77.164 127.85,77.164ZM127.725,-75.691C108.168,-75.691 91.98,-68.795 79.163,-55.003C66.34,-41.212 59.933,-24.295 59.933,-4.253C59.933,15.788 66.34,32.663 79.163,46.372C91.98,60.08 108.21,66.934 127.85,66.934C138.069,66.934 147.319,64.991 155.6,61.1C137.266,48.767 122.985,42.6 112.766,42.6C106.918,42.6 101.563,43.736 96.704,45.997L93.038,39.184C98.563,35.616 104.73,33.83 111.538,33.83C118.355,33.83 125.007,35.053 131.496,37.497C137.996,39.928 143.475,42.444 147.933,45.038C152.391,47.637 158.188,51.283 165.329,55.975C174.746,49.658 182.168,41.184 187.6,30.559C193.043,19.923 195.766,8.278 195.766,-4.378C195.766,-24.337 189.313,-41.212 176.413,-55.003C163.507,-68.795 147.277,-75.691 127.725,-75.691Z" style="fill:white;fill-rule:nonzero;"/>
        </g>
    </g>
    <g transform="matrix(1,0,0,1,49.9998,-118.052)">
        <clipPath id="_clip1">
            <rect x="382.365" y="257.948" width="117.636" height="124"/>
        </clipPath>
        <g clip-path="url(#_clip1)">
            <path d="M426.76,361.682L454.213,361.682L445.911,304.651C445.713,303.287 446.391,301.943 447.604,301.287C452.536,298.646 455.604,293.526 455.604,287.927C455.604,279.578 448.823,272.787 440.49,272.787C432.156,272.787 425.375,279.578 425.375,287.927C425.375,293.526 428.438,298.646 433.369,301.287C434.588,301.943 435.266,303.287 435.063,304.651L426.76,361.682ZM458,368.234L422.979,368.234C422.026,368.234 421.125,367.823 420.505,367.104C419.88,366.385 419.604,365.427 419.74,364.484L428.276,305.849C422.396,301.834 418.828,295.156 418.828,287.927C418.828,275.964 428.547,266.229 440.49,266.229C452.432,266.229 462.146,275.964 462.146,287.927C462.146,295.156 458.578,301.834 452.703,305.849L461.235,364.484C461.375,365.427 461.099,366.385 460.474,367.104C459.854,367.823 458.948,368.234 458,368.234ZM361.328,34.953C353.552,34.953 347.224,41.297 347.224,49.084L347.224,389.531C347.224,397.323 353.552,403.662 361.328,403.662L519.651,403.662C527.427,403.662 533.75,397.323 533.75,389.531L533.75,168.256L460.865,168.256C448.958,175.662 434.516,176.073 422.026,169.312C409.323,162.443 401.74,149.703 401.74,135.24C401.74,120.776 409.328,108.031 422.031,101.156C434.516,94.401 448.958,94.818 460.865,102.224L533.75,102.224L533.75,49.084C533.75,41.297 527.427,34.953 519.651,34.953L361.328,34.953ZM519.651,410.219L361.328,410.219C349.943,410.219 340.682,400.937 340.682,389.531L340.682,49.084C340.682,37.677 349.943,28.401 361.328,28.401L519.651,28.401C531.031,28.401 540.297,37.677 540.297,49.084L540.297,105.5C540.297,107.312 538.833,108.776 537.026,108.776L459.906,108.776C459.271,108.776 458.646,108.594 458.115,108.24C448.099,101.667 435.771,101.172 425.141,106.927C414.588,112.64 408.286,123.224 408.286,135.24C408.286,147.256 414.583,157.834 425.135,163.547C435.771,169.302 448.099,168.812 458.115,162.234C458.646,161.885 459.271,161.703 459.906,161.703L537.026,161.703C538.833,161.703 540.297,163.167 540.297,164.979L540.297,389.531C540.297,400.937 531.031,410.219 519.651,410.219" style="fill:white;fill-rule:nonzero;"/>
        </g>
    </g>
    <g transform="matrix(1,0,0,1,109.735,147.472)">
        <g>
            <path d="M26.308,88.508L26.308,53.966C29.375,53.747 31.943,53.633 34.016,53.633C37.318,53.633 40.037,54.488 42.162,56.196C44.297,57.894 45.37,60.289 45.37,63.383C45.37,65.482 44.75,67.441 43.516,69.258C42.292,71.066 40.922,72.503 39.412,73.571C40.605,75.227 42.084,77.191 43.85,79.466C45.609,81.747 46.75,83.175 47.266,83.758C49.234,85.857 51.464,87.05 53.953,87.341L53.912,88.904C51.938,88.863 50.334,88.56 49.1,88.008C47.875,87.441 46.703,86.571 45.578,85.404C44.464,84.238 41.693,80.622 37.266,74.55C34.1,74.55 31.225,74.456 28.641,74.258L28.641,88.508L26.308,88.508ZM35.87,72.591C37.287,72.591 38.797,71.654 40.412,69.779C42.037,67.904 42.85,65.732 42.85,63.258C42.85,60.789 42.016,58.914 40.35,57.633C38.683,56.357 36.475,55.716 33.725,55.716C32.276,55.716 30.584,55.789 28.641,55.925L28.641,72.363C31.225,72.519 33.631,72.591 35.87,72.591Z" style="fill:white;fill-rule:nonzero;"/>
        </g>
    </g>
    <g transform="matrix(1,0,0,1,134.758,147.472)">
        <g>
            <path d="M34.648,88.508L34.648,53.821L50.753,53.821L50.753,55.863L36.981,55.863L36.981,68.633L49.44,68.633L49.44,70.613L36.981,70.613L36.981,86.466L51.294,86.466L51.294,88.508L34.648,88.508Z" style="fill:white;fill-rule:nonzero;"/>
        </g>
    </g>
    <g transform="matrix(1,0,0,1,155.307,147.472)">
        <g>
            <path d="M43.352,76.488L38.352,88.508L35.873,88.508L50.477,53.591L51.832,53.591L66.477,88.508L63.873,88.508L58.873,76.488L43.352,76.488ZM51.019,57.466C50.977,57.497 50.904,57.691 50.81,58.05C50.363,59.441 49.926,60.622 49.498,61.591L44.165,74.488L58.04,74.488L52.707,61.633C51.582,59.175 51.019,57.789 51.019,57.466Z" style="fill:white;fill-rule:nonzero;"/>
        </g>
    </g>
    <g transform="matrix(1,0,0,1,180.511,147.472)">
        <g>
            <path d="M49.9,88.508L49.9,53.821L52.233,53.821L52.233,86.383L68.191,86.383L68.191,88.508L49.9,88.508Z" style="fill:white;fill-rule:nonzero;"/>
        </g>
    </g>
    <g transform="matrix(1,0,0,1,200.915,147.472)">
        <g>
            <path d="M63.118,55.863L51.368,55.863L51.368,53.821L77.18,53.821L77.18,55.863L65.43,55.863L65.43,88.508L63.118,88.508L63.118,55.863Z" style="fill:white;fill-rule:nonzero;"/>
        </g>
    </g>
    <g transform="matrix(1,0,0,1,222.955,147.472)">
        <g>
            <path d="M73.797,88.508L71.464,88.508L71.464,76.091L58.422,53.821L61.235,53.821L71.319,71.383C71.902,72.425 72.386,73.336 72.777,74.113C72.912,73.685 73.37,72.81 74.152,71.488L84.235,53.821L86.902,53.821L73.797,76.196L73.797,88.508Z" style="fill:white;fill-rule:nonzero;"/>
        </g>
    </g>
</svg>
