<?xml version="1.0" encoding="UTF-8" standalone="no"?>
<!DOCTYPE svg PUBLIC "-//W3C//DTD SVG 1.1//EN" "http://www.w3.org/Graphics/SVG/1.1/DTD/svg11.dtd">
<svg width="100%" height="100%" viewBox="0 0 600 264" version="1.1" xmlns="http://www.w3.org/2000/svg" xmlns:xlink="http://www.w3.org/1999/xlink" xml:space="preserve" xmlns:serif="http://www.serif.com/" style="fill-rule:evenodd;clip-rule:evenodd;stroke-linejoin:round;stroke-miterlimit:2;">
    <g id="a33ed5717a" transform="matrix(1.33333,0,0,1.33333,0,2.66667e-06)">
        <rect x="99.043" y="17.207" width="8.391" height="118.469" style="fill-rule:nonzero;"/>
        <path d="M198.16,137.504C181.242,137.504 167.066,131.605 155.629,119.801C144.191,107.988 138.473,93.535 138.473,76.441C138.473,59.34 144.191,44.887 155.629,33.082C167.066,21.281 181.242,15.379 198.16,15.379C215.074,15.379 229.223,21.281 240.598,33.082C251.98,44.887 257.676,59.309 257.676,76.348C257.676,86.453 255.543,95.828 251.285,104.473C247.023,113.109 241.18,120.223 233.754,125.816C262.723,142.973 284.992,153.316 300.566,156.848C308.598,158.793 316.324,159.77 323.754,159.77C331.18,159.77 339.18,158.914 347.754,157.207C356.336,155.508 362.449,153.746 366.098,151.926L368.113,156.676C363.488,158.863 356.762,161.02 347.941,163.145C339.117,165.277 330.84,166.348 323.113,166.348C315.383,166.348 307.137,165.34 298.379,163.332C289.617,161.32 280.488,158.121 270.988,153.738C261.496,149.363 254.164,145.805 248.988,143.066C243.82,140.324 236.371,136.098 226.645,130.379C217.871,135.129 208.379,137.504 198.16,137.504ZM198.066,22.863C183.398,22.863 171.258,28.035 161.645,38.379C152.027,48.723 147.223,61.41 147.223,76.441C147.223,91.473 152.027,104.129 161.645,114.41C171.258,124.691 183.43,129.832 198.16,129.832C205.824,129.832 212.762,128.375 218.973,125.457C205.223,116.207 194.512,111.582 186.848,111.582C182.461,111.582 178.445,112.434 174.801,114.129L172.051,109.02C176.195,106.344 180.82,105.004 185.926,105.004C191.039,105.004 196.027,105.922 200.895,107.754C205.77,109.578 209.879,111.465 213.223,113.41C216.566,115.359 220.914,118.094 226.27,121.613C233.332,116.875 238.898,110.52 242.973,102.551C247.055,94.574 249.098,85.84 249.098,76.348C249.098,61.379 244.258,48.723 234.582,38.379C224.902,28.035 212.73,22.863 198.066,22.863Z" style="fill-rule:nonzero;"/>
        <g>
            <clipPath id="_clip1">
                <rect x="324.273" y="104.961" width="75.789" height="92.289"/>
            </clipPath>
            <g clip-path="url(#_clip1)">
                <path d="M357.57,182.762L378.16,182.762L371.934,139.988C371.785,138.965 372.293,137.957 373.203,137.465C376.902,135.484 379.203,131.645 379.203,127.445C379.203,121.184 374.117,116.09 367.867,116.09C361.617,116.09 356.531,121.184 356.531,127.445C356.531,131.645 358.828,135.484 362.527,137.465C363.441,137.957 363.949,138.965 363.797,139.988L357.57,182.762ZM381,187.676L354.734,187.676C354.02,187.676 353.344,187.367 352.879,186.828C352.41,186.289 352.203,185.57 352.305,184.863L358.707,140.887C354.297,137.875 351.621,132.867 351.621,127.445C351.621,118.473 358.91,111.172 367.867,111.172C376.824,111.172 384.109,118.473 384.109,127.445C384.109,132.867 381.434,137.875 377.027,140.887L383.426,184.863C383.531,185.57 383.324,186.289 382.855,186.828C382.391,187.367 381.711,187.676 381,187.676ZM308.496,-62.285C302.664,-62.285 297.918,-57.527 297.918,-51.688L297.918,203.648C297.918,209.492 302.664,214.246 308.496,214.246L427.238,214.246C433.07,214.246 437.813,209.492 437.813,203.648L437.813,37.691L383.148,37.691C374.219,43.246 363.387,43.555 354.02,38.484C344.492,33.332 338.805,23.777 338.805,12.93C338.805,2.082 344.496,-7.477 354.023,-12.633C363.387,-17.699 374.219,-17.387 383.148,-11.832L437.813,-11.832L437.813,-51.688C437.813,-57.527 433.07,-62.285 427.238,-62.285L308.496,-62.285ZM427.238,219.164L308.496,219.164C299.957,219.164 293.012,212.203 293.012,203.648L293.012,-51.688C293.012,-60.242 299.957,-67.199 308.496,-67.199L427.238,-67.199C435.773,-67.199 442.723,-60.242 442.723,-51.688L442.723,-9.375C442.723,-8.016 441.625,-6.918 440.27,-6.918L382.43,-6.918C381.953,-6.918 381.484,-7.055 381.086,-7.32C373.574,-12.25 364.328,-12.621 356.355,-8.305C348.441,-4.02 343.715,3.918 343.715,12.93C343.715,21.941 348.438,29.875 356.352,34.16C364.328,38.477 373.574,38.109 381.086,33.176C381.484,32.914 381.953,32.777 382.43,32.777L440.27,32.777C441.625,32.777 442.723,33.875 442.723,35.234L442.723,203.648C442.723,212.203 435.773,219.164 427.238,219.164" style="fill-rule:nonzero;"/>
            </g>
        </g>
        <path d="M102.031,177.023L102.031,151.117C104.332,150.953 106.258,150.867 107.813,150.867C110.289,150.867 112.328,151.508 113.922,152.789C115.523,154.063 116.328,155.859 116.328,158.18C116.328,159.754 115.863,161.223 114.938,162.586C114.02,163.941 112.992,165.02 111.859,165.82C112.754,167.063 113.863,168.535 115.188,170.242C116.508,171.953 117.363,173.023 117.75,173.461C119.227,175.035 120.898,175.93 122.766,176.148L122.734,177.32C121.254,177.289 120.051,177.063 119.125,176.648C118.207,176.223 117.328,175.57 116.484,174.695C115.648,173.82 113.57,171.109 110.25,166.555C107.875,166.555 105.719,166.484 103.781,166.336L103.781,177.023L102.031,177.023ZM109.203,165.086C110.266,165.086 111.398,164.383 112.609,162.977C113.828,161.57 114.438,159.941 114.438,158.086C114.438,156.234 113.813,154.828 112.563,153.867C111.313,152.91 109.656,152.43 107.594,152.43C106.508,152.43 105.238,152.484 103.781,152.586L103.781,164.914C105.719,165.031 107.523,165.086 109.203,165.086Z" style="fill-rule:nonzero;"/>
        <path d="M127.055,177.023L127.055,151.008L139.133,151.008L139.133,152.539L128.805,152.539L128.805,162.117L138.148,162.117L138.148,163.602L128.805,163.602L128.805,175.492L139.539,175.492L139.539,177.023L127.055,177.023Z" style="fill-rule:nonzero;"/>
        <path d="M148.996,168.008L145.246,177.023L143.387,177.023L154.34,150.836L155.355,150.836L166.34,177.023L164.387,177.023L160.637,168.008L148.996,168.008ZM154.746,153.742C154.715,153.766 154.66,153.91 154.59,154.18C154.254,155.223 153.926,156.109 153.605,156.836L149.605,166.508L160.012,166.508L156.012,156.867C155.168,155.023 154.746,153.984 154.746,153.742Z" style="fill-rule:nonzero;"/>
        <path d="M172.809,177.023L172.809,151.008L174.559,151.008L174.559,175.43L186.527,175.43L186.527,177.023L172.809,177.023Z" style="fill-rule:nonzero;"/>
        <path d="M198.023,152.539L189.211,152.539L189.211,151.008L208.57,151.008L208.57,152.539L199.758,152.539L199.758,177.023L198.023,177.023L198.023,152.539Z" style="fill-rule:nonzero;"/>
        <path d="M222.563,177.023L220.813,177.023L220.813,167.711L211.031,151.008L213.141,151.008L220.707,164.18C221.141,164.961 221.504,165.645 221.797,166.227C221.902,165.906 222.242,165.25 222.828,164.258L230.391,151.008L232.391,151.008L222.563,167.789L222.563,177.023Z" style="fill-rule:nonzero;"/>
    </g>
</svg>
